{
.appVersion = "3151";
.formatVersion = 3;
customParameters = (
{
name = vendorID;
value = COMM;
},
{
name = panose;
value = (
2,
13,
2,
4,
3,
5,
2,
5,
2,
3
);
},
{
name = unicodeRanges;
value = (
0,
1,
2
);
},
{
name = codePageRanges;
value = (
"1252",
"1250",
"1254",
"1257",
"bit 29"
);
},
{
name = fsType;
value = (
2
);
},
{
name = glyphOrder;
value = (
.notdef,
Eth,
eth,
Lslash,
lslash,
Scaron,
scaron,
Yacute,
yacute,
Thorn,
thorn,
Zcaron,
zcaron,
onehalf,
onequarter,
onesuperior,
threequarters,
threesuperior,
twosuperior,
brokenbar,
minus,
multiply,
space,
exclam,
quotedbl,
numbersign,
dollar,
percent,
ampersand,
quotesingle,
parenleft,
parenright,
asterisk,
plus,
comma,
hyphen,
period,
slash,
zero,
one,
two,
three,
four,
five,
six,
seven,
eight,
nine,
colon,
semicolon,
less,
equal,
greater,
question,
at,
A,
B,
C,
D,
E,
F,
G,
H,
I,
J,
K,
L,
M,
N,
O,
P,
Q,
R,
S,
T,
U,
V,
W,
X,
Y,
Z,
bracketleft,
backslash,
bracketright,
asciicircum,
underscore,
grave,
a,
b,
c,
d,
e,
f,
g,
h,
i,
j,
k,
l,
m,
n,
o,
p,
q,
r,
s,
t,
u,
v,
w,
x,
y,
z,
braceleft,
bar,
braceright,
asciitilde,
Adieresis,
Aring,
Ccedilla,
Eacute,
Ntilde,
Odieresis,
Udieresis,
aacute,
agrave,
acircumflex,
adieresis,
atilde,
aring,
ccedilla,
eacute,
egrave,
ecircumflex,
edieresis,
iacute,
igrave,
icircumflex,
idieresis,
ntilde,
oacute,
ograve,
ocircumflex,
odieresis,
otilde,
uacute,
ugrave,
ucircumflex,
udieresis,
dagger,
degree,
cent,
sterling,
section,
bullet,
paragraph,
germandbls,
registered,
copyright,
trademark,
acute,
dieresis,
notequal,
AE,
Oslash,
infinity,
plusminus,
lessequal,
greaterequal,
yen,
mu,
partialdiff,
summation,
product,
pi,
integral,
ordfeminine,
ordmasculine,
Omega,
ae,
oslash,
questiondown,
exclamdown,
logicalnot,
radical,
florin,
approxequal,
Delta,
guillemotleft,
guillemotright,
ellipsis,
uni00A0,
Agrave,
Atilde,
Otilde,
OE,
oe,
endash,
emdash,
quotedblleft,
quotedblright,
quoteleft,
quoteright,
divide,
lozenge,
ydieresis,
Ydieresis,
fraction,
Euro,
guilsinglleft,
guilsinglright,

glyphs = (
{
glyphname = Eth;
kernRight = Eth;
layers = (
{
hints = (
{
horizontal = 1;
place = (0, 28);
place = (0, 28);
type = Stem;
},
{
horizontal = 1;
place = (346, 28);
place = (346, 28);
type = Stem;
},
{
horizontal = 1;
place = (686, 29);
place = (686, 29);
type = Stem;
},
{
place = (76, 31);
place = (76, 31);
type = Stem;
},
{
place = (594, 33);
place = (594, 33);
type = Stem;
}
);
layerId = m01;
shapes = (
{
closed = 1;
nodes = (
(76,0,l),
(325,0,ls),
(532,0,o),
(627,154,o),
(627,354,cs),
(627,553,o),
(539,715,o),
(332,715,cs),
(76,715,l),
(76,374,l),
(3,374,l),
(3,346,l),
(76,346,l)
);
},
{
closed = 1;
nodes = (
(107,28,l),
(107,346,l),
(365,346,l),
(365,374,l),
(107,374,l),
(107,686,l),
(332,686,ls),
(505,686,o),
(594,556,o),
(594,354,cs),
(594,152,o),
(498,28,o),
(325,28,cs)
);
}
);
width = 667;
}
);
note = Eth;
unicode = 208;
},
{
glyphname = eth;
layers = (
{
hints = (
{
horizontal = 1;
place = (-10, 26);
place = (-10, 26);
type = Stem;
},
{
horizontal = 1;
place = (499, 26);
place = (499, 26);
type = Stem;
},
{
horizontal = 1;
place = (715, -20);
target = down;
type = TopGhost;
},
{
place = (26, 30);
place = (26, 30);
type = Stem;
},
{
place = (465, 31);
place = (465, 31);
type = Stem;
},
{
horizontal = 1;
place = (689, -20);
target = down;
type = TopGhost;
}
);
layerId = m01;
shapes = (
{
closed = 1;
nodes = (
(169,570,l),
(319,624,l),
(372,570,o),
(419,503,o),
(445,418,c),
(407,485,o),
(335,525,o),
(256,525,cs),
(114,525,o),
(26,407,o),
(26,258,cs),
(26,109,o),
(118,-10,o),
(262,-10,cs),
(412,-10,o),
(496,109,o),
(496,270,cs),
(496,443,o),
(425,559,o),
(349,635,c),
(438,668,l),
(430,689,l),
(331,653,l),
(304,678,o),
(276,698,o),
(253,715,c),
(210,715,l),
(240,694,o),
(271,670,o),
(301,642,c),
(161,591,l)
);
},
{
closed = 1;
nodes = (
(465,127,o),
(395,16,o),
(262,16,cs),
(134,16,o),
(56,126,o),
(56,258,cs),
(56,390,o),
(129,499,o),
(256,499,cs),
(385,499,o),
(465,398,o),
(465,265,cs)
);
}
);
width = 521;
}
);
note = eth;
unicode = 240;
},
{
glyphname = Lslash;
layers = (
{
hints = (
{
horizontal = 1;
place = (0, 29);
place = (0, 29);
type = Stem;
},
{
horizontal = 1;
place = (715, -20);
target = down;
type = TopGhost;
},
{
place = (74, 31);
place = (74, 31);
type = Stem;
}
);
layerId = m01;
shapes = (
{
closed = 1;
nodes = (
(394,469,l),
(105,308,l),
(105,715,l),
(74,715,l),
(74,290,l),
(-5,247,l),
(-5,217,l),
(74,261,l),
(74,0,l),
(516,0,l),
(516,29,l),
(105,29,l),
(105,278,l),
(394,439,l)
);
}
);
width = 539;
}
);
note = Lslash;
unicode = 321;
},
{
glyphname = lslash;
layers = (
{
hints = (
{
horizontal = 1;
place = (0, 21);
target = up;
type = BottomGhost;
},
{
horizontal = 1;
place = (715, -20);
target = down;
type = TopGhost;
},
{
place = (74, 30);
place = (74, 30);
type = Stem;
}
);
layerId = m01;
shapes = (
{
closed = 1;
nodes = (
(178,473,l),
(104,410,l),
(104,715,l),
(74,715,l),
(74,384,l),
(5,326,l),
(5,292,l),
(74,350,l),
(74,0,l),
(104,0,l),
(104,376,l),
(178,438,l)
);
}
);
width = 174;
}
);
note = lslash;
unicode = 322;
},
{
glyphname = Scaron;
kernLeft = Scaron;
kernRight = Scaron;
layers = (
{
hints = (
{
horizontal = 1;
place = (-11, 29);
place = (-11, 29);
type = Stem;
},
{
horizontal = 1;
place = (697, 29);
place = (697, 29);
type = Stem;
},
{
place = (22, 33);
place = (22, 33);
type = Stem;
},
{
place = (518, 32);
place = (518, 32);
type = Stem;
},
{
place = (51, 32);
place = (51, 32);
type = Stem;
},
{
horizontal = 1;
place = (755, 20);
place = (755, 20);
type = Stem;
}
);
layerId = m01;
shapes = (
{
closed = 1;
nodes = (
(22,227,l),
(31,91,o),
(121,-11,o),
(305,-11,cs),
(457,-11,o),
(550,71,o),
(550,190,cs),
(550,325,o),
(449,364,o),
(295,392,cs),
(150,419,o),
(83,454,o),
(83,549,cs),
(83,638,o),
(158,697,o),
(283,697,cs),
(402,697,o),
(480,634,o),
(494,525,c),
(526,525,l),
(511,645,o),
(428,726,o),
(282,726,cs),
(143,726,o),
(51,656,o),
(51,548,cs),
(51,435,o),
(133,391,o),
(280,364,cs),
(446,334,o),
(518,299,o),
(518,188,cs),
(518,84,o),
(434,18,o),
(304,18,cs),
(147,18,o),
(62,101,o),
(55,227,c)
);
},
{
closed = 1;
nodes = (
(396,858,l),
(362,858,l),
(285,775,l),
(284,775,l),
(207,858,l),
(171,858,l),
(265,755,l),
(302,755,l)
);
}
);
width = 585;
}
);
note = Scaron;
unicode = 352;
},
{
glyphname = scaron;
kernLeft = scaron;
kernRight = scaron;
layers = (
{
hints = (
{
horizontal = 1;
place = (-10, 26);
place = (-10, 26);
type = Stem;
},
{
horizontal = 1;
place = (499, 27);
place = (499, 27);
type = Stem;
},
{
horizontal = 1;
place = (598, 20);
place = (598, 20);
type = Stem;
},
{
place = (40, 30);
place = (40, 30);
type = Stem;
},
{
place = (391, 30);
place = (391, 30);
type = Stem;
},
{
place = (20, 30);
place = (20, 30);
type = Stem;
}
);
layerId = m01;
shapes = (
{
closed = 1;
nodes = (
(326,702,l),
(292,702,l),
(221,618,l),
(220,618,l),
(149,702,l),
(114,702,l),
(201,598,l),
(238,598,l)
);
},
{
closed = 1;
nodes = (
(20,159,l),
(26,62,o),
(93,-10,o),
(229,-10,cs),
(346,-10,o),
(421,46,o),
(421,135,cs),
(421,228,o),
(361,263,o),
(235,285,cs),
(113,306,o),
(70,335,o),
(70,395,cs),
(70,454,o),
(113,499,o),
(214,499,cs),
(313,499,o),
(360,451,o),
(371,377,c),
(401,377,l),
(388,462,o),
(337,526,o),
(214,526,cs),
(103,526,o),
(40,472,o),
(40,395,cs),
(40,315,o),
(100,280,o),
(225,258,cs),
(352,235,o),
(391,205,o),
(391,135,cs),
(391,63,o),
(332,16,o),
(229,16,cs),
(119,16,o),
(58,68,o),
(50,159,c)
);
}
);
width = 444;
}
);
note = scaron;
unicode = 353;
},
{
glyphname = Yacute;
kernLeft = Yacute;
kernRight = Yacute;
layers = (
{
hints = (
{
horizontal = 1;
place = (0, 21);
target = up;
type = BottomGhost;
},
{
horizontal = 1;
place = (715, -20);
target = down;
type = TopGhost;
},
{
horizontal = 1;
place = (755, 112);
place = (755, 112);
type = Stem;
},
{
place = (272, 31);
place = (272, 31);
type = Stem;
}
);
layerId = m01;
shapes = (
{
closed = 1;
nodes = (
(43,715,l),
(8,715,l),
(272,321,l),
(272,0,l),
(303,0,l),
(303,320,l),
(568,715,l),
(533,715,l),
(288,350,l),
(287,350,l)
);
},
{
closed = 1;
nodes = (
(266,755,l),
(294,755,l),
(374,867,l),
(333,867,l)
);
}
);
width = 576;
}
);
note = Yacute;
unicode = 221;
},
{
glyphname = yacute;
kernLeft = yacute;
kernRight = yacute;
layers = (
{
hints = (
{
horizontal = 1;
place = (-169, 28);
place = (-169, 28);
type = Stem;
},
{
horizontal = 1;
place = (517, -20);
target = down;
type = TopGhost;
},
{
horizontal = 1;
place = (721, -20);
target = down;
type = TopGhost;
},
{
place = (5, 430);
place = (5, 430);
type = Stem;
},
{
horizontal = 1;
place = (-162, 21);
target = up;
type = BottomGhost;
},
{
horizontal = 1;
place = (597, 124);
place = (597, 124);
type = Stem;
}
);
layerId = m01;
shapes = (
{
closed = 1;
nodes = (
(435,517,l),
(403,517,l),
(224,46,l),
(223,46,l),
(37,517,l),
(5,517,l),
(208,7,l),
(188,-44,ls),
(156,-126,o),
(132,-141,o),
(87,-141,cs),
(67,-141,o),
(52,-138,o),
(42,-134,c),
(41,-134,l),
(41,-162,l),
(52,-166,o),
(65,-169,o),
(86,-169,cs),
(148,-169,o),
(179,-148,o),
(216,-53,cs)
);
},
{
closed = 1;
nodes = (
(195,597,l),
(223,597,l),
(304,721,l),
(264,721,l)
);
}
);
width = 440;
}
);
note = yacute;
unicode = 253;
},
{
glyphname = Thorn;
layers = (
{
hints = (
{
horizontal = 1;
place = (0, 21);
target = up;
type = BottomGhost;
},
{
horizontal = 1;
place = (187, 28);
place = (187, 28);
type = Stem;
},
{
horizontal = 1;
place = (544, 171);
place = (544, 171);
type = Stem;
},
{
place = (65, 31);
place = (65, 31);
type = Stem;
},
{
place = (503, 32);
place = (503, 32);
type = Stem;
},
{
horizontal = 1;
place = (544, 29);
place = (544, 29);
type = Stem;
}
);
layerId = m01;
shapes = (
{
closed = 1;
nodes = (
(96,715,l),
(65,715,l),
(65,0,l),
(96,0,l),
(96,187,l),
(302,187,ls),
(457,187,o),
(535,248,o),
(535,382,cs),
(535,448,o),
(515,494,o),
(478,525,cs),
(439,558,o),
(386,573,o),
(313,573,cs),
(96,573,l)
);
},
{
closed = 1;
nodes = (
(311,544,ls),
(432,544,o),
(503,496,o),
(503,381,cs),
(503,269,o),
(441,215,o),
(301,215,cs),
(96,215,l),
(96,544,l)
);
}
);
width = 558;
}
);
note = Thorn;
unicode = 222;
},
{
glyphname = thorn;
kernRight = thorn;
layers = (
{
hints = (
{
horizontal = 1;
place = (-166, 21);
target = up;
type = BottomGhost;
},
{
horizontal = 1;
place = (-9, 26);
place = (-9, 26);
type = Stem;
},
{
horizontal = 1;
place = (499, 27);
place = (499, 27);
type = Stem;
},
{
horizontal = 1;
place = (715, -20);
target = down;
type = TopGhost;
},
{
place = (53, 30);
place = (53, 30);
type = Stem;
},
{
place = (467, 31);
place = (467, 31);
type = Stem;
}
);
layerId = m01;
shapes = (
{
closed = 1;
nodes = (
(53,-166,l),
(83,-166,l),
(83,120,l),
(85,120,l),
(116,43,o),
(185,-9,o),
(279,-9,cs),
(409,-9,o),
(498,101,o),
(498,259,cs),
(498,436,o),
(399,526,o),
(282,526,cs),
(192,526,o),
(121,478,o),
(85,390,c),
(83,390,l),
(83,715,l),
(53,715,l)
);
},
{
closed = 1;
nodes = (
(158,17,o),
(81,110,o),
(81,256,cs),
(81,400,o),
(159,499,o),
(277,499,cs),
(385,499,o),
(467,417,o),
(467,258,cs),
(467,117,o),
(392,17,o),
(278,17,cs)
);
}
);
width = 523;
}
);
note = thorn;
unicode = 254;
},
{
glyphname = Zcaron;
kernLeft = Zcaron;
kernRight = Zcaron;
layers = (
{
hints = (
{
horizontal = 1;
place = (0, 28);
place = (0, 28);
type = Stem;
},
{
horizontal = 1;
place = (687, 171);
place = (687, 171);
type = Stem;
},
{
place = (27, 37);
place = (27, 37);
type = Stem;
},
{
place = (497, 38);
place = (497, 38);
type = Stem;
},
{
horizontal = 1;
place = (687, 28);
place = (687, 28);
type = Stem;
},
{
horizontal = 1;
place = (755, 20);
place = (755, 20);
type = Stem;
}
);
layerId = m01;
shapes = (
{
closed = 1;
nodes = (
(408,858,l),
(374,858,l),
(297,775,l),
(296,775,l),
(219,858,l),
(183,858,l),
(277,755,l),
(314,755,l)
);
},
{
closed = 1;
nodes = (
(53,687,l),
(497,687,l),
(497,686,l),
(27,31,l),
(27,0,l),
(555,0,l),
(555,28,l),
(64,28,l),
(64,30,l),
(535,686,l),
(535,715,l),
(53,715,l)
);
}
);
width = 588;
}
);
note = Zcaron;
unicode = 381;
},
{
glyphname = zcaron;
kernLeft = zcaron;
kernRight = zcaron;
layers = (
{
hints = (
{
horizontal = 1;
place = (0, 27);
place = (0, 27);
type = Stem;
},
{
horizontal = 1;
place = (490, 27);
place = (490, 27);
type = Stem;
},
{
horizontal = 1;
place = (598, 20);
place = (598, 20);
type = Stem;
},
{
place = (30, 36);
place = (30, 36);
type = Stem;
}
);
layerId = m01;
shapes = (
{
closed = 1;
nodes = (
(336,702,l),
(302,702,l),
(231,618,l),
(230,618,l),
(159,702,l),
(124,702,l),
(211,598,l),
(248,598,l)
);
},
{
closed = 1;
nodes = (
(405,491,l),
(405,517,l),
(48,517,l),
(48,490,l),
(366,490,l),
(366,489,l),
(30,28,l),
(30,0,l),
(416,0,l),
(416,27,l),
(66,27,l),
(66,28,l)
);
}
);
width = 441;
}
);
note = zcaron;
unicode = 382;
},
{
glyphname = onehalf;
layers = (
{
hints = (
{
horizontal = 1;
place = (0, 25);
place = (0, 25);
type = Stem;
},
{
horizontal = 1;
place = (386, 25);
place = (386, 25);
type = Stem;
},
{
horizontal = 1;
place = (614, 24);
place = (614, 24);
type = Stem;
},
{
horizontal = 1;
place = (717, -20);
target = down;
type = TopGhost;
},
{
place = (128, 29);
place = (128, 29);
type = Stem;
},
{
place = (446, 28);
place = (446, 28);
type = Stem;
},
{
place = (680, 29);
place = (680, 29);
type = Stem;
},
{
place = (441, 34);
place = (441, 34);
type = Stem;
},
{
horizontal = 1;
place = (715, -20);
target = down;
type = TopGhost;
}
);
layerId = m01;
shapes = (
{
closed = 1;
nodes = (
(711,0,l),
(711,25,l),
(475,25,l),
(481,89,o),
(534,120,o),
(589,152,cs),
(650,188,o),
(709,217,o),
(709,292,cs),
(710,358,o),
(664,411,o),
(580,411,cs),
(491,411,o),
(446,351,o),
(446,275,c),
(474,275,l),
(474,337,o),
(507,386,o),
(580,386,cs),
(644,386,o),
(680,349,o),
(680,291,cs),
(680,230,o),
(630,207,o),
(571,171,cs),
(506,132,o),
(443,93,o),
(441,0,c)
);
},
{
closed = 1;
nodes = (
(157,309,l),
(157,717,l),
(132,717,l),
(124,656,o),
(93,639,o),
(30,638,c),
(30,614,l),
(74,614,o),
(113,624,o),
(128,646,c),
(128,309,l)
);
},
{
closed = 1;
nodes = (
(556,715,l),
(57,0,l),
(91,0,l),
(589,715,l)
);
}
);
width = 746;
}
);
note = onehalf;
unicode = 189;
},
{
glyphname = onequarter;
layers = (
{
hints = (
{
horizontal = 1;
place = (0, 132);
place = (0, 132);
type = Stem;
},
{
horizontal = 1;
place = (614, 24);
place = (614, 24);
type = Stem;
},
{
horizontal = 1;
place = (717, -20);
target = down;
type = TopGhost;
},
{
place = (128, 29);
place = (128, 29);
type = Stem;
},
{
place = (385, 30);
place = (385, 30);
type = Stem;
},
{
place = (597, 28);
place = (597, 28);
type = Stem;
},
{
horizontal = 1;
place = (107, 25);
place = (107, 25);
type = Stem;
},
{
horizontal = 1;
place = (715, -20);
target = down;
type = TopGhost;
}
);
layerId = m01;
shapes = (
{
closed = 1;
nodes = (
(625,0,l),
(625,107,l),
(689,107,l),
(689,132,l),
(625,132,l),
(625,410,l),
(599,410,l),
(385,134,l),
(385,107,l),
(597,107,l),
(597,0,l)
);
},
{
closed = 1;
nodes = (
(567,715,l),
(68,0,l),
(102,0,l),
(600,715,l)
);
},
{
closed = 1;
nodes = (
(597,132,l),
(415,132,l),
(596,364,l),
(597,364,l)
);
},
{
closed = 1;
nodes = (
(157,309,l),
(157,717,l),
(132,717,l),
(124,656,o),
(93,639,o),
(30,638,c),
(30,614,l),
(74,614,o),
(113,624,o),
(128,646,c),
(128,309,l)
);
}
);
width = 717;
}
);
note = onequarter;
unicode = 188;
},
{
glyphname = onesuperior;
layers = (
{
hints = (
{
horizontal = 1;
place = (585, 24);
place = (585, 24);
type = Stem;
},
{
horizontal = 1;
place = (688, -20);
target = down;
type = TopGhost;
},
{
place = (125, 29);
place = (125, 29);
type = Stem;
}
);
layerId = m01;
shapes = (
{
closed = 1;
nodes = (
(154,280,l),
(154,688,l),
(129,688,l),
(121,627,o),
(90,610,o),
(27,609,c),
(27,585,l),
(71,585,o),
(110,595,o),
(125,617,c),
(125,280,l)
);
}
);
width = 217;
}
);
note = onesuperior;
unicode = 185;
},
{
glyphname = threequarters;
layers = (
{
hints = (
{
horizontal = 1;
place = (0, 132);
place = (0, 132);
type = Stem;
},
{
horizontal = 1;
place = (303, 25);
place = (303, 25);
type = Stem;
},
{
horizontal = 1;
place = (512, 25);
place = (512, 25);
type = Stem;
},
{
horizontal = 1;
place = (697, 24);
place = (697, 24);
type = Stem;
},
{
place = (28, 29);
place = (28, 29);
type = Stem;
},
{
place = (288, 30);
place = (288, 30);
type = Stem;
},
{
place = (467, 30);
place = (467, 30);
type = Stem;
},
{
place = (679, 28);
place = (679, 28);
type = Stem;
},
{
horizontal = 1;
place = (107, 25);
place = (107, 25);
type = Stem;
},
{
horizontal = 1;
place = (512, 14);
place = (512, 14);
type = Stem;
},
{
place = (42, 28);
place = (42, 28);
type = Stem;
},
{
place = (272, 29);
place = (272, 29);
type = Stem;
},
{
horizontal = 1;
place = (715, -20);
target = down;
type = TopGhost;
}
);
layerId = m01;
shapes = (
{
closed = 1;
nodes = (
(707,0,l),
(707,107,l),
(771,107,l),
(771,132,l),
(707,132,l),
(707,410,l),
(681,410,l),
(467,134,l),
(467,107,l),
(679,107,l),
(679,0,l)
);
},
{
closed = 1;
nodes = (
(147,537,l),
(147,512,l),
(184,512,ls),
(246,512,o),
(288,482,o),
(288,425,cs),
(288,365,o),
(243,328,o),
(176,328,cs),
(104,328,o),
(61,371,o),
(57,437,c),
(28,437,l),
(31,358,o),
(88,303,o),
(177,303,cs),
(258,303,o),
(318,349,o),
(318,424,cs),
(318,478,o),
(288,512,o),
(236,526,c),
(236,527,l),
(276,540,o),
(301,571,o),
(301,615,cs),
(301,680,o),
(247,721,o),
(174,721,cs),
(89,721,o),
(45,665,o),
(42,598,c),
(70,598,l),
(74,654,o),
(106,697,o),
(174,697,cs),
(231,697,o),
(272,665,o),
(272,614,cs),
(272,570,o),
(239,537,o),
(183,537,cs)
);
},
{
closed = 1;
nodes = (
(658,715,l),
(159,0,l),
(193,0,l),
(691,715,l)
);
},
{
closed = 1;
nodes = (
(679,132,l),
(497,132,l),
(678,364,l),
(679,364,l)
);
}
);
width = 799;
}
);
note = threequarters;
unicode = 190;
},
{
glyphname = threesuperior;
layers = (
{
hints = (
{
horizontal = 1;
place = (273, 26);
place = (273, 26);
type = Stem;
},
{
horizontal = 1;
place = (483, 24);
place = (483, 24);
type = Stem;
},
{
horizontal = 1;
place = (667, 24);
place = (667, 24);
type = Stem;
},
{
place = (24, 29);
place = (24, 29);
type = Stem;
},
{
place = (284, 30);
place = (284, 30);
type = Stem;
},
{
place = (39, 28);
place = (39, 28);
type = Stem;
},
{
place = (268, 29);
place = (268, 29);
type = Stem;
}
);
layerId = m01;
shapes = (
{
closed = 1;
nodes = (
(144,507,l),
(144,483,l),
(180,483,ls),
(242,483,o),
(284,453,o),
(284,396,cs),
(284,335,o),
(240,299,o),
(172,299,cs),
(101,299,o),
(58,342,o),
(53,408,c),
(24,408,l),
(28,328,o),
(84,273,o),
(173,273,cs),
(255,273,o),
(314,319,o),
(314,394,cs),
(314,449,o),
(284,482,o),
(232,496,c),
(232,497,l),
(273,511,o),
(297,541,o),
(297,585,cs),
(297,651,o),
(243,691,o),
(171,691,cs),
(86,691,o),
(42,636,o),
(39,568,c),
(67,568,l),
(70,624,o),
(103,667,o),
(170,667,cs),
(227,667,o),
(268,636,o),
(268,585,cs),
(268,540,o),
(236,507,o),
(180,507,cs)
);
}
);
width = 343;
}
);
note = threesuperior;
unicode = 179;
},
{
glyphname = twosuperior;
layers = (
{
hints = (
{
horizontal = 1;
place = (280, 25);
place = (280, 25);
type = Stem;
},
{
horizontal = 1;
place = (666, 25);
place = (666, 25);
type = Stem;
},
{
place = (31, 28);
place = (31, 28);
type = Stem;
},
{
place = (265, 30);
place = (265, 30);
type = Stem;
},
{
place = (27, 34);
place = (27, 34);
type = Stem;
}
);
layerId = m01;
shapes = (
{
closed = 1;
nodes = (
(297,305,l),
(61,305,l),
(67,368,o),
(119,399,o),
(175,432,cs),
(236,468,o),
(294,497,o),
(295,572,cs),
(295,638,o),
(250,691,o),
(166,691,cs),
(77,691,o),
(31,631,o),
(31,555,c),
(59,555,l),
(60,617,o),
(93,666,o),
(165,666,cs),
(229,666,o),
(265,629,o),
(265,571,cs),
(265,510,o),
(216,487,o),
(157,451,cs),
(92,411,o),
(29,374,o),
(27,280,c),
(297,280,l)
);
}
);
width = 327;
}
);
note = twosuperior;
unicode = 178;
},
{
glyphname = brokenbar;
layers = (
{
hints = (
{
horizontal = 1;
place = (-118, 872);
place = (-118, 872);
type = Stem;
},
{
place = (77, 29);
place = (77, 29);
type = Stem;
}
);
layerId = m01;
shapes = (
{
closed = 1;
nodes = (
(77,358,l),
(106,358,l),
(106,754,l),
(77,754,l)
);
},
{
closed = 1;
nodes = (
(77,-118,l),
(106,-118,l),
(106,294,l),
(77,294,l)
);
}
);
width = 183;
}
);
note = brokenbar;
unicode = 166;
},
{
glyphname = minus;
kernLeft = minus;
kernRight = minus;
layers = (
{
hints = (
{
horizontal = 1;
place = (312, 29);
place = (312, 29);
type = Stem;
},
{
place = (54, 416);
place = (54, 416);
type = Stem;
}
);
layerId = m01;
shapes = (
{
closed = 1;
nodes = (
(54,312,l),
(470,312,l),
(470,341,l),
(54,341,l)
);
}
);
width = 524;
}
);
note = minus;
unicode = 8722;
},
{
glyphname = multiply;
layers = (
{
hints = (
{
horizontal = 1;
place = (143, 364);
place = (143, 364);
type = Stem;
},
{
place = (75, 357);
place = (75, 357);
type = Stem;
}
);
layerId = m01;
shapes = (
{
closed = 1;
nodes = (
(413,507,l),
(254,344,l),
(95,507,l),
(75,487,l),
(234,325,l),
(76,163,l),
(96,143,l),
(254,304,l),
(412,143,l),
(432,163,l),
(273,325,l),
(432,487,l)
);
}
);
width = 508;
}
);
note = multiply;
unicode = 215;
},
{
glyphname = exclam;
layers = (
{
hints = (
{
horizontal = 1;
place = (0, 66);
place = (0, 66);
type = Stem;
},
{
horizontal = 1;
place = (715, -20);
target = down;
type = TopGhost;
},
{
place = (70, 33);
place = (70, 33);
type = Stem;
}
);
layerId = m01;
shapes = (
{
closed = 1;
nodes = (
(103,458,l),
(103,715,l),
(70,715,l),
(70,458,l),
(75,175,l),
(97,175,l)
);
},
{
closed = 1;
nodes = (
(105,66,l),
(69,66,l),
(69,0,l),
(105,0,l)
);
}
);
width = 174;
}
);
note = exclam;
unicode = 33;
},
{
glyphname = quotedbl;
kernLeft = quotedbl;
kernRight = quotedbl;
layers = (
{
hints = (
{
horizontal = 1;
place = (715, -20);
target = down;
type = TopGhost;
},
{
place = (43, 30);
place = (43, 30);
type = Stem;
},
{
place = (158, 30);
place = (158, 30);
type = Stem;
},
{
horizontal = 1;
place = (514, 201);
place = (514, 201);
type = Stem;
}
);
layerId = m01;
shapes = (
{
closed = 1;
nodes = (
(73,715,l),
(43,715,l),
(43,514,l),
(73,514,l)
);
},
{
closed = 1;
nodes = (
(188,715,l),
(158,715,l),
(158,514,l),
(188,514,l)
);
}
);
width = 231;
}
);
note = quotedbl;
unicode = 34;
},
{
glyphname = numbersign;
layers = (
{
hints = (
{
horizontal = 1;
place = (0, 21);
target = up;
type = BottomGhost;
},
{
horizontal = 1;
place = (228, 27);
place = (228, 27);
type = Stem;
},
{
horizontal = 1;
place = (443, 26);
place = (443, 26);
type = Stem;
},
{
horizontal = 1;
place = (684, -20);
target = down;
type = TopGhost;
},
{
place = (32, 471);
place = (32, 471);
type = Stem;
}
);
layerId = m01;
shapes = (
{
closed = 1;
nodes = (
(64,443,l),
(170,443,l),
(141,255,l),
(37,255,l),
(32,228,l),
(138,228,l),
(104,0,l),
(133,0,l),
(167,228,l),
(330,228,l),
(296,0,l),
(325,0,l),
(359,228,l),
(465,228,l),
(469,255,l),
(363,255,l),
(391,443,l),
(498,443,l),
(503,469,l),
(395,469,l),
(427,684,l),
(399,684,l),
(366,469,l),
(202,469,l),
(235,684,l),
(206,684,l),
(174,469,l),
(69,469,l)
);
},
{
closed = 1;
nodes = (
(199,443,l),
(362,443,l),
(334,255,l),
(170,255,l)
);
}
);
width = 535;
}
);
note = numbersign;
unicode = 35;
},
{
glyphname = dollar;
layers = (
{
hints = (
{
horizontal = 1;
place = (1, 27);
place = (1, 27);
type = Stem;
},
{
horizontal = 1;
place = (674, 27);
place = (674, 27);
type = Stem;
},
{
place = (49, 31);
place = (49, 31);
type = Stem;
},
{
place = (261, 26);
place = (261, 26);
type = Stem;
},
{
place = (484, 31);
place = (484, 31);
type = Stem;
},
{
place = (20, 30);
place = (20, 30);
type = Stem;
}
);
layerId = m01;
shapes = (
{
closed = 1;
nodes = (
(287,758,l),
(261,758,l),
(261,701,l),
(136,699,o),
(49,629,o),
(49,526,cs),
(49,419,o),
(119,380,o),
(261,354,c),
(261,28,l),
(128,36,o),
(57,111,o),
(50,222,c),
(20,222,l),
(27,98,o),
(106,9,o),
(261,1,c),
(261,-83,l),
(287,-83,l),
(287,1,l),
(418,3,o),
(515,78,o),
(515,191,cs),
(515,318,o),
(430,353,o),
(287,378,c),
(287,673,l),
(389,667,o),
(451,620,o),
(464,523,c),
(494,523,l),
(480,633,o),
(412,694,o),
(287,701,c)
);
},
{
closed = 1;
nodes = (
(484,90,o),
(397,30,o),
(287,28,c),
(287,349,l),
(427,323,o),
(484,291,o),
(484,189,cs)
);
},
{
closed = 1;
nodes = (
(80,613,o),
(151,671,o),
(261,674,c),
(261,384,l),
(132,407,o),
(80,441,o),
(80,527,cs)
);
}
);
width = 546;
}
);
note = dollar;
unicode = 36;
},
{
glyphname = percent;
kernLeft = percent;
layers = (
{
hints = (
{
horizontal = 1;
place = (0, 21);
target = up;
type = BottomGhost;
},
{
horizontal = 1;
place = (321, 25);
place = (321, 25);
type = Stem;
},
{
horizontal = 1;
place = (685, -20);
target = down;
type = TopGhost;
},
{
place = (28, 30);
place = (28, 30);
type = Stem;
},
{
place = (280, 29);
place = (280, 29);
type = Stem;
},
{
place = (404, 29);
place = (404, 29);
type = Stem;
},
{
place = (655, 29);
place = (655, 29);
type = Stem;
},
{
horizontal = 1;
place = (-10, 25);
place = (-10, 25);
type = Stem;
},
{
horizontal = 1;
place = (664, 25);
place = (664, 25);
type = Stem;
},
{
horizontal = 1;
place = (333, 25);
place = (333, 25);
type = Stem;
}
);
layerId = m01;
shapes = (
{
closed = 1;
nodes = (
(138,0,l),
(168,0,l),
(582,685,l),
(552,685,l)
);
},
{
closed = 1;
nodes = (
(252,321,o),
(309,391,o),
(309,505,cs),
(309,623,o),
(249,689,o),
(170,689,cs),
(89,689,o),
(28,621,o),
(28,505,cs),
(28,391,o),
(87,321,o),
(170,321,cs)
);
},
{
closed = 1;
nodes = (
(104,346,o),
(58,403,o),
(58,505,cs),
(58,608,o),
(106,664,o),
(170,664,cs),
(233,664,o),
(280,609,o),
(280,505,cs),
(280,402,o),
(236,346,o),
(170,346,cs)
);
},
{
closed = 1;
nodes = (
(627,-10,o),
(684,60,o),
(684,174,cs),
(684,292,o),
(625,358,o),
(545,358,cs),
(465,358,o),
(404,290,o),
(404,174,cs),
(404,60,o),
(462,-10,o),
(545,-10,cs)
);
},
{
closed = 1;
nodes = (
(480,15,o),
(433,72,o),
(433,174,cs),
(433,278,o),
(481,333,o),
(545,333,cs),
(609,333,o),
(655,278,o),
(655,174,cs),
(655,71,o),
(612,15,o),
(545,15,cs)
);
}
);
width = 713;
}
);
note = percent;
unicode = 37;
},
{
glyphname = ampersand;
kernLeft = ampersand;
kernRight = ampersand;
layers = (
{
hints = (
{
horizontal = 1;
place = (-10, 28);
place = (-10, 28);
type = Stem;
},
{
horizontal = 1;
place = (674, 28);
place = (674, 28);
type = Stem;
},
{
place = (35, 32);
place = (35, 32);
type = Stem;
},
{
place = (118, 32);
place = (118, 32);
type = Stem;
},
{
place = (361, 31);
place = (361, 31);
type = Stem;
},
{
place = (480, 31);
place = (480, 31);
type = Stem;
},
{
horizontal = 1;
place = (0, 21);
target = up;
type = BottomGhost;
}
);
layerId = m01;
shapes = (
{
closed = 1;
nodes = (
(118,509,o),
(145,468,o),
(193,409,cs),
(206,392,l),
(113,337,o),
(34,284,o),
(35,170,cs),
(35,57,o),
(131,-10,o),
(242,-10,cs),
(330,-10,o),
(398,33,o),
(444,98,c),
(523,0,l),
(560,0,l),
(460,124,l),
(492,180,o),
(509,248,o),
(511,319,c),
(480,319,l),
(478,256,o),
(464,197,o),
(440,149,c),
(249,386,l),
(334,437,o),
(392,481,o),
(392,565,cs),
(392,654,o),
(331,702,o),
(258,702,cs),
(172,702,o),
(118,643,o),
(118,568,cs)
);
},
{
closed = 1;
nodes = (
(143,18,o),
(67,79,o),
(67,170,cs),
(67,274,o),
(143,323,o),
(223,371,c),
(425,122,l),
(384,58,o),
(321,18,o),
(243,18,cs)
);
},
{
closed = 1;
nodes = (
(150,630,o),
(192,674,o),
(258,674,cs),
(318,674,o),
(361,633,o),
(361,566,cs),
(361,499,o),
(319,459,o),
(232,407,c),
(214,430,ls),
(178,476,o),
(150,516,o),
(150,567,cs)
);
}
);
width = 559;
}
);
note = ampersand;
unicode = 38;
},
{
glyphname = quotesingle;
kernLeft = quotedbl;
kernRight = quotedbl;
layers = (
{
hints = (
{
horizontal = 1;
place = (715, -20);
target = down;
type = TopGhost;
},
{
place = (43, 30);
place = (43, 30);
type = Stem;
}
);
layerId = m01;
shapes = (
{
closed = 1;
nodes = (
(73,715,l),
(43,715,l),
(43,514,l),
(73,514,l)
);
}
);
width = 116;
}
);
note = quotesingle;
unicode = 39;
},
{
glyphname = parenleft;
kernRight = parenleft;
layers = (
{
hints = (
{
horizontal = 1;
place = (-118, 872);
place = (-118, 872);
type = Stem;
},
{
place = (72, 34);
place = (72, 34);
type = Stem;
}
);
layerId = m01;
shapes = (
{
closed = 1;
nodes = (
(200,754,l),
(132,649,o),
(72,510,o),
(72,335,cs),
(72,146,o),
(125,5,o),
(200,-118,c),
(229,-118,l),
(153,10,o),
(106,152,o),
(106,335,cs),
(106,503,o),
(163,648,o),
(229,754,c)
);
}
);
width = 250;
}
);
note = parenleft;
unicode = 40;
},
{
glyphname = parenright;
kernLeft = parenright;
layers = (
{
hints = (
{
horizontal = 1;
place = (-118, 872);
place = (-118, 872);
type = Stem;
},
{
place = (144, 34);
place = (144, 34);
type = Stem;
}
);
layerId = m01;
shapes = (
{
closed = 1;
nodes = (
(21,754,l),
(92,637,o),
(144,494,o),
(144,320,cs),
(144,143,o),
(91,-1,o),
(21,-118,c),
(50,-118,l),
(122,-3,o),
(178,137,o),
(178,320,cs),
(178,501,o),
(121,641,o),
(50,754,c)
);
}
);
width = 250;
}
);
note = parenright;
unicode = 41;
},
{
glyphname = asterisk;
kernLeft = asterisk;
kernRight = asterisk;
layers = (
{
hints = (
{
horizontal = 1;
place = (453, 257);
place = (453, 257);
type = Stem;
},
{
place = (158, 27);
place = (158, 27);
type = Stem;
}
);
layerId = m01;
shapes = (
{
closed = 1;
nodes = (
(50,625,l),
(42,603,l),
(150,565,l),
(81,467,l),
(101,453,l),
(172,554,l),
(244,453,l),
(264,467,l),
(194,565,l),
(302,603,l),
(294,625,l),
(185,588,l),
(185,710,l),
(158,710,l),
(158,588,l)
);
}
);
width = 344;
}
);
note = asterisk;
unicode = 42;
},
{
glyphname = plus;
kernLeft = minus;
kernRight = minus;
layers = (
{
hints = (
{
horizontal = 1;
place = (312, 29);
place = (312, 29);
type = Stem;
},
{
place = (247, 30);
place = (247, 30);
type = Stem;
}
);
layerId = m01;
shapes = (
{
closed = 1;
nodes = (
(54,312,l),
(247,312,l),
(247,109,l),
(277,109,l),
(277,312,l),
(470,312,l),
(470,341,l),
(277,341,l),
(277,542,l),
(247,542,l),
(247,341,l),
(54,341,l)
);
}
);
width = 524;
}
);
note = plus;
unicode = 43;
},
{
glyphname = comma;
kernLeft = comma;
kernRight = comma;
layers = (
{
hints = (
{
horizontal = 1;
place = (0, 66);
place = (0, 66);
type = Stem;
},
{
place = (42, 37);
place = (42, 37);
type = Stem;
}
);
layerId = m01;
shapes = (
{
closed = 1;
nodes = (
(24,-108,l),
(66,-89,o),
(79,-52,o),
(79,-1,cs),
(79,66,l),
(42,66,l),
(42,0,l),
(56,0,l),
(56,-3,ls),
(56,-42,o),
(49,-69,o),
(24,-86,c)
);
}
);
width = 122;
}
);
note = comma;
unicode = 44;
},
{
glyphname = hyphen;
kernLeft = hyphen;
kernRight = hyphen;
layers = (
{
hints = (
{
horizontal = 1;
place = (264, 28);
place = (264, 28);
type = Stem;
},
{
place = (36, 233);
place = (36, 233);
type = Stem;
}
);
layerId = m01;
shapes = (
{
closed = 1;
nodes = (
(36,264,l),
(269,264,l),
(269,292,l),
(36,292,l)
);
}
);
width = 305;
}
);
note = hyphen;
unicode = 45;
},
{
glyphname = period;
kernLeft = comma;
kernRight = comma;
layers = (
{
hints = (
{
horizontal = 1;
place = (0, 66);
place = (0, 66);
type = Stem;
},
{
place = (43, 37);
place = (43, 37);
type = Stem;
}
);
layerId = m01;
shapes = (
{
closed = 1;
nodes = (
(80,66,l),
(43,66,l),
(43,0,l),
(80,0,l)
);
}
);
width = 123;
}
);
note = period;
unicode = 46;
},
{
glyphname = slash;
kernLeft = slash;
kernRight = slash;
layers = (
{
hints = (
{
horizontal = 1;
place = (0, 21);
target = up;
type = BottomGhost;
},
{
horizontal = 1;
place = (715, -20);
target = down;
type = TopGhost;
},
{
place = (16, 324);
place = (16, 324);
type = Stem;
}
);
layerId = m01;
shapes = (
{
closed = 1;
nodes = (
(340,715,l),
(308,715,l),
(16,0,l),
(48,0,l)
);
}
);
width = 356;
}
);
note = slash;
unicode = 47;
},
{
glyphname = zero;
kernLeft = zero;
kernRight = zero;
layers = (
{
hints = (
{
horizontal = 1;
place = (-10, 28);
place = (-10, 28);
type = Stem;
},
{
horizontal = 1;
place = (668, 28);
place = (668, 28);
type = Stem;
},
{
place = (40, 32);
place = (40, 32);
type = Stem;
},
{
place = (503, 32);
place = (503, 32);
type = Stem;
}
);
layerId = m01;
shapes = (
{
closed = 1;
nodes = (
(444,-10,o),
(535,128,o),
(535,343,cs),
(535,565,o),
(436,696,o),
(288,696,cs),
(139,696,o),
(40,561,o),
(40,343,cs),
(40,128,o),
(132,-10,o),
(288,-10,cs)
);
},
{
closed = 1;
nodes = (
(153,18,o),
(72,145,o),
(72,343,cs),
(72,545,o),
(157,668,o),
(288,668,cs),
(419,668,o),
(503,544,o),
(503,343,cs),
(503,144,o),
(424,18,o),
(288,18,cs)
);
}
);
width = 575;
}
);
note = zero;
unicode = 48;
},
{
glyphname = one;
kernLeft = one;
kernRight = one;
layers = (
{
hints = (
{
horizontal = 1;
place = (0, 21);
target = up;
type = BottomGhost;
},
{
horizontal = 1;
place = (526, 28);
place = (526, 28);
type = Stem;
},
{
horizontal = 1;
place = (688, -20);
target = down;
type = TopGhost;
},
{
place = (186, 31);
place = (186, 31);
type = Stem;
}
);
layerId = m01;
shapes = (
{
closed = 1;
nodes = (
(192,688,l),
(180,582,o),
(134,558,o),
(34,554,c),
(34,526,l),
(77,527,o),
(158,534,o),
(186,582,c),
(186,0,l),
(217,0,l),
(217,688,l)
);
}
);
width = 301;
}
);
note = one;
unicode = 49;
},
{
glyphname = two;
kernLeft = two;
kernRight = two;
layers = (
{
hints = (
{
horizontal = 1;
place = (0, 29);
place = (0, 29);
type = Stem;
},
{
horizontal = 1;
place = (672, 28);
place = (672, 28);
type = Stem;
},
{
place = (48, 31);
place = (48, 31);
type = Stem;
},
{
place = (441, 32);
place = (441, 32);
type = Stem;
},
{
place = (31, 34);
place = (31, 34);
type = Stem;
}
);
layerId = m01;
shapes = (
{
closed = 1;
nodes = (
(471,29,l),
(65,29,l),
(74,156,o),
(171,216,o),
(271,270,cs),
(376,328,o),
(473,376,o),
(473,504,cs),
(473,615,o),
(395,700,o),
(266,700,cs),
(133,700,o),
(48,606,o),
(48,479,c),
(79,479,l),
(80,591,o),
(147,672,o),
(265,672,cs),
(375,672,o),
(441,606,o),
(441,503,cs),
(441,391,o),
(361,353,o),
(259,297,cs),
(147,235,o),
(34,166,o),
(31,0,c),
(471,0,l)
);
}
);
width = 509;
}
);
note = two;
unicode = 50;
},
{
glyphname = three;
kernLeft = three;
kernRight = three;
layers = (
{
hints = (
{
horizontal = 1;
place = (-10, 30);
place = (-10, 30);
type = Stem;
},
{
horizontal = 1;
place = (349, 28);
place = (349, 28);
type = Stem;
},
{
horizontal = 1;
place = (668, 28);
place = (668, 28);
type = Stem;
},
{
place = (22, 32);
place = (22, 32);
type = Stem;
},
{
place = (462, 32);
place = (462, 32);
type = Stem;
},
{
place = (45, 31);
place = (45, 31);
type = Stem;
},
{
place = (435, 31);
place = (435, 31);
type = Stem;
}
);
layerId = m01;
shapes = (
{
closed = 1;
nodes = (
(217,349,l),
(278,349,ls),
(384,349,o),
(462,292,o),
(462,192,cs),
(462,85,o),
(386,20,o),
(266,20,cs),
(141,20,o),
(63,92,o),
(54,206,c),
(22,206,l),
(28,80,o),
(122,-10,o),
(265,-10,cs),
(401,-10,o),
(494,67,o),
(494,190,cs),
(494,282,o),
(437,343,o),
(351,364,c),
(351,366,l),
(423,386,o),
(466,441,o),
(466,515,cs),
(466,626,o),
(379,696,o),
(261,696,cs),
(120,696,o),
(49,603,o),
(45,491,c),
(76,491,l),
(80,586,o),
(138,668,o),
(260,668,cs),
(362,668,o),
(435,610,o),
(435,514,cs),
(435,436,o),
(376,377,o),
(277,377,cs),
(217,377,l)
);
}
);
width = 526;
}
);
note = three;
unicode = 51;
},
{
glyphname = four;
kernLeft = four;
kernRight = four;
layers = (
{
hints = (
{
horizontal = 1;
place = (0, 21);
target = up;
type = BottomGhost;
},
{
horizontal = 1;
place = (188, 28);
place = (188, 28);
type = Stem;
},
{
horizontal = 1;
place = (692, -20);
target = down;
type = TopGhost;
},
{
place = (24, 35);
place = (24, 35);
type = Stem;
},
{
place = (371, 31);
place = (371, 31);
type = Stem;
},
{
horizontal = 1;
place = (638, 54);
place = (638, 54);
type = Stem;
}
);
layerId = m01;
shapes = (
{
closed = 1;
nodes = (
(402,0,l),
(402,188,l),
(510,188,l),
(510,216,l),
(402,216,l),
(402,692,l),
(373,692,l),
(24,218,l),
(24,188,l),
(371,188,l),
(371,0,l)
);
},
{
closed = 1;
nodes = (
(370,638,l),
(371,638,l),
(371,216,l),
(59,216,l),
(59,218,l)
);
}
);
width = 534;
}
);
note = four;
unicode = 52;
},
{
glyphname = five;
kernLeft = five;
kernRight = five;
layers = (
{
hints = (
{
horizontal = 1;
place = (-10, 30);
place = (-10, 30);
type = Stem;
},
{
horizontal = 1;
place = (412, 29);
place = (412, 29);
type = Stem;
},
{
horizontal = 1;
place = (657, 28);
place = (657, 28);
type = Stem;
},
{
place = (25, 31);
place = (25, 31);
type = Stem;
},
{
place = (439, 32);
place = (439, 32);
type = Stem;
}
);
layerId = m01;
shapes = (
{
closed = 1;
nodes = (
(436,685,l),
(113,685,l),
(46,327,l),
(76,327,l),
(103,370,o),
(156,412,o),
(251,412,cs),
(369,412,o),
(439,331,o),
(439,218,cs),
(439,96,o),
(359,20,o),
(248,20,cs),
(121,20,o),
(69,93,o),
(56,180,c),
(25,180,l),
(32,79,o),
(107,-10,o),
(249,-10,cs),
(376,-10,o),
(471,80,o),
(471,218,cs),
(471,351,o),
(383,441,o),
(255,441,cs),
(172,441,o),
(119,410,o),
(83,372,c),
(137,657,l),
(436,657,l)
);
}
);
width = 504;
}
);
note = five;
unicode = 53;
},
{
glyphname = six;
kernLeft = six;
kernRight = six;
layers = (
{
hints = (
{
horizontal = 1;
place = (-10, 28);
place = (-10, 28);
type = Stem;
},
{
horizontal = 1;
place = (406, 28);
place = (406, 28);
type = Stem;
},
{
horizontal = 1;
place = (668, 28);
place = (668, 28);
type = Stem;
},
{
place = (40, 31);
place = (40, 31);
type = Stem;
},
{
place = (470, 33);
place = (470, 33);
type = Stem;
},
{
place = (450, 32);
place = (450, 32);
type = Stem;
}
);
layerId = m01;
shapes = (
{
closed = 1;
nodes = (
(73,555,o),
(149,668,o),
(286,668,cs),
(379,668,o),
(441,614,o),
(450,528,c),
(482,528,l),
(472,630,o),
(399,696,o),
(286,696,cs),
(129,696,o),
(40,567,o),
(40,339,cs),
(40,195,o),
(68,102,o),
(130,46,cs),
(170,10,o),
(222,-10,o),
(286,-10,cs),
(405,-10,o),
(503,79,o),
(503,219,cs),
(503,345,o),
(412,434,o),
(283,434,cs),
(169,434,o),
(96,360,o),
(76,261,c),
(73,282,o),
(71,320,o),
(71,344,cs)
);
},
{
closed = 1;
nodes = (
(91,313,o),
(162,406,o),
(283,406,cs),
(392,406,o),
(470,330,o),
(470,218,cs),
(470,95,o),
(385,18,o),
(285,18,cs),
(173,18,o),
(91,94,o),
(91,210,cs)
);
}
);
width = 538;
}
);
note = six;
unicode = 54;
},
{
glyphname = seven;
kernLeft = seven;
kernRight = seven;
layers = (
{
hints = (
{
horizontal = 1;
place = (0, 21);
target = up;
type = BottomGhost;
},
{
horizontal = 1;
place = (657, 28);
place = (657, 28);
type = Stem;
},
{
place = (146, 34);
place = (146, 34);
type = Stem;
},
{
place = (438, 35);
place = (438, 35);
type = Stem;
}
);
layerId = m01;
shapes = (
{
closed = 1;
nodes = (
(180,0,l),
(193,259,o),
(294,474,o),
(473,656,c),
(473,685,l),
(23,685,l),
(23,657,l),
(438,657,l),
(438,656,l),
(263,474,o),
(158,248,o),
(146,0,c)
);
}
);
width = 489;
}
);
note = seven;
unicode = 55;
},
{
glyphname = eight;
kernLeft = eight;
kernRight = eight;
layers = (
{
hints = (
{
horizontal = 1;
place = (-10, 28);
place = (-10, 28);
type = Stem;
},
{
horizontal = 1;
place = (360, 27);
place = (360, 27);
type = Stem;
},
{
horizontal = 1;
place = (669, 27);
place = (669, 27);
type = Stem;
},
{
place = (33, 32);
place = (33, 32);
type = Stem;
},
{
place = (479, 32);
place = (479, 32);
type = Stem;
},
{
place = (70, 31);
place = (70, 31);
type = Stem;
},
{
place = (442, 32);
place = (442, 32);
type = Stem;
}
);
layerId = m01;
shapes = (
{
closed = 1;
nodes = (
(411,-10,o),
(511,67,o),
(511,190,cs),
(511,284,o),
(446,354,o),
(351,375,c),
(351,377,l),
(426,399,o),
(474,455,o),
(474,529,cs),
(474,625,o),
(394,696,o),
(272,696,cs),
(154,696,o),
(70,627,o),
(70,529,cs),
(70,455,o),
(115,399,o),
(191,376,c),
(191,374,l),
(96,351,o),
(33,287,o),
(33,190,cs),
(33,68,o),
(134,-10,o),
(274,-10,cs)
);
},
{
closed = 1;
nodes = (
(145,18,o),
(65,89,o),
(65,190,cs),
(65,292,o),
(144,360,o),
(271,360,cs),
(400,360,o),
(479,292,o),
(479,190,cs),
(479,90,o),
(399,18,o),
(274,18,cs)
);
},
{
closed = 1;
nodes = (
(166,387,o),
(101,448,o),
(101,528,cs),
(101,608,o),
(168,669,o),
(272,669,cs),
(377,669,o),
(442,608,o),
(442,528,cs),
(442,447,o),
(375,387,o),
(271,387,cs)
);
}
);
width = 544;
}
);
note = eight;
unicode = 56;
},
{
glyphname = nine;
kernLeft = nine;
kernRight = nine;
layers = (
{
hints = (
{
horizontal = 1;
place = (-10, 28);
place = (-10, 28);
type = Stem;
},
{
horizontal = 1;
place = (252, 28);
place = (252, 28);
type = Stem;
},
{
horizontal = 1;
place = (668, 28);
place = (668, 28);
type = Stem;
},
{
place = (36, 32);
place = (36, 32);
type = Stem;
},
{
place = (468, 31);
place = (468, 31);
type = Stem;
},
{
place = (49, 32);
place = (49, 32);
type = Stem;
}
);
layerId = m01;
shapes = (
{
closed = 1;
nodes = (
(467,224,o),
(449,144,o),
(406,88,cs),
(372,39,o),
(321,18,o),
(255,18,cs),
(162,18,o),
(92,71,o),
(81,158,c),
(49,158,l),
(60,55,o),
(143,-10,o),
(256,-10,cs),
(330,-10,o),
(391,16,o),
(432,71,cs),
(479,132,o),
(499,223,o),
(499,332,cs),
(499,496,o),
(470,594,o),
(403,647,cs),
(359,681,o),
(311,696,o),
(252,696,cs),
(136,696,o),
(36,610,o),
(36,468,cs),
(36,341,o),
(129,252,o),
(255,252,cs),
(369,252,o),
(444,325,o),
(463,425,c),
(466,406,o),
(468,366,o),
(468,336,cs)
);
},
{
closed = 1;
nodes = (
(448,374,o),
(379,280,o),
(255,280,cs),
(145,280,o),
(68,358,o),
(68,469,cs),
(68,594,o),
(154,668,o),
(253,668,cs),
(378,668,o),
(448,581,o),
(448,475,cs)
);
}
);
width = 536;
}
);
note = nine;
unicode = 57;
},
{
glyphname = colon;
kernLeft = colon;
kernRight = colon;
layers = (
{
hints = (
{
horizontal = 1;
place = (0, 66);
place = (0, 66);
type = Stem;
},
{
horizontal = 1;
place = (319, 66);
place = (319, 66);
type = Stem;
},
{
place = (47, 37);
place = (47, 37);
type = Stem;
}
);
layerId = m01;
shapes = (
{
closed = 1;
nodes = (
(84,385,l),
(47,385,l),
(47,319,l),
(84,319,l)
);
},
{
closed = 1;
nodes = (
(84,66,l),
(47,66,l),
(47,0,l),
(84,0,l)
);
}
);
width = 131;
}
);
note = colon;
unicode = 58;
},
{
glyphname = semicolon;
kernLeft = colon;
kernRight = colon;
layers = (
{
hints = (
{
horizontal = 1;
place = (0, 66);
place = (0, 66);
type = Stem;
},
{
horizontal = 1;
place = (319, 66);
place = (319, 66);
type = Stem;
},
{
place = (46, 37);
place = (46, 37);
type = Stem;
}
);
layerId = m01;
shapes = (
{
closed = 1;
nodes = (
(28,-108,l),
(70,-89,o),
(83,-52,o),
(83,-1,cs),
(83,66,l),
(46,66,l),
(46,0,l),
(60,0,l),
(60,-3,ls),
(60,-42,o),
(53,-69,o),
(28,-86,c)
);
},
{
closed = 1;
nodes = (
(83,385,l),
(46,385,l),
(46,319,l),
(83,319,l)
);
}
);
width = 129;
}
);
note = semicolon;
unicode = 59;
},
{
glyphname = less;
layers = (
{
hints = (
{
horizontal = 1;
place = (126, 372);
place = (126, 372);
type = Stem;
},
{
place = (50, 30);
place = (50, 30);
type = Stem;
}
);
layerId = m01;
shapes = (
{
closed = 1;
nodes = (
(440,157,l),
(80,311,l),
(80,312,l),
(440,467,l),
(440,498,l),
(50,328,l),
(50,296,l),
(440,126,l)
);
}
);
width = 494;
}
);
note = less;
unicode = 60;
},
{
glyphname = equal;
layers = (
{
hints = (
{
horizontal = 1;
place = (226, 29);
place = (226, 29);
type = Stem;
},
{
horizontal = 1;
place = (368, 29);
place = (368, 29);
type = Stem;
},
{
place = (54, 414);
place = (54, 414);
type = Stem;
}
);
layerId = m01;
shapes = (
{
closed = 1;
nodes = (
(54,368,l),
(468,368,l),
(468,397,l),
(54,397,l)
);
},
{
closed = 1;
nodes = (
(54,226,l),
(468,226,l),
(468,255,l),
(54,255,l)
);
}
);
width = 522;
}
);
note = equal;
unicode = 61;
},
{
glyphname = greater;
layers = (
{
hints = (
{
horizontal = 1;
place = (126, 372);
place = (126, 372);
type = Stem;
},
{
place = (414, 30);
place = (414, 30);
type = Stem;
}
);
layerId = m01;
shapes = (
{
closed = 1;
nodes = (
(54,126,l),
(444,296,l),
(444,328,l),
(54,498,l),
(54,467,l),
(414,312,l),
(54,157,l)
);
}
);
width = 494;
}
);
note = greater;
unicode = 62;
},
{
glyphname = question;
kernLeft = question;
layers = (
{
hints = (
{
horizontal = 1;
place = (0, 66);
place = (0, 66);
type = Stem;
},
{
horizontal = 1;
place = (697, 28);
place = (697, 28);
type = Stem;
},
{
place = (25, 31);
place = (25, 31);
type = Stem;
},
{
place = (205, 29);
place = (205, 29);
type = Stem;
},
{
place = (409, 32);
place = (409, 32);
type = Stem;
},
{
place = (201, 37);
place = (201, 37);
type = Stem;
}
);
layerId = m01;
shapes = (
{
closed = 1;
nodes = (
(234,176,l),
(234,272,o),
(257,305,o),
(327,364,cs),
(386,412,o),
(441,449,o),
(441,546,cs),
(441,648,o),
(362,725,o),
(244,725,cs),
(96,725,o),
(27,624,o),
(25,513,c),
(56,513,l),
(60,616,o),
(122,697,o),
(242,697,cs),
(339,697,o),
(409,636,o),
(409,546,cs),
(409,461,o),
(355,425,o),
(307,385,cs),
(229,320,o),
(205,283,o),
(205,176,c)
);
},
{
closed = 1;
nodes = (
(238,66,l),
(201,66,l),
(201,0,l),
(238,0,l)
);
}
);
width = 479;
}
);
note = question;
unicode = 63;
},
{
glyphname = at;
kernLeft = at;
kernRight = at;
layers = (
{
hints = (
{
horizontal = 1;
place = (-98, 27);
place = (-98, 27);
type = Stem;
},
{
horizontal = 1;
place = (84, 26);
place = (84, 26);
type = Stem;
},
{
horizontal = 1;
place = (493, 25);
place = (493, 25);
type = Stem;
},
{
horizontal = 1;
place = (681, 26);
place = (681, 26);
type = Stem;
},
{
place = (37, 29);
place = (37, 29);
type = Stem;
},
{
place = (239, 31);
place = (239, 31);
type = Stem;
},
{
place = (554, 26);
place = (554, 26);
type = Stem;
},
{
place = (797, 29);
place = (797, 29);
type = Stem;
},
{
horizontal = 1;
place = (93, 25);
place = (93, 25);
type = Stem;
}
);
layerId = m01;
shapes = (
{
closed = 1;
nodes = (
(467,84,o),
(526,130,o),
(554,194,c),
(552,137,o),
(585,93,o),
(655,93,cs),
(759,93,o),
(826,199,o),
(826,347,cs),
(826,584,o),
(642,707,o),
(450,707,cs),
(242,707,o),
(37,555,o),
(37,288,cs),
(37,56,o),
(193,-98,o),
(431,-98,cs),
(514,-98,o),
(586,-77,o),
(636,-53,c),
(626,-29,l),
(578,-51,o),
(510,-71,o),
(432,-71,cs),
(206,-71,o),
(66,73,o),
(66,289,cs),
(66,536,o),
(251,681,o),
(450,681,cs),
(634,681,o),
(797,568,o),
(797,347,cs),
(797,212,o),
(743,118,o),
(655,118,cs),
(595,118,o),
(571,160,o),
(580,226,cs),
(616,509,l),
(589,509,l),
(576,415,l),
(575,415,l),
(556,476,o),
(506,518,o),
(434,518,cs),
(319,518,o),
(239,416,o),
(239,268,cs),
(239,166,o),
(294,84,o),
(398,84,cs)
);
},
{
closed = 1;
nodes = (
(308,110,o),
(270,185,o),
(270,268,cs),
(270,395,o),
(330,493,o),
(434,493,cs),
(516,493,o),
(563,433,o),
(563,342,cs),
(563,213,o),
(497,110,o),
(397,110,cs)
);
}
);
width = 862;
}
);
note = at;
unicode = 64;
},
{
glyphname = A;
kernLeft = A;
kernRight = A;
layers = (
{
hints = (
{
horizontal = 1;
place = (0, 21);
target = up;
type = BottomGhost;
},
{
horizontal = 1;
place = (244, 27);
place = (244, 27);
type = Stem;
},
{
horizontal = 1;
place = (677, 38);
place = (677, 38);
type = Stem;
},
{
place = (8, 588);
place = (8, 588);
type = Stem;
}
);
layerId = m01;
shapes = (
{
closed = 1;
nodes = (
(563,0,l),
(596,0,l),
(320,715,l),
(284,715,l),
(8,0,l),
(41,0,l),
(135,244,l),
(469,244,l)
);
},
{
closed = 1;
nodes = (
(302,677,l),
(303,677,l),
(458,271,l),
(145,271,l)
);
}
);
width = 604;
}
);
note = A;
unicode = 65;
},
{
glyphname = B;
layers = (
{
hints = (
{
horizontal = 1;
place = (0, 29);
place = (0, 29);
type = Stem;
},
{
horizontal = 1;
place = (361, 28);
place = (361, 28);
type = Stem;
},
{
horizontal = 1;
place = (686, 29);
place = (686, 29);
type = Stem;
},
{
place = (65, 31);
place = (65, 31);
type = Stem;
},
{
place = (517, 33);
place = (517, 33);
type = Stem;
},
{
place = (548, 33);
place = (548, 33);
type = Stem;
}
);
layerId = m01;
shapes = (
{
closed = 1;
nodes = (
(550,596,o),
(528,641,o),
(491,671,cs),
(454,700,o),
(403,715,o),
(343,715,cs),
(65,715,l),
(65,0,l),
(358,0,ls),
(427,0,o),
(484,20,o),
(522,55,cs),
(560,89,o),
(581,137,o),
(581,198,cs),
(581,292,o),
(524,355,o),
(432,378,c),
(508,403,o),
(550,458,o),
(550,536,cs)
);
},
{
closed = 1;
nodes = (
(369,361,ls),
(477,359,o),
(548,297,o),
(548,199,cs),
(548,146,o),
(531,105,o),
(498,76,cs),
(465,47,o),
(416,29,o),
(355,29,cs),
(96,29,l),
(96,361,l)
);
},
{
closed = 1;
nodes = (
(96,686,l),
(343,686,ls),
(445,686,o),
(517,636,o),
(517,534,cs),
(517,450,o),
(456,391,o),
(365,389,cs),
(96,389,l)
);
}
);
width = 608;
}
);
note = B;
unicode = 66;
},
{
glyphname = C;
kernLeft = C;
kernRight = C;
layers = (
{
hints = (
{
horizontal = 1;
place = (-11, 29);
place = (-11, 29);
type = Stem;
},
{
horizontal = 1;
place = (698, 28);
place = (698, 28);
type = Stem;
},
{
place = (37, 33);
place = (37, 33);
type = Stem;
}
);
layerId = m01;
shapes = (
{
closed = 1;
nodes = (
(633,514,l),
(611,634,o),
(515,726,o),
(361,726,cs),
(161,726,o),
(37,573,o),
(37,357,cs),
(37,136,o),
(162,-11,o),
(358,-11,cs),
(447,-11,o),
(520,22,o),
(568,75,cs),
(612,123,o),
(638,187,o),
(644,256,c),
(615,256,l),
(600,126,o),
(512,18,o),
(358,18,cs),
(175,18,o),
(70,159,o),
(70,357,cs),
(70,551,o),
(173,698,o),
(361,698,cs),
(500,698,o),
(584,613,o),
(601,514,c)
);
}
);
width = 675;
}
);
note = C;
unicode = 67;
},
{
glyphname = D;
kernRight = Eth;
layers = (
{
hints = (
{
horizontal = 1;
place = (0, 28);
place = (0, 28);
type = Stem;
},
{
horizontal = 1;
place = (686, 29);
place = (686, 29);
type = Stem;
},
{
place = (65, 31);
place = (65, 31);
type = Stem;
},
{
place = (583, 33);
place = (583, 33);
type = Stem;
}
);
layerId = m01;
shapes = (
{
closed = 1;
nodes = (
(65,0,l),
(314,0,ls),
(521,0,o),
(616,154,o),
(616,354,cs),
(616,553,o),
(528,715,o),
(321,715,cs),
(65,715,l)
);
},
{
closed = 1;
nodes = (
(96,28,l),
(96,686,l),
(320,686,ls),
(493,686,o),
(583,556,o),
(583,354,cs),
(583,152,o),
(486,28,o),
(313,28,cs)
);
}
);
width = 653;
}
);
note = D;
unicode = 68;
},
{
glyphname = E;
kernRight = E;
layers = (
{
hints = (
{
horizontal = 1;
place = (0, 29);
place = (0, 29);
type = Stem;
},
{
horizontal = 1;
place = (356, 28);
place = (356, 28);
type = Stem;
},
{
horizontal = 1;
place = (687, 28);
place = (687, 28);
type = Stem;
},
{
place = (65, 31);
place = (65, 31);
type = Stem;
}
);
layerId = m01;
shapes = (
{
closed = 1;
nodes = (
(96,687,l),
(535,687,l),
(535,715,l),
(65,715,l),
(65,0,l),
(545,0,l),
(545,29,l),
(96,29,l),
(96,356,l),
(500,356,l),
(500,384,l),
(96,384,l)
);
}
);
width = 582;
}
);
note = E;
unicode = 69;
},
{
glyphname = F;
kernRight = F;
layers = (
{
hints = (
{
horizontal = 1;
place = (0, 21);
target = up;
type = BottomGhost;
},
{
horizontal = 1;
place = (359, 28);
place = (359, 28);
type = Stem;
},
{
horizontal = 1;
place = (687, 28);
place = (687, 28);
type = Stem;
},
{
place = (65, 31);
place = (65, 31);
type = Stem;
}
);
layerId = m01;
shapes = (
{
closed = 1;
nodes = (
(96,687,l),
(525,687,l),
(525,715,l),
(65,715,l),
(65,0,l),
(96,0,l),
(96,359,l),
(465,359,l),
(465,387,l),
(96,387,l)
);
}
);
width = 551;
}
);
note = F;
unicode = 70;
},
{
glyphname = G;
kernLeft = C;
kernRight = G;
layers = (
{
hints = (
{
horizontal = 1;
place = (-11, 29);
place = (-11, 29);
type = Stem;
},
{
horizontal = 1;
place = (326, 28);
place = (326, 28);
type = Stem;
},
{
horizontal = 1;
place = (698, 28);
place = (698, 28);
type = Stem;
},
{
place = (37, 33);
place = (37, 33);
type = Stem;
},
{
place = (631, 27);
place = (631, 27);
type = Stem;
},
{
horizontal = 1;
place = (0, 21);
target = up;
type = BottomGhost;
}
);
layerId = m01;
shapes = (
{
closed = 1;
nodes = (
(628,326,l),
(628,290,ls),
(628,133,o),
(532,18,o),
(369,18,cs),
(170,18,o),
(70,168,o),
(70,356,cs),
(70,539,o),
(169,698,o),
(370,698,cs),
(503,698,o),
(595,624,o),
(617,511,c),
(648,511,l),
(623,644,o),
(520,726,o),
(370,726,cs),
(154,726,o),
(37,560,o),
(37,356,cs),
(37,148,o),
(154,-11,o),
(369,-11,cs),
(518,-11,o),
(604,81,o),
(628,169,c),
(630,169,l),
(633,0,l),
(659,0,l),
(659,354,l),
(379,354,l),
(379,326,l)
);
}
);
width = 715;
}
);
note = G;
unicode = 71;
},
{
glyphname = H;
layers = (
{
hints = (
{
horizontal = 1;
place = (0, 21);
target = up;
type = BottomGhost;
},
{
horizontal = 1;
place = (367, 27);
place = (367, 27);
type = Stem;
},
{
horizontal = 1;
place = (715, -20);
target = down;
type = TopGhost;
},
{
place = (65, 31);
place = (65, 31);
type = Stem;
},
{
place = (555, 31);
place = (555, 31);
type = Stem;
}
);
layerId = m01;
shapes = (
{
closed = 1;
nodes = (
(65,0,l),
(96,0,l),
(96,367,l),
(555,367,l),
(555,0,l),
(586,0,l),
(586,715,l),
(555,715,l),
(555,394,l),
(96,394,l),
(96,715,l),
(65,715,l)
);
}
);
width = 651;
}
);
note = H;
unicode = 72;
},
{
glyphname = I;
layers = (
{
hints = (
{
horizontal = 1;
place = (0, 21);
target = up;
type = BottomGhost;
},
{
horizontal = 1;
place = (715, -20);
target = down;
type = TopGhost;
},
{
place = (68, 31);
place = (68, 31);
type = Stem;
}
);
layerId = m01;
shapes = (
{
closed = 1;
nodes = (
(99,715,l),
(68,715,l),
(68,0,l),
(99,0,l)
);
}
);
width = 167;
}
);
note = I;
unicode = 73;
},
{
glyphname = J;
kernLeft = J;
kernRight = J;
layers = (
{
hints = (
{
horizontal = 1;
place = (-12, 29);
place = (-12, 29);
type = Stem;
},
{
horizontal = 1;
place = (715, -20);
target = down;
type = TopGhost;
},
{
place = (22, 31);
place = (22, 31);
type = Stem;
},
{
place = (364, 31);
place = (364, 31);
type = Stem;
}
);
layerId = m01;
shapes = (
{
closed = 1;
nodes = (
(22,211,l),
(22,185,ls),
(22,56,o),
(94,-12,o),
(215,-12,cs),
(339,-12,o),
(395,66,o),
(395,178,cs),
(395,715,l),
(364,715,l),
(364,180,ls),
(364,75,o),
(314,17,o),
(215,17,cs),
(111,17,o),
(53,73,o),
(53,186,cs),
(53,211,l)
);
}
);
width = 454;
}
);
note = J;
unicode = 74;
},
{
glyphname = K;
kernRight = K;
layers = (
{
hints = (
{
horizontal = 1;
place = (0, 21);
target = up;
type = BottomGhost;
},
{
horizontal = 1;
place = (715, -20);
target = down;
type = TopGhost;
},
{
place = (65, 31);
place = (65, 31);
type = Stem;
}
);
layerId = m01;
shapes = (
{
closed = 1;
nodes = (
(574,715,l),
(532,715,l),
(96,297,l),
(96,715,l),
(65,715,l),
(65,0,l),
(96,0,l),
(96,258,l),
(244,399,l),
(567,0,l),
(605,0,l),
(267,421,l)
);
}
);
width = 607;
}
);
note = K;
unicode = 75;
},
{
glyphname = L;
kernRight = L;
layers = (
{
hints = (
{
horizontal = 1;
place = (0, 29);
place = (0, 29);
type = Stem;
},
{
horizontal = 1;
place = (715, -20);
target = down;
type = TopGhost;
},
{
place = (65, 31);
place = (65, 31);
type = Stem;
}
);
layerId = m01;
shapes = (
{
closed = 1;
nodes = (
(96,715,l),
(65,715,l),
(65,0,l),
(507,0,l),
(507,29,l),
(96,29,l)
);
}
);
width = 530;
}
);
note = L;
unicode = 76;
},
{
glyphname = M;
layers = (
{
hints = (
{
horizontal = 1;
place = (0, 41);
place = (0, 41);
type = Stem;
},
{
horizontal = 1;
place = (667, 48);
place = (667, 48);
type = Stem;
},
{
place = (65, 30);
place = (65, 30);
type = Stem;
},
{
place = (697, 31);
place = (697, 31);
type = Stem;
}
);
layerId = m01;
shapes = (
{
closed = 1;
nodes = (
(381,0,l),
(413,0,l),
(696,667,l),
(697,667,l),
(697,0,l),
(728,0,l),
(728,715,l),
(681,715,l),
(398,41,l),
(397,41,l),
(110,715,l),
(65,715,l),
(65,0,l),
(95,0,l),
(95,667,l),
(96,667,l)
);
}
);
width = 793;
}
);
note = M;
unicode = 77;
},
{
glyphname = N;
layers = (
{
hints = (
{
horizontal = 1;
place = (0, 21);
target = up;
type = BottomGhost;
},
{
horizontal = 1;
place = (715, -20);
target = down;
type = TopGhost;
},
{
place = (65, 30);
place = (65, 30);
type = Stem;
},
{
place = (565, 30);
place = (565, 30);
type = Stem;
},
{
horizontal = 1;
place = (0, 52);
place = (0, 52);
type = Stem;
},
{
horizontal = 1;
place = (663, 52);
place = (663, 52);
type = Stem;
}
);
layerId = m01;
shapes = (
{
closed = 1;
nodes = (
(595,715,l),
(565,715,l),
(565,52,l),
(564,52,l),
(100,715,l),
(65,715,l),
(65,0,l),
(95,0,l),
(95,663,l),
(96,663,l),
(562,0,l),
(595,0,l)
);
}
);
width = 660;
}
);
note = N;
unicode = 78;
},
{
glyphname = O;
kernLeft = C;
kernRight = O;
layers = (
{
hints = (
{
horizontal = 1;
place = (-10, 29);
place = (-10, 29);
type = Stem;
},
{
horizontal = 1;
place = (697, 29);
place = (697, 29);
type = Stem;
},
{
place = (37, 33);
place = (37, 33);
type = Stem;
},
{
place = (662, 33);
place = (662, 33);
type = Stem;
}
);
layerId = m01;
shapes = (
{
closed = 1;
nodes = (
(559,-10,o),
(695,146,o),
(695,357,cs),
(695,569,o),
(559,726,o),
(365,726,cs),
(171,726,o),
(37,569,o),
(37,357,cs),
(37,145,o),
(171,-10,o),
(365,-10,cs)
);
},
{
closed = 1;
nodes = (
(182,19,o),
(70,169,o),
(70,357,cs),
(70,547,o),
(182,697,o),
(365,697,cs),
(547,697,o),
(662,546,o),
(662,357,cs),
(662,169,o),
(547,19,o),
(365,19,cs)
);
}
);
width = 732;
}
);
note = O;
unicode = 79;
},
{
glyphname = P;
kernRight = P;
layers = (
{
hints = (
{
horizontal = 1;
place = (0, 21);
target = up;
type = BottomGhost;
},
{
horizontal = 1;
place = (327, 28);
place = (327, 28);
type = Stem;
},
{
horizontal = 1;
place = (686, 29);
place = (686, 29);
type = Stem;
},
{
place = (65, 31);
place = (65, 31);
type = Stem;
},
{
place = (512, 32);
place = (512, 32);
type = Stem;
}
);
layerId = m01;
shapes = (
{
closed = 1;
nodes = (
(319,327,ls),
(469,327,o),
(544,395,o),
(544,522,cs),
(544,592,o),
(518,642,o),
(472,673,c),
(436,701,o),
(389,715,o),
(326,715,cs),
(65,715,l),
(65,0,l),
(96,0,l),
(96,327,l)
);
},
{
closed = 1;
nodes = (
(96,686,l),
(324,686,ls),
(442,686,o),
(512,627,o),
(512,522,cs),
(512,417,o),
(454,355,o),
(317,355,cs),
(96,355,l)
);
}
);
width = 567;
}
);
note = P;
unicode = 80;
},
{
glyphname = Q;
kernLeft = C;
kernRight = Q;
layers = (
{
hints = (
{
horizontal = 1;
place = (-11, 29);
place = (-11, 29);
type = Stem;
},
{
horizontal = 1;
place = (697, 29);
place = (697, 29);
type = Stem;
},
{
place = (37, 33);
place = (37, 33);
type = Stem;
},
{
place = (662, 33);
place = (662, 33);
type = Stem;
}
);
layerId = m01;
shapes = (
{
closed = 1;
nodes = (
(435,-11,o),
(498,10,o),
(550,47,c),
(659,-42,l),
(677,-18,l),
(574,65,l),
(649,131,o),
(695,235,o),
(695,357,cs),
(695,569,o),
(559,726,o),
(365,726,cs),
(171,726,o),
(37,569,o),
(37,357,cs),
(37,145,o),
(171,-11,o),
(365,-11,cs)
);
},
{
closed = 1;
nodes = (
(461,157,l),
(443,134,l),
(526,66,l),
(481,36,o),
(427,18,o),
(365,18,cs),
(182,18,o),
(70,169,o),
(70,357,cs),
(70,547,o),
(182,697,o),
(365,697,cs),
(547,697,o),
(662,546,o),
(662,357,cs),
(662,245,o),
(621,146,o),
(550,85,c)
);
}
);
width = 732;
}
);
note = Q;
unicode = 81;
},
{
glyphname = R;
kernRight = R;
layers = (
{
hints = (
{
horizontal = 1;
place = (0, 21);
target = up;
type = BottomGhost;
},
{
horizontal = 1;
place = (333, 29);
place = (333, 29);
type = Stem;
},
{
horizontal = 1;
place = (687, 28);
place = (687, 28);
type = Stem;
},
{
place = (65, 31);
place = (65, 31);
type = Stem;
},
{
place = (529, 32);
place = (529, 32);
type = Stem;
}
);
layerId = m01;
shapes = (
{
closed = 1;
nodes = (
(96,333,l),
(351,333,ls),
(465,333,o),
(509,283,o),
(513,166,cs),
(517,31,o),
(529,8,o),
(540,0,c),
(574,0,l),
(574,3,l),
(563,12,o),
(549,32,o),
(545,166,cs),
(541,270,o),
(509,329,o),
(427,348,c),
(427,349,l),
(518,370,o),
(561,432,o),
(561,525,cs),
(561,647,o),
(483,715,o),
(351,715,cs),
(65,715,l),
(65,0,l),
(96,0,l)
);
},
{
closed = 1;
nodes = (
(96,687,l),
(348,687,ls),
(466,687,o),
(529,627,o),
(529,524,cs),
(529,420,o),
(467,362,o),
(340,362,cs),
(96,362,l)
);
}
);
width = 605;
}
);
note = R;
unicode = 82;
},
{
glyphname = S;
kernLeft = Scaron;
kernRight = Scaron;
layers = (
{
hints = (
{
horizontal = 1;
place = (-11, 29);
place = (-11, 29);
type = Stem;
},
{
horizontal = 1;
place = (697, 29);
place = (697, 29);
type = Stem;
},
{
place = (22, 33);
place = (22, 33);
type = Stem;
},
{
place = (518, 32);
place = (518, 32);
type = Stem;
},
{
place = (51, 32);
place = (51, 32);
type = Stem;
}
);
layerId = m01;
shapes = (
{
closed = 1;
nodes = (
(22,227,l),
(31,91,o),
(121,-11,o),
(305,-11,cs),
(457,-11,o),
(550,71,o),
(550,190,cs),
(550,325,o),
(449,364,o),
(295,392,cs),
(150,419,o),
(83,454,o),
(83,549,cs),
(83,638,o),
(158,697,o),
(283,697,cs),
(402,697,o),
(480,634,o),
(494,525,c),
(526,525,l),
(511,645,o),
(428,726,o),
(282,726,cs),
(143,726,o),
(51,656,o),
(51,548,cs),
(51,435,o),
(133,391,o),
(280,364,cs),
(446,334,o),
(518,299,o),
(518,188,cs),
(518,84,o),
(434,18,o),
(304,18,cs),
(147,18,o),
(62,101,o),
(55,227,c)
);
}
);
width = 585;
}
);
note = S;
unicode = 83;
},
{
glyphname = T;
kernLeft = T;
kernRight = T;
layers = (
{
hints = (
{
horizontal = 1;
place = (0, 21);
target = up;
type = BottomGhost;
},
{
horizontal = 1;
place = (686, 29);
place = (686, 29);
type = Stem;
},
{
place = (275, 32);
place = (275, 32);
type = Stem;
}
);
layerId = m01;
shapes = (
{
closed = 1;
nodes = (
(307,0,l),
(307,686,l),
(562,686,l),
(562,715,l),
(20,715,l),
(20,686,l),
(275,686,l),
(275,0,l)
);
}
);
width = 582;
}
);
note = T;
unicode = 84;
},
{
glyphname = U;
kernLeft = U;
kernRight = U;
layers = (
{
hints = (
{
horizontal = 1;
place = (-10, 28);
place = (-10, 28);
type = Stem;
},
{
horizontal = 1;
place = (715, -20);
target = down;
type = TopGhost;
},
{
place = (55, 32);
place = (55, 32);
type = Stem;
},
{
place = (537, 32);
place = (537, 32);
type = Stem;
}
);
layerId = m01;
shapes = (
{
closed = 1;
nodes = (
(55,715,l),
(55,231,ls),
(55,62,o),
(162,-10,o),
(311,-10,cs),
(457,-10,o),
(569,60,o),
(569,231,cs),
(569,715,l),
(537,715,l),
(537,233,ls),
(537,77,o),
(440,18,o),
(312,18,cs),
(179,18,o),
(87,77,o),
(87,233,cs),
(87,715,l)
);
}
);
width = 624;
}
);
note = U;
unicode = 85;
},
{
glyphname = V;
kernLeft = V;
kernRight = V;
layers = (
{
hints = (
{
horizontal = 1;
place = (0, 44);
place = (0, 44);
type = Stem;
},
{
horizontal = 1;
place = (715, -20);
target = down;
type = TopGhost;
},
{
place = (9, 573);
place = (9, 573);
type = Stem;
}
);
layerId = m01;
shapes = (
{
closed = 1;
nodes = (
(42,715,l),
(9,715,l),
(278,0,l),
(312,0,l),
(582,715,l),
(550,715,l),
(295,44,l),
(294,44,l)
);
}
);
width = 591;
}
);
note = V;
unicode = 86;
},
{
glyphname = W;
kernLeft = W;
kernRight = W;
layers = (
{
hints = (
{
horizontal = 1;
place = (0, 21);
target = up;
type = BottomGhost;
},
{
horizontal = 1;
place = (715, -20);
target = down;
type = TopGhost;
},
{
place = (13, 842);
place = (13, 842);
type = Stem;
},
{
horizontal = 1;
place = (0, 51);
place = (0, 51);
type = Stem;
},
{
horizontal = 1;
place = (664, 51);
place = (664, 51);
type = Stem;
}
);
layerId = m01;
shapes = (
{
closed = 1;
nodes = (
(418,715,l),
(236,52,l),
(235,52,l),
(45,715,l),
(13,715,l),
(218,0,l),
(253,0,l),
(434,664,l),
(435,664,l),
(618,0,l),
(652,0,l),
(855,715,l),
(824,715,l),
(636,51,l),
(635,51,l),
(452,715,l)
);
}
);
width = 868;
}
);
note = W;
unicode = 87;
},
{
glyphname = X;
kernLeft = X;
kernRight = X;
layers = (
{
hints = (
{
horizontal = 1;
place = (0, 21);
target = up;
type = BottomGhost;
},
{
horizontal = 1;
place = (715, -20);
target = down;
type = TopGhost;
},
{
place = (13, 550);
place = (13, 550);
type = Stem;
}
);
layerId = m01;
shapes = (
{
closed = 1;
nodes = (
(13,0,l),
(49,0,l),
(288,342,l),
(289,342,l),
(527,0,l),
(563,0,l),
(309,366,l),
(552,715,l),
(516,715,l),
(291,390,l),
(290,390,l),
(65,715,l),
(29,715,l),
(270,367,l)
);
}
);
width = 576;
}
);
note = X;
unicode = 88;
},
{
glyphname = Y;
kernLeft = Yacute;
kernRight = Yacute;
layers = (
{
hints = (
{
horizontal = 1;
place = (0, 21);
target = up;
type = BottomGhost;
},
{
horizontal = 1;
place = (715, -20);
target = down;
type = TopGhost;
},
{
place = (272, 31);
place = (272, 31);
type = Stem;
}
);
layerId = m01;
shapes = (
{
closed = 1;
nodes = (
(43,715,l),
(8,715,l),
(272,321,l),
(272,0,l),
(303,0,l),
(303,320,l),
(568,715,l),
(533,715,l),
(288,350,l),
(287,350,l)
);
}
);
width = 576;
}
);
note = Y;
unicode = 89;
},
{
glyphname = Z;
kernLeft = Zcaron;
kernRight = Zcaron;
layers = (
{
hints = (
{
horizontal = 1;
place = (0, 28);
place = (0, 28);
type = Stem;
},
{
horizontal = 1;
place = (687, 28);
place = (687, 28);
type = Stem;
},
{
place = (27, 37);
place = (27, 37);
type = Stem;
},
{
place = (497, 38);
place = (497, 38);
type = Stem;
}
);
layerId = m01;
shapes = (
{
closed = 1;
nodes = (
(53,687,l),
(497,687,l),
(497,686,l),
(27,31,l),
(27,0,l),
(555,0,l),
(555,28,l),
(64,28,l),
(64,30,l),
(535,686,l),
(535,715,l),
(53,715,l)
);
}
);
width = 588;
}
);
note = Z;
unicode = 90;
},
{
glyphname = bracketleft;
kernRight = bracketleft;
layers = (
{
hints = (
{
horizontal = 1;
place = (-118, 28);
place = (-118, 28);
type = Stem;
},
{
horizontal = 1;
place = (726, 28);
place = (726, 28);
type = Stem;
},
{
place = (79, 31);
place = (79, 31);
type = Stem;
}
);
layerId = m01;
shapes = (
{
closed = 1;
nodes = (
(110,-90,l),
(110,726,l),
(221,726,l),
(221,754,l),
(79,754,l),
(79,-118,l),
(221,-118,l),
(221,-90,l)
);
}
);
width = 253;
}
);
note = bracketleft;
unicode = 91;
},
{
glyphname = backslash;
kernLeft = backslash;
kernRight = backslash;
layers = (
{
hints = (
{
horizontal = 1;
place = (0, 21);
target = up;
type = BottomGhost;
},
{
horizontal = 1;
place = (715, -20);
target = down;
type = TopGhost;
},
{
place = (16, 324);
place = (16, 324);
type = Stem;
}
);
layerId = m01;
shapes = (
{
closed = 1;
nodes = (
(308,0,l),
(340,0,l),
(48,715,l),
(16,715,l)
);
}
);
width = 356;
}
);
note = backslash;
unicode = 92;
},
{
glyphname = bracketright;
kernLeft = bracketright;
layers = (
{
hints = (
{
horizontal = 1;
place = (-118, 28);
place = (-118, 28);
type = Stem;
},
{
horizontal = 1;
place = (726, 28);
place = (726, 28);
type = Stem;
},
{
place = (143, 31);
place = (143, 31);
type = Stem;
}
);
layerId = m01;
shapes = (
{
closed = 1;
nodes = (
(32,-90,l),
(32,-118,l),
(174,-118,l),
(174,754,l),
(32,754,l),
(32,726,l),
(143,726,l),
(143,-90,l)
);
}
);
width = 253;
}
);
note = bracketright;
unicode = 93;
},
{
glyphname = asciicircum;
layers = (
{
hints = (
{
horizontal = 1;
place = (690, 25);
place = (690, 25);
type = Stem;
},
{
place = (11, 357);
place = (11, 357);
type = Stem;
}
);
layerId = m01;
shapes = (
{
closed = 1;
nodes = (
(336,448,l),
(368,448,l),
(207,715,l),
(172,715,l),
(11,448,l),
(44,448,l),
(189,690,l),
(190,690,l)
);
}
);
width = 380;
}
);
note = asciicircum;
unicode = 94;
},
{
glyphname = underscore;
layers = (
{
hints = (
{
horizontal = 1;
place = (-166, 26);
place = (-166, 26);
type = Stem;
},
{
place = (-2, 379);
place = (-2, 379);
type = Stem;
}
);
layerId = m01;
shapes = (
{
closed = 1;
nodes = (
(-2,-166,l),
(377,-166,l),
(377,-140,l),
(-2,-140,l)
);
}
);
width = 375;
}
);
note = underscore;
unicode = 95;
},
{
glyphname = grave;
layers = (
{
hints = (
{
horizontal = 1;
place = (721, -20);
target = down;
type = TopGhost;
},
{
place = (147, 112);
place = (147, 112);
type = Stem;
},
{
horizontal = 1;
place = (597, 124);
place = (597, 124);
type = Stem;
}
);
layerId = m01;
shapes = (
{
closed = 1;
nodes = (
(187,721,l),
(147,721,l),
(230,597,l),
(259,597,l)
);
}
);
width = 468;
}
);
note = grave;
unicode = 96;
},
{
glyphname = a;
kernLeft = a;
kernRight = a;
layers = (
{
hints = (
{
horizontal = 1;
place = (-6, 25);
place = (-6, 25);
type = Stem;
},
{
horizontal = 1;
place = (499, 27);
place = (499, 27);
type = Stem;
},
{
place = (47, 31);
place = (47, 31);
type = Stem;
},
{
place = (387, 30);
place = (387, 30);
type = Stem;
},
{
horizontal = 1;
place = (-10, 26);
place = (-10, 26);
type = Stem;
},
{
place = (24, 30);
place = (24, 30);
type = Stem;
}
);
layerId = m01;
shapes = (
{
closed = 1;
nodes = (
(465,-6,o),
(478,-2,o),
(485,2,c),
(485,26,l),
(482,26,l),
(475,23,o),
(465,19,o),
(455,19,cs),
(432,19,o),
(417,30,o),
(417,68,cs),
(417,369,ls),
(417,471,o),
(358,526,o),
(243,526,cs),
(111,526,o),
(54,460,o),
(47,368,c),
(78,368,l),
(85,458,o),
(142,499,o),
(243,499,cs),
(339,499,o),
(387,455,o),
(387,370,cs),
(387,362,ls),
(387,307,o),
(351,296,o),
(224,282,cs),
(116,269,o),
(24,243,o),
(24,130,cs),
(24,42,o),
(91,-10,o),
(189,-10,cs),
(292,-10,o),
(360,42,o),
(385,100,c),
(387,100,l),
(387,65,ls),
(387,23,o),
(404,-6,o),
(449,-6,cs)
);
},
{
closed = 1;
nodes = (
(124,16,o),
(54,46,o),
(54,129,cs),
(54,223,o),
(122,244,o),
(230,257,cs),
(321,268,o),
(362,281,o),
(387,301,c),
(387,185,ls),
(387,89,o),
(307,16,o),
(191,16,cs)
);
}
);
width = 490;
}
);
note = a;
unicode = 97;
},
{
glyphname = b;
kernLeft = b;
kernRight = thorn;
layers = (
{
hints = (
{
horizontal = 1;
place = (0, 21);
target = up;
type = BottomGhost;
},
{
horizontal = 1;
place = (499, 27);
place = (499, 27);
type = Stem;
},
{
horizontal = 1;
place = (715, -20);
target = down;
type = TopGhost;
},
{
place = (53, 30);
place = (53, 30);
type = Stem;
},
{
place = (467, 31);
place = (467, 31);
type = Stem;
},
{
horizontal = 1;
place = (-10, 26);
place = (-10, 26);
type = Stem;
}
);
layerId = m01;
shapes = (
{
closed = 1;
nodes = (
(53,0,l),
(83,0,l),
(83,124,l),
(84,124,l),
(115,42,o),
(183,-10,o),
(279,-10,cs),
(409,-10,o),
(498,100,o),
(498,258,cs),
(498,435,o),
(399,526,o),
(282,526,cs),
(192,526,o),
(117,476,o),
(84,384,c),
(83,384,l),
(83,715,l),
(53,715,l)
);
},
{
closed = 1;
nodes = (
(158,16,o),
(81,110,o),
(81,256,cs),
(81,400,o),
(159,499,o),
(277,499,cs),
(385,499,o),
(467,416,o),
(467,257,cs),
(467,116,o),
(392,16,o),
(278,16,cs)
);
}
);
width = 523;
}
);
note = b;
unicode = 98;
},
{
glyphname = c;
kernLeft = c;
kernRight = c;
layers = (
{
hints = (
{
horizontal = 1;
place = (-10, 27);
place = (-10, 27);
type = Stem;
},
{
horizontal = 1;
place = (499, 27);
place = (499, 27);
type = Stem;
},
{
place = (26, 30);
place = (26, 30);
type = Stem;
}
);
layerId = m01;
shapes = (
{
closed = 1;
nodes = (
(443,174,l),
(430,78,o),
(364,17,o),
(258,17,cs),
(136,17,o),
(56,116,o),
(56,259,cs),
(56,403,o),
(136,499,o),
(258,499,cs),
(346,499,o),
(417,459,o),
(438,364,c),
(468,364,l),
(449,467,o),
(371,526,o),
(258,526,cs),
(110,526,o),
(26,408,o),
(26,259,cs),
(26,110,o),
(110,-10,o),
(258,-10,cs),
(387,-10,o),
(459,67,o),
(472,174,c)
);
}
);
width = 491;
}
);
note = c;
unicode = 99;
},
{
glyphname = d;
kernLeft = d;
layers = (
{
hints = (
{
horizontal = 1;
place = (-10, 26);
place = (-10, 26);
type = Stem;
},
{
horizontal = 1;
place = (499, 27);
place = (499, 27);
type = Stem;
},
{
horizontal = 1;
place = (715, -20);
target = down;
type = TopGhost;
},
{
place = (26, 30);
place = (26, 30);
type = Stem;
},
{
place = (441, 30);
place = (441, 30);
type = Stem;
},
{
horizontal = 1;
place = (0, 21);
target = up;
type = BottomGhost;
}
);
layerId = m01;
shapes = (
{
closed = 1;
nodes = (
(131,16,o),
(56,115,o),
(56,257,cs),
(56,416,o),
(140,499,o),
(249,499,cs),
(367,499,o),
(443,402,o),
(443,256,cs),
(443,107,o),
(365,16,o),
(248,16,cs)
);
},
{
closed = 1;
nodes = (
(441,0,l),
(471,0,l),
(471,715,l),
(441,715,l),
(441,387,l),
(440,387,l),
(408,480,o),
(333,526,o),
(245,526,cs),
(128,526,o),
(26,435,o),
(26,258,cs),
(26,100,o),
(114,-10,o),
(246,-10,cs),
(339,-10,o),
(409,40,o),
(440,125,c),
(441,125,l)
);
}
);
width = 524;
}
);
note = d;
unicode = 100;
},
{
glyphname = e;
kernLeft = c;
kernRight = e;
layers = (
{
hints = (
{
horizontal = 1;
place = (-10, 27);
place = (-10, 27);
type = Stem;
},
{
horizontal = 1;
place = (260, 25);
place = (260, 25);
type = Stem;
},
{
horizontal = 1;
place = (499, 27);
place = (499, 27);
type = Stem;
},
{
place = (26, 30);
place = (26, 30);
type = Stem;
},
{
place = (444, 31);
place = (444, 31);
type = Stem;
}
);
layerId = m01;
shapes = (
{
closed = 1;
nodes = (
(475,260,l),
(473,356,o),
(447,432,o),
(390,480,cs),
(356,509,o),
(311,526,o),
(257,526,cs),
(113,526,o),
(26,412,o),
(26,262,cs),
(26,105,o),
(108,-10,o),
(261,-10,cs),
(379,-10,o),
(449,62,o),
(469,152,c),
(439,152,l),
(415,67,o),
(355,17,o),
(261,17,cs),
(127,17,o),
(57,120,o),
(56,260,c)
);
},
{
closed = 1;
nodes = (
(57,285,l),
(64,415,o),
(144,499,o),
(257,499,cs),
(363,499,o),
(436,423,o),
(444,285,c)
);
}
);
width = 499;
}
);
note = e;
unicode = 101;
},
{
glyphname = f;
kernLeft = f;
kernRight = f;
layers = (
{
hints = (
{
horizontal = 1;
place = (0, 21);
target = up;
type = BottomGhost;
},
{
horizontal = 1;
place = (491, 26);
place = (491, 26);
type = Stem;
},
{
horizontal = 1;
place = (693, 27);
place = (693, 27);
type = Stem;
},
{
place = (91, 30);
place = (91, 30);
type = Stem;
}
);
layerId = m01;
shapes = (
{
closed = 1;
nodes = (
(232,720,l),
(195,720,ls),
(128,720,o),
(91,690,o),
(91,615,cs),
(91,517,l),
(18,517,l),
(18,491,l),
(91,491,l),
(91,0,l),
(121,0,l),
(121,491,l),
(232,491,l),
(232,517,l),
(121,517,l),
(121,614,ls),
(121,671,o),
(145,693,o),
(196,693,cs),
(232,693,l)
);
}
);
width = 254;
}
);
note = f;
unicode = 102;
},
{
glyphname = g;
kernLeft = g;
kernRight = g;
layers = (
{
hints = (
{
horizontal = 1;
place = (-177, 26);
place = (-177, 26);
type = Stem;
},
{
horizontal = 1;
place = (5, 26);
place = (5, 26);
type = Stem;
},
{
horizontal = 1;
place = (499, 27);
place = (499, 27);
type = Stem;
},
{
place = (26, 30);
place = (26, 30);
type = Stem;
},
{
place = (438, 30);
place = (438, 30);
type = Stem;
},
{
horizontal = 1;
place = (517, -20);
target = down;
type = TopGhost;
},
{
place = (50, 31);
place = (50, 31);
type = Stem;
}
);
layerId = m01;
shapes = (
{
closed = 1;
nodes = (
(438,388,l),
(436,388,l),
(409,467,o),
(345,526,o),
(246,526,cs),
(129,526,o),
(26,438,o),
(26,265,cs),
(26,109,o),
(114,5,o),
(246,5,cs),
(339,5,o),
(404,54,o),
(436,137,c),
(438,137,l),
(438,19,ls),
(438,-79,o),
(381,-151,o),
(254,-151,cs),
(156,-151,o),
(94,-117,o),
(81,-51,c),
(50,-51,l),
(60,-126,o),
(130,-177,o),
(255,-177,cs),
(323,-177,o),
(374,-159,o),
(410,-126,cs),
(448,-91,o),
(468,-41,o),
(468,19,cs),
(468,517,l),
(438,517,l)
);
},
{
closed = 1;
nodes = (
(131,31,o),
(56,126,o),
(56,264,cs),
(56,416,o),
(140,499,o),
(249,499,cs),
(367,499,o),
(440,403,o),
(440,262,cs),
(440,120,o),
(364,31,o),
(248,31,cs)
);
}
);
width = 521;
}
);
note = g;
unicode = 103;
},
{
glyphname = h;
kernLeft = b;
kernRight = h;
layers = (
{
hints = (
{
horizontal = 1;
place = (0, 21);
target = up;
type = BottomGhost;
},
{
horizontal = 1;
place = (498, 27);
place = (498, 27);
type = Stem;
},
{
horizontal = 1;
place = (715, -20);
target = down;
type = TopGhost;
},
{
place = (55, 30);
place = (55, 30);
type = Stem;
},
{
place = (404, 31);
place = (404, 31);
type = Stem;
}
);
layerId = m01;
shapes = (
{
closed = 1;
nodes = (
(85,715,l),
(55,715,l),
(55,0,l),
(85,0,l),
(85,347,ls),
(85,425,o),
(163,498,o),
(268,498,cs),
(352,498,o),
(404,455,o),
(404,367,cs),
(404,0,l),
(435,0,l),
(435,370,ls),
(435,462,o),
(376,525,o),
(273,525,cs),
(175,525,o),
(117,476,o),
(87,424,c),
(85,424,l)
);
}
);
width = 484;
}
);
note = h;
unicode = 104;
},
{
glyphname = i;
kernLeft = b;
layers = (
{
hints = (
{
horizontal = 1;
place = (0, 21);
target = up;
type = BottomGhost;
},
{
horizontal = 1;
place = (517, -20);
target = down;
type = TopGhost;
},
{
horizontal = 1;
place = (643, 67);
place = (643, 67);
type = Stem;
},
{
place = (54, 30);
place = (54, 30);
type = Stem;
}
);
layerId = m01;
shapes = (
{
closed = 1;
nodes = (
(84,517,l),
(54,517,l),
(54,0,l),
(84,0,l)
);
},
{
closed = 1;
nodes = (
(84,710,l),
(54,710,l),
(54,643,l),
(84,643,l)
);
}
);
width = 138;
}
);
note = i;
unicode = 105;
},
{
glyphname = j;
kernLeft = j;
kernRight = j;
layers = (
{
hints = (
{
horizontal = 1;
place = (-156, 27);
place = (-156, 27);
type = Stem;
},
{
horizontal = 1;
place = (517, -20);
target = down;
type = TopGhost;
},
{
horizontal = 1;
place = (643, 67);
place = (643, 67);
type = Stem;
},
{
place = (66, 30);
place = (66, 30);
type = Stem;
}
);
layerId = m01;
shapes = (
{
closed = 1;
nodes = (
(66,517,l),
(66,-62,ls),
(66,-107,o),
(52,-129,o),
(6,-129,cs),
(-3,-129,o),
(-13,-128,o),
(-22,-125,c),
(-22,-152,l),
(-15,-154,o),
(-1,-156,o),
(7,-156,cs),
(70,-156,o),
(96,-127,o),
(96,-62,cs),
(96,517,l)
);
},
{
closed = 1;
nodes = (
(96,710,l),
(66,710,l),
(66,643,l),
(96,643,l)
);
}
);
width = 151;
}
);
note = j;
unicode = 106;
},
{
glyphname = k;
kernLeft = b;
kernRight = k;
layers = (
{
hints = (
{
horizontal = 1;
place = (0, 21);
target = up;
type = BottomGhost;
},
{
horizontal = 1;
place = (517, -20);
target = down;
type = TopGhost;
},
{
horizontal = 1;
place = (715, -20);
target = down;
type = TopGhost;
},
{
place = (53, 30);
place = (53, 30);
type = Stem;
}
);
layerId = m01;
shapes = (
{
closed = 1;
nodes = (
(414,0,l),
(449,0,l),
(212,317,l),
(418,517,l),
(379,517,l),
(83,228,l),
(83,715,l),
(53,715,l),
(53,0,l),
(83,0,l),
(83,192,l),
(191,297,l)
);
}
);
width = 450;
}
);
note = k;
unicode = 107;
},
{
glyphname = l;
kernLeft = b;
layers = (
{
hints = (
{
horizontal = 1;
place = (0, 21);
target = up;
type = BottomGhost;
},
{
horizontal = 1;
place = (715, -20);
target = down;
type = TopGhost;
},
{
place = (56, 30);
place = (56, 30);
type = Stem;
}
);
layerId = m01;
shapes = (
{
closed = 1;
nodes = (
(86,715,l),
(56,715,l),
(56,0,l),
(86,0,l)
);
}
);
width = 142;
}
);
note = l;
unicode = 108;
},
{
glyphname = m;
kernLeft = m;
kernRight = h;
layers = (
{
hints = (
{
horizontal = 1;
place = (0, 21);
target = up;
type = BottomGhost;
},
{
horizontal = 1;
place = (498, 27);
place = (498, 27);
type = Stem;
},
{
place = (53, 30);
place = (53, 30);
type = Stem;
},
{
place = (372, 30);
place = (372, 30);
type = Stem;
},
{
place = (690, 30);
place = (690, 30);
type = Stem;
},
{
horizontal = 1;
place = (517, -20);
target = down;
type = TopGhost;
}
);
layerId = m01;
shapes = (
{
closed = 1;
nodes = (
(402,347,ls),
(402,431,o),
(468,498,o),
(564,498,cs),
(643,498,o),
(690,455,o),
(690,367,cs),
(690,0,l),
(720,0,l),
(720,370,ls),
(720,462,o),
(667,525,o),
(569,525,cs),
(482,525,o),
(424,479,o),
(396,420,c),
(393,420,l),
(378,485,o),
(329,525,o),
(252,525,cs),
(162,525,o),
(114,477,o),
(85,427,c),
(83,427,l),
(83,517,l),
(53,517,l),
(53,0,l),
(83,0,l),
(83,347,ls),
(83,425,o),
(151,498,o),
(247,498,cs),
(323,498,o),
(372,455,o),
(372,367,cs),
(372,0,l),
(402,0,l)
);
}
);
width = 770;
}
);
note = m;
unicode = 109;
},
{
glyphname = n;
kernLeft = m;
kernRight = h;
layers = (
{
hints = (
{
horizontal = 1;
place = (0, 21);
target = up;
type = BottomGhost;
},
{
horizontal = 1;
place = (517, -20);
target = down;
type = TopGhost;
},
{
place = (53, 30);
place = (53, 30);
type = Stem;
},
{
place = (402, 30);
place = (402, 30);
type = Stem;
},
{
horizontal = 1;
place = (498, 27);
place = (498, 27);
type = Stem;
}
);
layerId = m01;
shapes = (
{
closed = 1;
nodes = (
(83,517,l),
(53,517,l),
(53,0,l),
(83,0,l),
(83,347,ls),
(83,425,o),
(160,498,o),
(266,498,cs),
(350,498,o),
(402,455,o),
(402,367,cs),
(402,0,l),
(432,0,l),
(432,370,ls),
(432,462,o),
(373,525,o),
(271,525,cs),
(173,525,o),
(115,476,o),
(85,424,c),
(83,424,l)
);
}
);
width = 482;
}
);
note = n;
unicode = 110;
},
{
glyphname = o;
kernLeft = c;
kernRight = o;
layers = (
{
hints = (
{
horizontal = 1;
place = (-10, 26);
place = (-10, 26);
type = Stem;
},
{
horizontal = 1;
place = (500, 26);
place = (500, 26);
type = Stem;
},
{
place = (26, 30);
place = (26, 30);
type = Stem;
},
{
place = (465, 31);
place = (465, 31);
type = Stem;
}
);
layerId = m01;
shapes = (
{
closed = 1;
nodes = (
(409,-10,o),
(496,110,o),
(496,259,cs),
(496,408,o),
(409,526,o),
(261,526,cs),
(114,526,o),
(26,407,o),
(26,259,cs),
(26,110,o),
(114,-10,o),
(261,-10,cs)
);
},
{
closed = 1;
nodes = (
(142,16,o),
(56,114,o),
(56,259,cs),
(56,403,o),
(142,500,o),
(261,500,cs),
(380,500,o),
(465,404,o),
(465,259,cs),
(465,114,o),
(380,16,o),
(261,16,cs)
);
}
);
width = 522;
}
);
note = o;
unicode = 111;
},
{
glyphname = p;
kernLeft = p;
kernRight = thorn;
layers = (
{
hints = (
{
horizontal = 1;
place = (-166, 21);
target = up;
type = BottomGhost;
},
{
horizontal = 1;
place = (-9, 26);
place = (-9, 26);
type = Stem;
},
{
horizontal = 1;
place = (499, 27);
place = (499, 27);
type = Stem;
},
{
place = (53, 30);
place = (53, 30);
type = Stem;
},
{
place = (467, 31);
place = (467, 31);
type = Stem;
},
{
horizontal = 1;
place = (517, -20);
target = down;
type = TopGhost;
}
);
layerId = m01;
shapes = (
{
closed = 1;
nodes = (
(53,-166,l),
(83,-166,l),
(83,124,l),
(84,124,l),
(114,44,o),
(183,-9,o),
(279,-9,cs),
(409,-9,o),
(498,101,o),
(498,259,cs),
(498,436,o),
(399,526,o),
(282,526,cs),
(192,526,o),
(117,477,o),
(84,384,c),
(83,384,l),
(83,517,l),
(53,517,l)
);
},
{
closed = 1;
nodes = (
(158,17,o),
(81,110,o),
(81,256,cs),
(81,400,o),
(159,499,o),
(277,499,cs),
(385,499,o),
(467,417,o),
(467,258,cs),
(467,117,o),
(392,17,o),
(278,17,cs)
);
}
);
width = 523;
}
);
note = p;
unicode = 112;
},
{
glyphname = q;
kernLeft = d;
kernRight = q;
layers = (
{
hints = (
{
horizontal = 1;
place = (-166, 21);
target = up;
type = BottomGhost;
},
{
horizontal = 1;
place = (-9, 26);
place = (-9, 26);
type = Stem;
},
{
horizontal = 1;
place = (499, 27);
place = (499, 27);
type = Stem;
},
{
place = (27, 31);
place = (27, 31);
type = Stem;
},
{
place = (443, 30);
place = (443, 30);
type = Stem;
},
{
horizontal = 1;
place = (517, -20);
target = down;
type = TopGhost;
}
);
layerId = m01;
shapes = (
{
closed = 1;
nodes = (
(132,17,o),
(58,115,o),
(58,257,cs),
(58,416,o),
(142,499,o),
(251,499,cs),
(369,499,o),
(445,402,o),
(445,256,cs),
(445,107,o),
(366,17,o),
(249,17,cs)
);
},
{
closed = 1;
nodes = (
(443,-166,l),
(473,-166,l),
(473,517,l),
(443,517,l),
(443,389,l),
(441,389,l),
(409,480,o),
(336,526,o),
(248,526,cs),
(131,526,o),
(27,435,o),
(27,258,cs),
(27,100,o),
(115,-9,o),
(248,-9,cs),
(341,-9,o),
(410,41,o),
(441,125,c),
(443,125,l)
);
}
);
width = 526;
}
);
note = q;
unicode = 113;
},
{
glyphname = r;
kernLeft = m;
kernRight = r;
layers = (
{
hints = (
{
horizontal = 1;
place = (0, 21);
target = up;
type = BottomGhost;
},
{
horizontal = 1;
place = (488, 30);
place = (488, 30);
type = Stem;
},
{
place = (53, 30);
place = (53, 30);
type = Stem;
}
);
layerId = m01;
shapes = (
{
closed = 1;
nodes = (
(277,518,l),
(257,520,o),
(233,519,o),
(210,511,c),
(158,503,o),
(112,469,o),
(85,412,c),
(83,412,l),
(83,517,l),
(53,517,l),
(53,0,l),
(83,0,l),
(83,324,ls),
(83,396,o),
(138,475,o),
(220,487,cs),
(239,491,o),
(258,491,o),
(277,489,c)
);
}
);
width = 294;
}
);
note = r;
unicode = 114;
},
{
glyphname = s;
kernLeft = scaron;
kernRight = scaron;
layers = (
{
hints = (
{
horizontal = 1;
place = (-10, 26);
place = (-10, 26);
type = Stem;
},
{
horizontal = 1;
place = (499, 27);
place = (499, 27);
type = Stem;
},
{
place = (20, 30);
place = (20, 30);
type = Stem;
},
{
place = (391, 30);
place = (391, 30);
type = Stem;
},
{
place = (40, 30);
place = (40, 30);
type = Stem;
}
);
layerId = m01;
shapes = (
{
closed = 1;
nodes = (
(20,159,l),
(26,62,o),
(93,-10,o),
(229,-10,cs),
(346,-10,o),
(421,46,o),
(421,135,cs),
(421,228,o),
(361,263,o),
(235,285,cs),
(113,306,o),
(70,335,o),
(70,395,cs),
(70,454,o),
(113,499,o),
(214,499,cs),
(313,499,o),
(360,451,o),
(371,377,c),
(401,377,l),
(388,462,o),
(337,526,o),
(214,526,cs),
(103,526,o),
(40,472,o),
(40,395,cs),
(40,315,o),
(100,280,o),
(225,258,cs),
(352,235,o),
(391,205,o),
(391,135,cs),
(391,63,o),
(332,16,o),
(229,16,cs),
(119,16,o),
(58,68,o),
(50,159,c)
);
}
);
width = 444;
}
);
note = s;
unicode = 115;
},
{
glyphname = t;
kernLeft = t;
kernRight = t;
layers = (
{
hints = (
{
horizontal = 1;
place = (-5, 26);
place = (-5, 26);
type = Stem;
},
{
horizontal = 1;
place = (491, 26);
place = (491, 26);
type = Stem;
},
{
place = (93, 30);
place = (93, 30);
type = Stem;
}
);
layerId = m01;
shapes = (
{
closed = 1;
nodes = (
(18,491,l),
(93,491,l),
(93,80,ls),
(93,22,o),
(122,-5,o),
(181,-5,cs),
(200,-5,o),
(221,-2,o),
(235,3,c),
(235,29,l),
(233,29,l),
(220,24,o),
(202,21,o),
(186,21,cs),
(140,21,o),
(123,40,o),
(123,82,cs),
(123,491,l),
(236,491,l),
(236,517,l),
(123,517,l),
(123,677,l),
(93,677,l),
(93,517,l),
(18,517,l)
);
}
);
width = 265;
}
);
note = t;
unicode = 116;
},
{
glyphname = u;
kernLeft = u;
kernRight = u;
layers = (
{
hints = (
{
horizontal = 1;
place = (0, 21);
target = up;
type = BottomGhost;
},
{
horizontal = 1;
place = (517, -20);
target = down;
type = TopGhost;
},
{
place = (49, 31);
place = (49, 31);
type = Stem;
},
{
place = (393, 30);
place = (393, 30);
type = Stem;
},
{
horizontal = 1;
place = (-9, 26);
place = (-9, 26);
type = Stem;
}
);
layerId = m01;
shapes = (
{
closed = 1;
nodes = (
(393,0,l),
(423,0,l),
(423,517,l),
(393,517,l),
(393,173,ls),
(393,92,o),
(321,17,o),
(218,17,cs),
(132,17,o),
(80,61,o),
(80,150,cs),
(80,517,l),
(49,517,l),
(49,147,ls),
(49,54,o),
(108,-9,o),
(213,-9,cs),
(308,-9,o),
(362,39,o),
(391,89,c),
(393,89,l)
);
}
);
width = 476;
}
);
note = u;
unicode = 117;
},
{
glyphname = v;
kernLeft = v;
kernRight = v;
layers = (
{
hints = (
{
horizontal = 1;
place = (0, 36);
place = (0, 36);
type = Stem;
},
{
horizontal = 1;
place = (517, -20);
target = down;
type = TopGhost;
},
{
place = (5, 424);
place = (5, 424);
type = Stem;
}
);
layerId = m01;
shapes = (
{
closed = 1;
nodes = (
(37,517,l),
(5,517,l),
(198,0,l),
(234,0,l),
(429,517,l),
(398,517,l),
(216,36,l),
(215,36,l)
);
}
);
width = 434;
}
);
note = v;
unicode = 118;
},
{
glyphname = w;
kernLeft = w;
kernRight = w;
layers = (
{
hints = (
{
horizontal = 1;
place = (0, 40);
place = (0, 40);
type = Stem;
},
{
horizontal = 1;
place = (471, 46);
place = (471, 46);
type = Stem;
},
{
place = (8, 678);
place = (8, 678);
type = Stem;
}
);
layerId = m01;
shapes = (
{
closed = 1;
nodes = (
(40,517,l),
(8,517,l),
(170,0,l),
(207,0,l),
(345,471,l),
(346,471,l),
(481,0,l),
(516,0,l),
(686,517,l),
(655,517,l),
(499,39,l),
(363,517,l),
(329,517,l),
(189,40,l),
(188,40,l)
);
}
);
width = 694;
}
);
note = w;
unicode = 119;
},
{
glyphname = x;
kernLeft = x;
kernRight = x;
layers = (
{
hints = (
{
horizontal = 1;
place = (0, 21);
target = up;
type = BottomGhost;
},
{
horizontal = 1;
place = (517, -20);
target = down;
type = TopGhost;
},
{
place = (7, 450);
place = (7, 450);
type = Stem;
}
);
layerId = m01;
shapes = (
{
closed = 1;
nodes = (
(7,0,l),
(43,0,l),
(231,253,l),
(232,253,l),
(420,0,l),
(457,0,l),
(250,275,l),
(429,517,l),
(393,517,l),
(231,297,l),
(68,517,l),
(31,517,l),
(213,275,l)
);
}
);
width = 464;
}
);
note = x;
unicode = 120;
},
{
glyphname = y;
kernLeft = yacute;
kernRight = yacute;
layers = (
{
hints = (
{
horizontal = 1;
place = (-169, 28);
place = (-169, 28);
type = Stem;
},
{
horizontal = 1;
place = (517, -20);
target = down;
type = TopGhost;
},
{
place = (5, 430);
place = (5, 430);
type = Stem;
},
{
horizontal = 1;
place = (-162, 21);
target = up;
type = BottomGhost;
}
);
layerId = m01;
shapes = (
{
closed = 1;
nodes = (
(435,517,l),
(403,517,l),
(224,46,l),
(223,46,l),
(37,517,l),
(5,517,l),
(208,7,l),
(188,-44,ls),
(156,-126,o),
(132,-141,o),
(87,-141,cs),
(67,-141,o),
(52,-138,o),
(42,-134,c),
(41,-134,l),
(41,-162,l),
(52,-166,o),
(65,-169,o),
(86,-169,cs),
(148,-169,o),
(179,-148,o),
(216,-53,cs)
);
}
);
width = 440;
}
);
note = y;
unicode = 121;
},
{
glyphname = z;
kernLeft = zcaron;
kernRight = zcaron;
layers = (
{
hints = (
{
horizontal = 1;
place = (0, 27);
place = (0, 27);
type = Stem;
},
{
horizontal = 1;
place = (490, 27);
place = (490, 27);
type = Stem;
},
{
place = (30, 36);
place = (30, 36);
type = Stem;
}
);
layerId = m01;
shapes = (
{
closed = 1;
nodes = (
(405,491,l),
(405,517,l),
(48,517,l),
(48,490,l),
(366,490,l),
(366,489,l),
(30,28,l),
(30,0,l),
(416,0,l),
(416,27,l),
(66,27,l),
(66,28,l)
);
}
);
width = 441;
}
);
note = z;
unicode = 122;
},
{
glyphname = braceleft;
kernRight = bracketleft;
layers = (
{
hints = (
{
horizontal = 1;
place = (-118, 28);
place = (-118, 28);
type = Stem;
},
{
horizontal = 1;
place = (308, 28);
place = (308, 28);
type = Stem;
},
{
horizontal = 1;
place = (726, 28);
place = (726, 28);
type = Stem;
},
{
place = (91, 31);
place = (91, 31);
type = Stem;
}
);
layerId = m01;
shapes = (
{
closed = 1;
nodes = (
(91,407,ls),
(91,362,o),
(75,337,o),
(28,336,cs),
(24,336,l),
(24,308,l),
(28,308,ls),
(76,307,o),
(91,282,o),
(91,237,cs),
(91,16,ls),
(91,-81,o),
(132,-118,o),
(215,-118,cs),
(223,-118,l),
(223,-90,l),
(216,-90,ls),
(151,-90,o),
(122,-63,o),
(122,16,cs),
(122,239,ls),
(122,285,o),
(109,310,o),
(74,322,c),
(107,334,o),
(122,360,o),
(122,405,cs),
(122,621,ls),
(122,700,o),
(151,726,o),
(216,726,cs),
(223,726,l),
(223,754,l),
(215,754,ls),
(132,754,o),
(91,718,o),
(91,621,cs)
);
}
);
width = 262;
}
);
note = braceleft;
unicode = 123;
},
{
glyphname = bar;
layers = (
{
hints = (
{
horizontal = 1;
place = (-118, 872);
place = (-118, 872);
type = Stem;
},
{
place = (77, 29);
place = (77, 29);
type = Stem;
}
);
layerId = m01;
shapes = (
{
closed = 1;
nodes = (
(77,-118,l),
(106,-118,l),
(106,754,l),
(77,754,l)
);
}
);
width = 183;
}
);
note = bar;
unicode = 124;
},
{
glyphname = braceright;
kernLeft = bracketright;
layers = (
{
hints = (
{
horizontal = 1;
place = (-118, 28);
place = (-118, 28);
type = Stem;
},
{
horizontal = 1;
place = (308, 28);
place = (308, 28);
type = Stem;
},
{
horizontal = 1;
place = (726, 28);
place = (726, 28);
type = Stem;
},
{
place = (140, 31);
place = (140, 31);
type = Stem;
}
);
layerId = m01;
shapes = (
{
closed = 1;
nodes = (
(39,726,l),
(46,726,ls),
(111,726,o),
(140,700,o),
(140,621,cs),
(140,405,ls),
(140,360,o),
(155,334,o),
(188,322,c),
(153,310,o),
(140,285,o),
(140,239,cs),
(140,16,ls),
(140,-63,o),
(111,-90,o),
(46,-90,cs),
(39,-90,l),
(39,-118,l),
(47,-118,ls),
(130,-118,o),
(171,-81,o),
(171,16,cs),
(171,237,ls),
(171,282,o),
(186,307,o),
(234,308,cs),
(238,308,l),
(238,336,l),
(234,336,ls),
(187,337,o),
(171,362,o),
(171,407,cs),
(171,621,ls),
(171,718,o),
(130,754,o),
(47,754,cs),
(39,754,l)
);
}
);
width = 262;
}
);
note = braceright;
unicode = 125;
},
{
glyphname = asciitilde;
layers = (
{
hints = (
{
horizontal = 1;
place = (288, 28);
place = (288, 28);
type = Stem;
},
{
horizontal = 1;
place = (353, 28);
place = (353, 28);
type = Stem;
},
{
place = (37, 28);
place = (37, 28);
type = Stem;
},
{
place = (316, 29);
place = (316, 29);
type = Stem;
}
);
layerId = m01;
shapes = (
{
closed = 1;
nodes = (
(213,302,o),
(234,288,o),
(265,288,cs),
(312,288,o),
(341,322,o),
(345,377,c),
(316,377,l),
(314,338,o),
(295,316,o),
(266,316,cs),
(241,316,o),
(225,328,o),
(199,346,cs),
(171,365,o),
(149,381,o),
(116,381,cs),
(70,381,o),
(41,347,o),
(37,291,c),
(65,291,l),
(68,330,o),
(86,353,o),
(115,353,cs),
(141,353,o),
(160,338,o),
(185,321,cs)
);
}
);
width = 382;
}
);
note = asciitilde;
unicode = 126;
},
{
glyphname = Adieresis;
kernLeft = A;
kernRight = A;
layers = (
{
hints = (
{
horizontal = 1;
place = (0, 21);
target = up;
type = BottomGhost;
},
{
horizontal = 1;
place = (244, 27);
place = (244, 27);
type = Stem;
},
{
horizontal = 1;
place = (677, 38);
place = (677, 38);
type = Stem;
},
{
horizontal = 1;
place = (770, 66);
place = (770, 66);
type = Stem;
},
{
place = (213, 30);
place = (213, 30);
type = Stem;
},
{
place = (361, 30);
place = (361, 30);
type = Stem;
}
);
layerId = m01;
shapes = (
{
closed = 1;
nodes = (
(563,0,l),
(596,0,l),
(320,715,l),
(284,715,l),
(8,0,l),
(41,0,l),
(135,244,l),
(469,244,l)
);
},
{
closed = 1;
nodes = (
(302,677,l),
(303,677,l),
(458,271,l),
(145,271,l)
);
},
{
closed = 1;
nodes = (
(243,836,l),
(213,836,l),
(213,770,l),
(243,770,l)
);
},
{
closed = 1;
nodes = (
(391,836,l),
(361,836,l),
(361,770,l),
(391,770,l)
);
}
);
width = 604;
}
);
note = Adieresis;
unicode = 196;
},
{
glyphname = Aring;
kernLeft = A;
kernRight = A;
layers = (
{
hints = (
{
horizontal = 1;
place = (0, 21);
target = up;
type = BottomGhost;
},
{
horizontal = 1;
place = (244, 27);
place = (244, 27);
type = Stem;
},
{
horizontal = 1;
place = (677, 38);
place = (677, 38);
type = Stem;
},
{
horizontal = 1;
place = (749, 22);
place = (749, 22);
type = Stem;
},
{
horizontal = 1;
place = (888, 22);
place = (888, 22);
type = Stem;
},
{
place = (220, 25);
place = (220, 25);
type = Stem;
},
{
place = (358, 24);
place = (358, 24);
type = Stem;
}
);
layerId = m01;
shapes = (
{
closed = 1;
nodes = (
(563,0,l),
(596,0,l),
(320,715,l),
(284,715,l),
(8,0,l),
(41,0,l),
(135,244,l),
(469,244,l)
);
},
{
closed = 1;
nodes = (
(302,677,l),
(303,677,l),
(458,271,l),
(145,271,l)
);
},
{
closed = 1;
nodes = (
(348,749,o),
(382,783,o),
(382,830,cs),
(382,876,o),
(348,910,o),
(301,910,cs),
(255,910,o),
(220,876,o),
(220,830,cs),
(220,783,o),
(255,749,o),
(301,749,cs)
);
},
{
closed = 1;
nodes = (
(268,771,o),
(245,796,o),
(245,830,cs),
(245,864,o),
(268,888,o),
(301,888,cs),
(335,888,o),
(358,864,o),
(358,830,cs),
(358,796,o),
(335,771,o),
(301,771,cs)
);
}
);
width = 604;
}
);
note = Aring;
unicode = 197;
},
{
glyphname = Ccedilla;
kernLeft = C;
kernRight = C;
layers = (
{
hints = (
{
horizontal = 1;
place = (-155, 21);
target = up;
type = BottomGhost;
},
{
horizontal = 1;
place = (-75, 22);
place = (-75, 22);
type = Stem;
},
{
horizontal = 1;
place = (-11, 29);
place = (-11, 29);
type = Stem;
},
{
horizontal = 1;
place = (698, 28);
place = (698, 28);
type = Stem;
},
{
place = (37, 33);
place = (37, 33);
type = Stem;
},
{
place = (406, 30);
place = (406, 30);
type = Stem;
},
{
horizontal = 1;
place = (-181, 23);
place = (-181, 23);
type = Stem;
}
);
layerId = m01;
shapes = (
{
closed = 1;
nodes = (
(633,514,l),
(611,634,o),
(515,726,o),
(361,726,cs),
(161,726,o),
(37,573,o),
(37,357,cs),
(37,136,o),
(161,-10,o),
(356,-11,c),
(295,-71,l),
(305,-86,l),
(317,-80,o),
(333,-75,o),
(352,-75,cs),
(387,-75,o),
(406,-87,o),
(406,-112,cs),
(406,-144,o),
(378,-158,o),
(337,-158,cs),
(309,-158,o),
(281,-151,o),
(257,-138,c),
(247,-155,l),
(273,-171,o),
(306,-181,o),
(341,-181,cs),
(395,-181,o),
(436,-158,o),
(436,-112,cs),
(436,-75,o),
(406,-52,o),
(357,-53,cs),
(350,-53,o),
(344,-53,o),
(340,-55,c),
(389,-10,l),
(463,-3,o),
(526,28,o),
(568,75,cs),
(612,123,o),
(638,187,o),
(644,256,c),
(615,256,l),
(600,126,o),
(512,18,o),
(358,18,cs),
(175,18,o),
(70,159,o),
(70,357,cs),
(70,551,o),
(173,698,o),
(361,698,cs),
(500,698,o),
(584,613,o),
(601,514,c)
);
}
);
width = 675;
}
);
note = Ccedilla;
unicode = 199;
},
{
glyphname = Eacute;
kernRight = E;
layers = (
{
hints = (
{
horizontal = 1;
place = (0, 29);
place = (0, 29);
type = Stem;
},
{
horizontal = 1;
place = (356, 28);
place = (356, 28);
type = Stem;
},
{
horizontal = 1;
place = (687, 180);
place = (687, 180);
type = Stem;
},
{
place = (65, 31);
place = (65, 31);
type = Stem;
},
{
horizontal = 1;
place = (687, 28);
place = (687, 28);
type = Stem;
}
);
layerId = m01;
shapes = (
{
closed = 1;
nodes = (
(286,755,l),
(314,755,l),
(394,867,l),
(353,867,l)
);
},
{
closed = 1;
nodes = (
(96,687,l),
(535,687,l),
(535,715,l),
(65,715,l),
(65,0,l),
(545,0,l),
(545,29,l),
(96,29,l),
(96,356,l),
(500,356,l),
(500,384,l),
(96,384,l)
);
}
);
width = 582;
}
);
note = Eacute;
unicode = 201;
},
{
glyphname = Ntilde;
layers = (
{
hints = (
{
horizontal = 1;
place = (0, 21);
target = up;
type = BottomGhost;
},
{
horizontal = 1;
place = (715, -20);
target = down;
type = TopGhost;
},
{
horizontal = 1;
place = (818, 27);
place = (818, 27);
type = Stem;
},
{
place = (65, 30);
place = (65, 30);
type = Stem;
},
{
place = (211, 26);
place = (211, 26);
type = Stem;
},
{
place = (448, 26);
place = (448, 26);
type = Stem;
},
{
place = (565, 30);
place = (565, 30);
type = Stem;
},
{
horizontal = 1;
place = (766, 27);
place = (766, 27);
type = Stem;
},
{
horizontal = 1;
place = (0, 52);
place = (0, 52);
type = Stem;
},
{
horizontal = 1;
place = (663, 52);
place = (663, 52);
type = Stem;
}
);
layerId = m01;
shapes = (
{
closed = 1;
nodes = (
(241,845,o),
(214,818,o),
(211,766,c),
(237,766,l),
(240,802,o),
(256,818,o),
(277,818,cs),
(323,818,o),
(354,766,o),
(407,766,cs),
(444,766,o),
(471,792,o),
(474,845,c),
(448,845,l),
(445,809,o),
(429,793,o),
(407,793,cs),
(361,793,o),
(333,845,o),
(278,845,cs)
);
},
{
closed = 1;
nodes = (
(595,715,l),
(565,715,l),
(565,52,l),
(564,52,l),
(100,715,l),
(65,715,l),
(65,0,l),
(95,0,l),
(95,663,l),
(96,663,l),
(562,0,l),
(595,0,l)
);
}
);
width = 660;
}
);
note = Ntilde;
unicode = 209;
},
{
glyphname = Odieresis;
kernLeft = C;
kernRight = O;
layers = (
{
hints = (
{
horizontal = 1;
place = (-10, 29);
place = (-10, 29);
type = Stem;
},
{
horizontal = 1;
place = (697, 29);
place = (697, 29);
type = Stem;
},
{
horizontal = 1;
place = (770, 66);
place = (770, 66);
type = Stem;
},
{
place = (37, 33);
place = (37, 33);
type = Stem;
},
{
place = (277, 30);
place = (277, 30);
type = Stem;
},
{
place = (425, 30);
place = (425, 30);
type = Stem;
},
{
place = (662, 33);
place = (662, 33);
type = Stem;
}
);
layerId = m01;
shapes = (
{
closed = 1;
nodes = (
(307,836,l),
(277,836,l),
(277,770,l),
(307,770,l)
);
},
{
closed = 1;
nodes = (
(455,836,l),
(425,836,l),
(425,770,l),
(455,770,l)
);
},
{
closed = 1;
nodes = (
(559,-10,o),
(695,146,o),
(695,357,cs),
(695,569,o),
(559,726,o),
(365,726,cs),
(171,726,o),
(37,569,o),
(37,357,cs),
(37,145,o),
(171,-10,o),
(365,-10,cs)
);
},
{
closed = 1;
nodes = (
(182,19,o),
(70,169,o),
(70,357,cs),
(70,547,o),
(182,697,o),
(365,697,cs),
(547,697,o),
(662,546,o),
(662,357,cs),
(662,169,o),
(547,19,o),
(365,19,cs)
);
}
);
width = 732;
}
);
note = Odieresis;
unicode = 214;
},
{
glyphname = Udieresis;
kernLeft = U;
kernRight = U;
layers = (
{
hints = (
{
horizontal = 1;
place = (-10, 28);
place = (-10, 28);
type = Stem;
},
{
horizontal = 1;
place = (715, -20);
target = down;
type = TopGhost;
},
{
horizontal = 1;
place = (770, 66);
place = (770, 66);
type = Stem;
},
{
place = (55, 32);
place = (55, 32);
type = Stem;
},
{
place = (224, 30);
place = (224, 30);
type = Stem;
},
{
place = (372, 30);
place = (372, 30);
type = Stem;
},
{
place = (537, 32);
place = (537, 32);
type = Stem;
}
);
layerId = m01;
shapes = (
{
closed = 1;
nodes = (
(254,836,l),
(224,836,l),
(224,770,l),
(254,770,l)
);
},
{
closed = 1;
nodes = (
(402,836,l),
(372,836,l),
(372,770,l),
(402,770,l)
);
},
{
closed = 1;
nodes = (
(55,715,l),
(55,231,ls),
(55,62,o),
(162,-10,o),
(311,-10,cs),
(457,-10,o),
(569,60,o),
(569,231,cs),
(569,715,l),
(537,715,l),
(537,233,ls),
(537,77,o),
(440,18,o),
(312,18,cs),
(179,18,o),
(87,77,o),
(87,233,cs),
(87,715,l)
);
}
);
width = 624;
}
);
note = Udieresis;
unicode = 220;
},
{
glyphname = aacute;
kernLeft = a;
kernRight = a;
layers = (
{
hints = (
{
horizontal = 1;
place = (-6, 25);
place = (-6, 25);
type = Stem;
},
{
horizontal = 1;
place = (499, 27);
place = (499, 27);
type = Stem;
},
{
horizontal = 1;
place = (721, -20);
target = down;
type = TopGhost;
},
{
place = (47, 31);
place = (47, 31);
type = Stem;
},
{
place = (387, 30);
place = (387, 30);
type = Stem;
},
{
horizontal = 1;
place = (-10, 26);
place = (-10, 26);
type = Stem;
},
{
place = (24, 30);
place = (24, 30);
type = Stem;
},
{
horizontal = 1;
place = (597, 124);
place = (597, 124);
type = Stem;
}
);
layerId = m01;
shapes = (
{
closed = 1;
nodes = (
(465,-6,o),
(478,-2,o),
(485,2,c),
(485,26,l),
(482,26,l),
(475,23,o),
(465,19,o),
(455,19,cs),
(432,19,o),
(417,30,o),
(417,68,cs),
(417,369,ls),
(417,471,o),
(358,526,o),
(243,526,cs),
(111,526,o),
(54,460,o),
(47,368,c),
(78,368,l),
(85,458,o),
(142,499,o),
(243,499,cs),
(339,499,o),
(387,455,o),
(387,370,cs),
(387,362,ls),
(387,307,o),
(351,296,o),
(224,282,cs),
(116,269,o),
(24,243,o),
(24,130,cs),
(24,42,o),
(91,-10,o),
(189,-10,cs),
(292,-10,o),
(360,42,o),
(385,100,c),
(387,100,l),
(387,65,ls),
(387,23,o),
(404,-6,o),
(449,-6,cs)
);
},
{
closed = 1;
nodes = (
(124,16,o),
(54,46,o),
(54,129,cs),
(54,223,o),
(122,244,o),
(230,257,cs),
(321,268,o),
(362,281,o),
(387,301,c),
(387,185,ls),
(387,89,o),
(307,16,o),
(191,16,cs)
);
},
{
closed = 1;
nodes = (
(217,597,l),
(245,597,l),
(326,721,l),
(286,721,l)
);
}
);
width = 490;
}
);
note = aacute;
unicode = 225;
},
{
glyphname = agrave;
kernLeft = a;
kernRight = a;
layers = (
{
hints = (
{
horizontal = 1;
place = (-6, 25);
place = (-6, 25);
type = Stem;
},
{
horizontal = 1;
place = (499, 27);
place = (499, 27);
type = Stem;
},
{
horizontal = 1;
place = (721, -20);
target = down;
type = TopGhost;
},
{
place = (47, 31);
place = (47, 31);
type = Stem;
},
{
place = (387, 30);
place = (387, 30);
type = Stem;
},
{
horizontal = 1;
place = (-10, 26);
place = (-10, 26);
type = Stem;
},
{
place = (24, 30);
place = (24, 30);
type = Stem;
},
{
horizontal = 1;
place = (597, 124);
place = (597, 124);
type = Stem;
}
);
layerId = m01;
shapes = (
{
closed = 1;
nodes = (
(465,-6,o),
(478,-2,o),
(485,2,c),
(485,26,l),
(482,26,l),
(475,23,o),
(465,19,o),
(455,19,cs),
(432,19,o),
(417,30,o),
(417,68,cs),
(417,369,ls),
(417,471,o),
(358,526,o),
(243,526,cs),
(111,526,o),
(54,460,o),
(47,368,c),
(78,368,l),
(85,458,o),
(142,499,o),
(243,499,cs),
(339,499,o),
(387,455,o),
(387,370,cs),
(387,362,ls),
(387,307,o),
(351,296,o),
(224,282,cs),
(116,269,o),
(24,243,o),
(24,130,cs),
(24,42,o),
(91,-10,o),
(189,-10,cs),
(292,-10,o),
(360,42,o),
(385,100,c),
(387,100,l),
(387,65,ls),
(387,23,o),
(404,-6,o),
(449,-6,cs)
);
},
{
closed = 1;
nodes = (
(124,16,o),
(54,46,o),
(54,129,cs),
(54,223,o),
(122,244,o),
(230,257,cs),
(321,268,o),
(362,281,o),
(387,301,c),
(387,185,ls),
(387,89,o),
(307,16,o),
(191,16,cs)
);
},
{
closed = 1;
nodes = (
(190,721,l),
(150,721,l),
(233,597,l),
(262,597,l)
);
}
);
width = 490;
}
);
note = agrave;
unicode = 224;
},
{
glyphname = acircumflex;
kernLeft = a;
kernRight = a;
layers = (
{
hints = (
{
horizontal = 1;
place = (-6, 25);
place = (-6, 25);
type = Stem;
},
{
horizontal = 1;
place = (499, 27);
place = (499, 27);
type = Stem;
},
{
horizontal = 1;
place = (683, 21);
place = (683, 21);
type = Stem;
},
{
place = (47, 31);
place = (47, 31);
type = Stem;
},
{
place = (387, 30);
place = (387, 30);
type = Stem;
},
{
horizontal = 1;
place = (-10, 26);
place = (-10, 26);
type = Stem;
},
{
place = (24, 30);
place = (24, 30);
type = Stem;
}
);
layerId = m01;
shapes = (
{
closed = 1;
nodes = (
(465,-6,o),
(478,-2,o),
(485,2,c),
(485,26,l),
(482,26,l),
(475,23,o),
(465,19,o),
(455,19,cs),
(432,19,o),
(417,30,o),
(417,68,cs),
(417,369,ls),
(417,471,o),
(358,526,o),
(243,526,cs),
(111,526,o),
(54,460,o),
(47,368,c),
(78,368,l),
(85,458,o),
(142,499,o),
(243,499,cs),
(339,499,o),
(387,455,o),
(387,370,cs),
(387,362,ls),
(387,307,o),
(351,296,o),
(224,282,cs),
(116,269,o),
(24,243,o),
(24,130,cs),
(24,42,o),
(91,-10,o),
(189,-10,cs),
(292,-10,o),
(360,42,o),
(385,100,c),
(387,100,l),
(387,65,ls),
(387,23,o),
(404,-6,o),
(449,-6,cs)
);
},
{
closed = 1;
nodes = (
(124,16,o),
(54,46,o),
(54,129,cs),
(54,223,o),
(122,244,o),
(230,257,cs),
(321,268,o),
(362,281,o),
(387,301,c),
(387,185,ls),
(387,89,o),
(307,16,o),
(191,16,cs)
);
},
{
closed = 1;
nodes = (
(253,704,l),
(216,704,l),
(129,599,l),
(162,599,l),
(234,683,l),
(235,683,l),
(306,599,l),
(341,599,l)
);
}
);
width = 490;
}
);
note = acircumflex;
unicode = 226;
},
{
glyphname = adieresis;
kernLeft = a;
kernRight = a;
layers = (
{
hints = (
{
horizontal = 1;
place = (-6, 25);
place = (-6, 25);
type = Stem;
},
{
horizontal = 1;
place = (499, 27);
place = (499, 27);
type = Stem;
},
{
horizontal = 1;
place = (644, 65);
place = (644, 65);
type = Stem;
},
{
place = (47, 31);
place = (47, 31);
type = Stem;
},
{
place = (152, 30);
place = (152, 30);
type = Stem;
},
{
place = (300, 30);
place = (300, 30);
type = Stem;
},
{
place = (387, 30);
place = (387, 30);
type = Stem;
},
{
horizontal = 1;
place = (-10, 26);
place = (-10, 26);
type = Stem;
},
{
place = (24, 30);
place = (24, 30);
type = Stem;
}
);
layerId = m01;
shapes = (
{
closed = 1;
nodes = (
(465,-6,o),
(478,-2,o),
(485,2,c),
(485,26,l),
(482,26,l),
(475,23,o),
(465,19,o),
(455,19,cs),
(432,19,o),
(417,30,o),
(417,68,cs),
(417,369,ls),
(417,471,o),
(358,526,o),
(243,526,cs),
(111,526,o),
(54,460,o),
(47,368,c),
(78,368,l),
(85,458,o),
(142,499,o),
(243,499,cs),
(339,499,o),
(387,455,o),
(387,370,cs),
(387,362,ls),
(387,307,o),
(351,296,o),
(224,282,cs),
(116,269,o),
(24,243,o),
(24,130,cs),
(24,42,o),
(91,-10,o),
(189,-10,cs),
(292,-10,o),
(360,42,o),
(385,100,c),
(387,100,l),
(387,65,ls),
(387,23,o),
(404,-6,o),
(449,-6,cs)
);
},
{
closed = 1;
nodes = (
(124,16,o),
(54,46,o),
(54,129,cs),
(54,223,o),
(122,244,o),
(230,257,cs),
(321,268,o),
(362,281,o),
(387,301,c),
(387,185,ls),
(387,89,o),
(307,16,o),
(191,16,cs)
);
},
{
closed = 1;
nodes = (
(182,709,l),
(152,709,l),
(152,644,l),
(182,644,l)
);
},
{
closed = 1;
nodes = (
(330,709,l),
(300,709,l),
(300,644,l),
(330,644,l)
);
}
);
width = 490;
}
);
note = adieresis;
unicode = 228;
},
{
glyphname = atilde;
kernLeft = a;
kernRight = a;
layers = (
{
hints = (
{
horizontal = 1;
place = (-6, 25);
place = (-6, 25);
type = Stem;
},
{
horizontal = 1;
place = (499, 27);
place = (499, 27);
type = Stem;
},
{
horizontal = 1;
place = (659, 27);
place = (659, 27);
type = Stem;
},
{
place = (47, 31);
place = (47, 31);
type = Stem;
},
{
place = (107, 26);
place = (107, 26);
type = Stem;
},
{
place = (387, 30);
place = (387, 30);
type = Stem;
},
{
horizontal = 1;
place = (-10, 26);
place = (-10, 26);
type = Stem;
},
{
place = (24, 30);
place = (24, 30);
type = Stem;
},
{
place = (344, 26);
place = (344, 26);
type = Stem;
},
{
horizontal = 1;
place = (607, 27);
place = (607, 27);
type = Stem;
}
);
layerId = m01;
shapes = (
{
closed = 1;
nodes = (
(465,-6,o),
(478,-2,o),
(485,2,c),
(485,26,l),
(482,26,l),
(475,23,o),
(465,19,o),
(455,19,cs),
(432,19,o),
(417,30,o),
(417,68,cs),
(417,369,ls),
(417,471,o),
(358,526,o),
(243,526,cs),
(111,526,o),
(54,460,o),
(47,368,c),
(78,368,l),
(85,458,o),
(142,499,o),
(243,499,cs),
(339,499,o),
(387,455,o),
(387,370,cs),
(387,362,ls),
(387,307,o),
(351,296,o),
(224,282,cs),
(116,269,o),
(24,243,o),
(24,130,cs),
(24,42,o),
(91,-10,o),
(189,-10,cs),
(292,-10,o),
(360,42,o),
(385,100,c),
(387,100,l),
(387,65,ls),
(387,23,o),
(404,-6,o),
(449,-6,cs)
);
},
{
closed = 1;
nodes = (
(124,16,o),
(54,46,o),
(54,129,cs),
(54,223,o),
(122,244,o),
(230,257,cs),
(321,268,o),
(362,281,o),
(387,301,c),
(387,185,ls),
(387,89,o),
(307,16,o),
(191,16,cs)
);
},
{
closed = 1;
nodes = (
(137,686,o),
(110,659,o),
(107,607,c),
(133,607,l),
(136,643,o),
(152,659,o),
(173,659,cs),
(219,659,o),
(250,607,o),
(303,607,cs),
(340,607,o),
(367,633,o),
(370,686,c),
(344,686,l),
(341,650,o),
(325,634,o),
(303,634,cs),
(257,634,o),
(229,686,o),
(174,686,cs)
);
}
);
width = 490;
}
);
note = atilde;
unicode = 227;
},
{
glyphname = aring;
kernLeft = a;
kernRight = a;
layers = (
{
hints = (
{
horizontal = 1;
place = (-6, 25);
place = (-6, 25);
type = Stem;
},
{
horizontal = 1;
place = (499, 27);
place = (499, 27);
type = Stem;
},
{
horizontal = 1;
place = (571, 22);
place = (571, 22);
type = Stem;
},
{
horizontal = 1;
place = (710, 22);
place = (710, 22);
type = Stem;
},
{
place = (47, 31);
place = (47, 31);
type = Stem;
},
{
place = (159, 25);
place = (159, 25);
type = Stem;
},
{
place = (296, 25);
place = (296, 25);
type = Stem;
},
{
place = (387, 30);
place = (387, 30);
type = Stem;
},
{
horizontal = 1;
place = (-10, 26);
place = (-10, 26);
type = Stem;
},
{
place = (24, 30);
place = (24, 30);
type = Stem;
}
);
layerId = m01;
shapes = (
{
closed = 1;
nodes = (
(465,-6,o),
(478,-2,o),
(485,2,c),
(485,26,l),
(482,26,l),
(475,23,o),
(465,19,o),
(455,19,cs),
(432,19,o),
(417,30,o),
(417,68,cs),
(417,369,ls),
(417,471,o),
(358,526,o),
(243,526,cs),
(111,526,o),
(54,460,o),
(47,368,c),
(78,368,l),
(85,458,o),
(142,499,o),
(243,499,cs),
(339,499,o),
(387,455,o),
(387,370,cs),
(387,362,ls),
(387,307,o),
(351,296,o),
(224,282,cs),
(116,269,o),
(24,243,o),
(24,130,cs),
(24,42,o),
(91,-10,o),
(189,-10,cs),
(292,-10,o),
(360,42,o),
(385,100,c),
(387,100,l),
(387,65,ls),
(387,23,o),
(404,-6,o),
(449,-6,cs)
);
},
{
closed = 1;
nodes = (
(124,16,o),
(54,46,o),
(54,129,cs),
(54,223,o),
(122,244,o),
(230,257,cs),
(321,268,o),
(362,281,o),
(387,301,c),
(387,185,ls),
(387,89,o),
(307,16,o),
(191,16,cs)
);
},
{
closed = 1;
nodes = (
(286,571,o),
(321,605,o),
(321,652,cs),
(321,698,o),
(286,732,o),
(240,732,cs),
(194,732,o),
(159,698,o),
(159,652,cs),
(159,605,o),
(194,571,o),
(240,571,cs)
);
},
{
closed = 1;
nodes = (
(206,593,o),
(184,618,o),
(184,652,cs),
(184,685,o),
(206,710,o),
(240,710,cs),
(274,710,o),
(296,685,o),
(296,652,cs),
(296,618,o),
(274,593,o),
(240,593,cs)
);
}
);
width = 490;
}
);
note = aring;
unicode = 229;
},
{
glyphname = ccedilla;
kernLeft = c;
kernRight = c;
layers = (
{
hints = (
{
horizontal = 1;
place = (-155, 21);
target = up;
type = BottomGhost;
},
{
horizontal = 1;
place = (-75, 22);
place = (-75, 22);
type = Stem;
},
{
horizontal = 1;
place = (-10, 27);
place = (-10, 27);
type = Stem;
},
{
horizontal = 1;
place = (499, 27);
place = (499, 27);
type = Stem;
},
{
place = (26, 30);
place = (26, 30);
type = Stem;
},
{
place = (301, 30);
place = (301, 30);
type = Stem;
},
{
horizontal = 1;
place = (-181, 23);
place = (-181, 23);
type = Stem;
}
);
layerId = m01;
shapes = (
{
closed = 1;
nodes = (
(443,174,l),
(430,78,o),
(364,17,o),
(258,17,cs),
(136,17,o),
(56,116,o),
(56,259,cs),
(56,403,o),
(136,499,o),
(258,499,cs),
(346,499,o),
(417,459,o),
(438,364,c),
(468,364,l),
(449,467,o),
(371,526,o),
(258,526,cs),
(110,526,o),
(26,408,o),
(26,259,cs),
(26,112,o),
(108,-7,o),
(253,-10,c),
(190,-71,l),
(200,-86,l),
(212,-80,o),
(228,-75,o),
(247,-75,cs),
(282,-75,o),
(301,-87,o),
(301,-112,cs),
(301,-144,o),
(273,-158,o),
(232,-158,cs),
(204,-158,o),
(176,-151,o),
(152,-138,c),
(142,-155,l),
(168,-171,o),
(201,-181,o),
(236,-181,cs),
(290,-181,o),
(331,-158,o),
(331,-112,cs),
(331,-75,o),
(301,-52,o),
(252,-53,cs),
(245,-53,o),
(239,-53,o),
(235,-55,c),
(285,-9,l),
(396,1,o),
(460,75,o),
(472,174,c)
);
}
);
width = 491;
}
);
note = ccedilla;
unicode = 231;
},
{
glyphname = eacute;
kernLeft = c;
kernRight = e;
layers = (
{
hints = (
{
horizontal = 1;
place = (-10, 27);
place = (-10, 27);
type = Stem;
},
{
horizontal = 1;
place = (260, 25);
place = (260, 25);
type = Stem;
},
{
horizontal = 1;
place = (499, 27);
place = (499, 27);
type = Stem;
},
{
horizontal = 1;
place = (597, 124);
place = (597, 124);
type = Stem;
},
{
place = (26, 30);
place = (26, 30);
type = Stem;
},
{
place = (444, 31);
place = (444, 31);
type = Stem;
}
);
layerId = m01;
shapes = (
{
closed = 1;
nodes = (
(227,597,l),
(255,597,l),
(336,721,l),
(296,721,l)
);
},
{
closed = 1;
nodes = (
(475,260,l),
(473,356,o),
(447,432,o),
(390,480,cs),
(356,509,o),
(311,526,o),
(257,526,cs),
(113,526,o),
(26,412,o),
(26,262,cs),
(26,105,o),
(108,-10,o),
(261,-10,cs),
(379,-10,o),
(449,62,o),
(469,152,c),
(439,152,l),
(415,67,o),
(355,17,o),
(261,17,cs),
(127,17,o),
(57,120,o),
(56,260,c)
);
},
{
closed = 1;
nodes = (
(57,285,l),
(64,415,o),
(144,499,o),
(257,499,cs),
(363,499,o),
(436,423,o),
(444,285,c)
);
}
);
width = 499;
}
);
note = eacute;
unicode = 233;
},
{
glyphname = egrave;
kernLeft = c;
kernRight = e;
layers = (
{
hints = (
{
horizontal = 1;
place = (-10, 27);
place = (-10, 27);
type = Stem;
},
{
horizontal = 1;
place = (260, 25);
place = (260, 25);
type = Stem;
},
{
horizontal = 1;
place = (499, 27);
place = (499, 27);
type = Stem;
},
{
horizontal = 1;
place = (721, -20);
target = down;
type = TopGhost;
},
{
place = (26, 30);
place = (26, 30);
type = Stem;
},
{
place = (444, 31);
place = (444, 31);
type = Stem;
},
{
horizontal = 1;
place = (597, 124);
place = (597, 124);
type = Stem;
}
);
layerId = m01;
shapes = (
{
closed = 1;
nodes = (
(475,260,l),
(473,356,o),
(447,432,o),
(390,480,cs),
(356,509,o),
(311,526,o),
(257,526,cs),
(113,526,o),
(26,412,o),
(26,262,cs),
(26,105,o),
(108,-10,o),
(261,-10,cs),
(379,-10,o),
(449,62,o),
(469,152,c),
(439,152,l),
(415,67,o),
(355,17,o),
(261,17,cs),
(127,17,o),
(57,120,o),
(56,260,c)
);
},
{
closed = 1;
nodes = (
(57,285,l),
(64,415,o),
(144,499,o),
(257,499,cs),
(363,499,o),
(436,423,o),
(444,285,c)
);
},
{
closed = 1;
nodes = (
(203,721,l),
(163,721,l),
(246,597,l),
(275,597,l)
);
}
);
width = 499;
}
);
note = egrave;
unicode = 232;
},
{
glyphname = ecircumflex;
kernLeft = c;
kernRight = e;
layers = (
{
hints = (
{
horizontal = 1;
place = (-10, 27);
place = (-10, 27);
type = Stem;
},
{
horizontal = 1;
place = (260, 25);
place = (260, 25);
type = Stem;
},
{
horizontal = 1;
place = (499, 27);
place = (499, 27);
type = Stem;
},
{
horizontal = 1;
place = (683, 21);
place = (683, 21);
type = Stem;
},
{
place = (26, 30);
place = (26, 30);
type = Stem;
},
{
place = (444, 31);
place = (444, 31);
type = Stem;
}
);
layerId = m01;
shapes = (
{
closed = 1;
nodes = (
(274,704,l),
(237,704,l),
(150,599,l),
(183,599,l),
(255,683,l),
(256,683,l),
(327,599,l),
(362,599,l)
);
},
{
closed = 1;
nodes = (
(475,260,l),
(473,356,o),
(447,432,o),
(390,480,cs),
(356,509,o),
(311,526,o),
(257,526,cs),
(113,526,o),
(26,412,o),
(26,262,cs),
(26,105,o),
(108,-10,o),
(261,-10,cs),
(379,-10,o),
(449,62,o),
(469,152,c),
(439,152,l),
(415,67,o),
(355,17,o),
(261,17,cs),
(127,17,o),
(57,120,o),
(56,260,c)
);
},
{
closed = 1;
nodes = (
(57,285,l),
(64,415,o),
(144,499,o),
(257,499,cs),
(363,499,o),
(436,423,o),
(444,285,c)
);
}
);
width = 499;
}
);
note = ecircumflex;
unicode = 234;
},
{
glyphname = edieresis;
kernLeft = c;
kernRight = e;
layers = (
{
hints = (
{
horizontal = 1;
place = (-10, 27);
place = (-10, 27);
type = Stem;
},
{
horizontal = 1;
place = (260, 25);
place = (260, 25);
type = Stem;
},
{
horizontal = 1;
place = (499, 27);
place = (499, 27);
type = Stem;
},
{
horizontal = 1;
place = (644, 65);
place = (644, 65);
type = Stem;
},
{
place = (26, 30);
place = (26, 30);
type = Stem;
},
{
place = (166, 30);
place = (166, 30);
type = Stem;
},
{
place = (314, 30);
place = (314, 30);
type = Stem;
},
{
place = (444, 31);
place = (444, 31);
type = Stem;
}
);
layerId = m01;
shapes = (
{
closed = 1;
nodes = (
(196,709,l),
(166,709,l),
(166,644,l),
(196,644,l)
);
},
{
closed = 1;
nodes = (
(344,709,l),
(314,709,l),
(314,644,l),
(344,644,l)
);
},
{
closed = 1;
nodes = (
(475,260,l),
(473,356,o),
(447,432,o),
(390,480,cs),
(356,509,o),
(311,526,o),
(257,526,cs),
(113,526,o),
(26,412,o),
(26,262,cs),
(26,105,o),
(108,-10,o),
(261,-10,cs),
(379,-10,o),
(449,62,o),
(469,152,c),
(439,152,l),
(415,67,o),
(355,17,o),
(261,17,cs),
(127,17,o),
(57,120,o),
(56,260,c)
);
},
{
closed = 1;
nodes = (
(57,285,l),
(64,415,o),
(144,499,o),
(257,499,cs),
(363,499,o),
(436,423,o),
(444,285,c)
);
}
);
width = 499;
}
);
note = edieresis;
unicode = 235;
},
{
glyphname = iacute;
kernLeft = b;
layers = (
{
hints = (
{
horizontal = 1;
place = (0, 21);
target = up;
type = BottomGhost;
},
{
horizontal = 1;
place = (517, -20);
target = down;
type = TopGhost;
},
{
horizontal = 1;
place = (721, -20);
target = down;
type = TopGhost;
},
{
place = (54, 30);
place = (54, 30);
type = Stem;
},
{
horizontal = 1;
place = (597, 124);
place = (597, 124);
type = Stem;
}
);
layerId = m01;
shapes = (
{
closed = 1;
nodes = (
(84,517,l),
(54,517,l),
(54,0,l),
(84,0,l)
);
},
{
closed = 1;
nodes = (
(58,597,l),
(86,597,l),
(164,721,l),
(125,721,l)
);
}
);
width = 138;
}
);
note = iacute;
unicode = 237;
},
{
glyphname = igrave;
kernLeft = b;
layers = (
{
hints = (
{
horizontal = 1;
place = (0, 21);
target = up;
type = BottomGhost;
},
{
horizontal = 1;
place = (517, -20);
target = down;
type = TopGhost;
},
{
horizontal = 1;
place = (721, -20);
target = down;
type = TopGhost;
},
{
place = (61, 30);
place = (61, 30);
type = Stem;
},
{
horizontal = 1;
place = (597, 124);
place = (597, 124);
type = Stem;
}
);
layerId = m01;
shapes = (
{
closed = 1;
nodes = (
(91,517,l),
(61,517,l),
(61,0,l),
(91,0,l)
);
},
{
closed = 1;
nodes = (
(24,721,l),
(-14,721,l),
(62,597,l),
(90,597,l)
);
}
);
width = 138;
}
);
note = igrave;
unicode = 236;
},
{
glyphname = icircumflex;
kernLeft = b;
layers = (
{
hints = (
{
horizontal = 1;
place = (0, 21);
target = up;
type = BottomGhost;
},
{
horizontal = 1;
place = (517, -20);
target = down;
type = TopGhost;
},
{
horizontal = 1;
place = (683, 21);
place = (683, 21);
type = Stem;
},
{
place = (55, 30);
place = (55, 30);
type = Stem;
}
);
layerId = m01;
shapes = (
{
closed = 1;
nodes = (
(85,517,l),
(55,517,l),
(55,0,l),
(85,0,l)
);
},
{
closed = 1;
nodes = (
(88,704,l),
(51,704,l),
(-23,599,l),
(8,599,l),
(68,683,l),
(69,683,l),
(129,599,l),
(162,599,l)
);
}
);
width = 138;
}
);
note = icircumflex;
unicode = 238;
},
{
glyphname = idieresis;
kernLeft = b;
layers = (
{
hints = (
{
horizontal = 1;
place = (0, 21);
target = up;
type = BottomGhost;
},
{
horizontal = 1;
place = (517, -20);
target = down;
type = TopGhost;
},
{
horizontal = 1;
place = (644, 65);
place = (644, 65);
type = Stem;
},
{
place = (46, 31);
place = (46, 31);
type = Stem;
}
);
layerId = m01;
shapes = (
{
closed = 1;
nodes = (
(25,709,l),
(-6,709,l),
(-6,644,l),
(25,644,l)
);
},
{
closed = 1;
nodes = (
(129,709,l),
(98,709,l),
(98,644,l),
(129,644,l)
);
},
{
closed = 1;
nodes = (
(77,517,l),
(46,517,l),
(46,0,l),
(77,0,l)
);
}
);
width = 138;
}
);
note = idieresis;
unicode = 239;
},
{
glyphname = ntilde;
kernLeft = m;
kernRight = h;
layers = (
{
hints = (
{
horizontal = 1;
place = (0, 21);
target = up;
type = BottomGhost;
},
{
horizontal = 1;
place = (517, -20);
target = down;
type = TopGhost;
},
{
horizontal = 1;
place = (659, 27);
place = (659, 27);
type = Stem;
},
{
place = (53, 30);
place = (53, 30);
type = Stem;
},
{
place = (402, 30);
place = (402, 30);
type = Stem;
},
{
horizontal = 1;
place = (498, 27);
place = (498, 27);
type = Stem;
},
{
place = (112, 26);
place = (112, 26);
type = Stem;
},
{
place = (349, 26);
place = (349, 26);
type = Stem;
},
{
horizontal = 1;
place = (607, 27);
place = (607, 27);
type = Stem;
}
);
layerId = m01;
shapes = (
{
closed = 1;
nodes = (
(83,517,l),
(53,517,l),
(53,0,l),
(83,0,l),
(83,347,ls),
(83,425,o),
(160,498,o),
(266,498,cs),
(350,498,o),
(402,455,o),
(402,367,cs),
(402,0,l),
(432,0,l),
(432,370,ls),
(432,462,o),
(373,525,o),
(271,525,cs),
(173,525,o),
(115,476,o),
(85,424,c),
(83,424,l)
);
},
{
closed = 1;
nodes = (
(142,686,o),
(115,659,o),
(112,607,c),
(138,607,l),
(141,643,o),
(157,659,o),
(178,659,cs),
(224,659,o),
(255,607,o),
(308,607,cs),
(345,607,o),
(372,633,o),
(375,686,c),
(349,686,l),
(346,650,o),
(330,634,o),
(308,634,cs),
(262,634,o),
(234,686,o),
(179,686,cs)
);
}
);
width = 482;
}
);
note = ntilde;
unicode = 241;
},
{
glyphname = oacute;
kernLeft = c;
kernRight = o;
layers = (
{
hints = (
{
horizontal = 1;
place = (-10, 26);
place = (-10, 26);
type = Stem;
},
{
horizontal = 1;
place = (500, 26);
place = (500, 26);
type = Stem;
},
{
horizontal = 1;
place = (597, 124);
place = (597, 124);
type = Stem;
},
{
place = (26, 30);
place = (26, 30);
type = Stem;
},
{
place = (465, 31);
place = (465, 31);
type = Stem;
}
);
layerId = m01;
shapes = (
{
closed = 1;
nodes = (
(231,597,l),
(259,597,l),
(340,721,l),
(300,721,l)
);
},
{
closed = 1;
nodes = (
(409,-10,o),
(496,110,o),
(496,259,cs),
(496,408,o),
(409,526,o),
(261,526,cs),
(114,526,o),
(26,407,o),
(26,259,cs),
(26,110,o),
(114,-10,o),
(261,-10,cs)
);
},
{
closed = 1;
nodes = (
(142,16,o),
(56,114,o),
(56,259,cs),
(56,403,o),
(142,500,o),
(261,500,cs),
(380,500,o),
(465,404,o),
(465,259,cs),
(465,114,o),
(380,16,o),
(261,16,cs)
);
}
);
width = 522;
}
);
note = oacute;
unicode = 243;
},
{
glyphname = ograve;
kernLeft = c;
kernRight = o;
layers = (
{
hints = (
{
horizontal = 1;
place = (-10, 26);
place = (-10, 26);
type = Stem;
},
{
horizontal = 1;
place = (500, 26);
place = (500, 26);
type = Stem;
},
{
horizontal = 1;
place = (721, -20);
target = down;
type = TopGhost;
},
{
place = (26, 30);
place = (26, 30);
type = Stem;
},
{
place = (465, 31);
place = (465, 31);
type = Stem;
},
{
horizontal = 1;
place = (597, 124);
place = (597, 124);
type = Stem;
}
);
layerId = m01;
shapes = (
{
closed = 1;
nodes = (
(409,-10,o),
(496,110,o),
(496,259,cs),
(496,408,o),
(409,526,o),
(261,526,cs),
(114,526,o),
(26,407,o),
(26,259,cs),
(26,110,o),
(114,-10,o),
(261,-10,cs)
);
},
{
closed = 1;
nodes = (
(142,16,o),
(56,114,o),
(56,259,cs),
(56,403,o),
(142,500,o),
(261,500,cs),
(380,500,o),
(465,404,o),
(465,259,cs),
(465,114,o),
(380,16,o),
(261,16,cs)
);
},
{
closed = 1;
nodes = (
(206,721,l),
(166,721,l),
(249,597,l),
(278,597,l)
);
}
);
width = 522;
}
);
note = ograve;
unicode = 242;
},
{
glyphname = ocircumflex;
kernLeft = c;
kernRight = o;
layers = (
{
hints = (
{
horizontal = 1;
place = (-10, 26);
place = (-10, 26);
type = Stem;
},
{
horizontal = 1;
place = (500, 26);
place = (500, 26);
type = Stem;
},
{
horizontal = 1;
place = (683, 21);
place = (683, 21);
type = Stem;
},
{
place = (26, 30);
place = (26, 30);
type = Stem;
},
{
place = (465, 31);
place = (465, 31);
type = Stem;
}
);
layerId = m01;
shapes = (
{
closed = 1;
nodes = (
(280,704,l),
(243,704,l),
(156,599,l),
(189,599,l),
(261,683,l),
(262,683,l),
(333,599,l),
(368,599,l)
);
},
{
closed = 1;
nodes = (
(409,-10,o),
(496,110,o),
(496,259,cs),
(496,408,o),
(409,526,o),
(261,526,cs),
(114,526,o),
(26,407,o),
(26,259,cs),
(26,110,o),
(114,-10,o),
(261,-10,cs)
);
},
{
closed = 1;
nodes = (
(142,16,o),
(56,114,o),
(56,259,cs),
(56,403,o),
(142,500,o),
(261,500,cs),
(380,500,o),
(465,404,o),
(465,259,cs),
(465,114,o),
(380,16,o),
(261,16,cs)
);
}
);
width = 522;
}
);
note = ocircumflex;
unicode = 244;
},
{
glyphname = odieresis;
kernLeft = c;
kernRight = o;
layers = (
{
hints = (
{
horizontal = 1;
place = (-10, 26);
place = (-10, 26);
type = Stem;
},
{
horizontal = 1;
place = (500, 26);
place = (500, 26);
type = Stem;
},
{
horizontal = 1;
place = (644, 65);
place = (644, 65);
type = Stem;
},
{
place = (26, 30);
place = (26, 30);
type = Stem;
},
{
place = (171, 30);
place = (171, 30);
type = Stem;
},
{
place = (319, 30);
place = (319, 30);
type = Stem;
},
{
place = (465, 31);
place = (465, 31);
type = Stem;
}
);
layerId = m01;
shapes = (
{
closed = 1;
nodes = (
(201,709,l),
(171,709,l),
(171,644,l),
(201,644,l)
);
},
{
closed = 1;
nodes = (
(349,709,l),
(319,709,l),
(319,644,l),
(349,644,l)
);
},
{
closed = 1;
nodes = (
(409,-10,o),
(496,110,o),
(496,259,cs),
(496,408,o),
(409,526,o),
(261,526,cs),
(114,526,o),
(26,407,o),
(26,259,cs),
(26,110,o),
(114,-10,o),
(261,-10,cs)
);
},
{
closed = 1;
nodes = (
(142,16,o),
(56,114,o),
(56,259,cs),
(56,403,o),
(142,500,o),
(261,500,cs),
(380,500,o),
(465,404,o),
(465,259,cs),
(465,114,o),
(380,16,o),
(261,16,cs)
);
}
);
width = 522;
}
);
note = odieresis;
unicode = 246;
},
{
glyphname = otilde;
kernLeft = c;
kernRight = o;
layers = (
{
hints = (
{
horizontal = 1;
place = (-10, 26);
place = (-10, 26);
type = Stem;
},
{
horizontal = 1;
place = (500, 26);
place = (500, 26);
type = Stem;
},
{
horizontal = 1;
place = (659, 27);
place = (659, 27);
type = Stem;
},
{
place = (26, 30);
place = (26, 30);
type = Stem;
},
{
place = (131, 26);
place = (131, 26);
type = Stem;
},
{
place = (368, 26);
place = (368, 26);
type = Stem;
},
{
place = (465, 31);
place = (465, 31);
type = Stem;
},
{
horizontal = 1;
place = (607, 27);
place = (607, 27);
type = Stem;
}
);
layerId = m01;
shapes = (
{
closed = 1;
nodes = (
(409,-10,o),
(496,110,o),
(496,259,cs),
(496,408,o),
(409,526,o),
(261,526,cs),
(114,526,o),
(26,407,o),
(26,259,cs),
(26,110,o),
(114,-10,o),
(261,-10,cs)
);
},
{
closed = 1;
nodes = (
(142,16,o),
(56,114,o),
(56,259,cs),
(56,403,o),
(142,500,o),
(261,500,cs),
(380,500,o),
(465,404,o),
(465,259,cs),
(465,114,o),
(380,16,o),
(261,16,cs)
);
},
{
closed = 1;
nodes = (
(161,686,o),
(134,659,o),
(131,607,c),
(157,607,l),
(160,643,o),
(176,659,o),
(197,659,cs),
(243,659,o),
(274,607,o),
(327,607,cs),
(364,607,o),
(391,633,o),
(394,686,c),
(368,686,l),
(365,650,o),
(349,634,o),
(327,634,cs),
(281,634,o),
(253,686,o),
(198,686,cs)
);
}
);
width = 522;
}
);
note = otilde;
unicode = 245;
},
{
glyphname = uacute;
kernLeft = u;
kernRight = u;
layers = (
{
hints = (
{
horizontal = 1;
place = (0, 21);
target = up;
type = BottomGhost;
},
{
horizontal = 1;
place = (517, -20);
target = down;
type = TopGhost;
},
{
horizontal = 1;
place = (597, 124);
place = (597, 124);
type = Stem;
},
{
place = (49, 31);
place = (49, 31);
type = Stem;
},
{
place = (393, 30);
place = (393, 30);
type = Stem;
},
{
horizontal = 1;
place = (-9, 26);
place = (-9, 26);
type = Stem;
},
{
horizontal = 1;
place = (721, -20);
target = down;
type = TopGhost;
}
);
layerId = m01;
shapes = (
{
closed = 1;
nodes = (
(210,597,l),
(238,597,l),
(319,721,l),
(279,721,l)
);
},
{
closed = 1;
nodes = (
(393,0,l),
(423,0,l),
(423,517,l),
(393,517,l),
(393,173,ls),
(393,92,o),
(321,17,o),
(218,17,cs),
(132,17,o),
(80,61,o),
(80,150,cs),
(80,517,l),
(49,517,l),
(49,147,ls),
(49,54,o),
(108,-9,o),
(213,-9,cs),
(308,-9,o),
(362,39,o),
(391,89,c),
(393,89,l)
);
}
);
width = 476;
}
);
note = uacute;
unicode = 250;
},
{
glyphname = ugrave;
kernLeft = u;
kernRight = u;
layers = (
{
hints = (
{
horizontal = 1;
place = (0, 21);
target = up;
type = BottomGhost;
},
{
horizontal = 1;
place = (517, -20);
target = down;
type = TopGhost;
},
{
horizontal = 1;
place = (721, -20);
target = down;
type = TopGhost;
},
{
place = (49, 31);
place = (49, 31);
type = Stem;
},
{
place = (393, 30);
place = (393, 30);
type = Stem;
},
{
horizontal = 1;
place = (-9, 26);
place = (-9, 26);
type = Stem;
},
{
horizontal = 1;
place = (597, 124);
place = (597, 124);
type = Stem;
}
);
layerId = m01;
shapes = (
{
closed = 1;
nodes = (
(393,0,l),
(423,0,l),
(423,517,l),
(393,517,l),
(393,173,ls),
(393,92,o),
(321,17,o),
(218,17,cs),
(132,17,o),
(80,61,o),
(80,150,cs),
(80,517,l),
(49,517,l),
(49,147,ls),
(49,54,o),
(108,-9,o),
(213,-9,cs),
(308,-9,o),
(362,39,o),
(391,89,c),
(393,89,l)
);
},
{
closed = 1;
nodes = (
(187,721,l),
(147,721,l),
(230,597,l),
(259,597,l)
);
}
);
width = 476;
}
);
note = ugrave;
unicode = 249;
},
{
glyphname = ucircumflex;
kernLeft = u;
kernRight = u;
layers = (
{
hints = (
{
horizontal = 1;
place = (-9, 26);
place = (-9, 26);
type = Stem;
},
{
horizontal = 1;
place = (517, -20);
target = down;
type = TopGhost;
},
{
horizontal = 1;
place = (683, 21);
place = (683, 21);
type = Stem;
},
{
place = (49, 31);
place = (49, 31);
type = Stem;
},
{
place = (393, 30);
place = (393, 30);
type = Stem;
},
{
horizontal = 1;
place = (0, 21);
target = up;
type = BottomGhost;
}
);
layerId = m01;
shapes = (
{
closed = 1;
nodes = (
(256,704,l),
(219,704,l),
(132,599,l),
(165,599,l),
(237,683,l),
(238,683,l),
(309,599,l),
(344,599,l)
);
},
{
closed = 1;
nodes = (
(393,0,l),
(423,0,l),
(423,517,l),
(393,517,l),
(393,173,ls),
(393,92,o),
(321,17,o),
(218,17,cs),
(132,17,o),
(80,61,o),
(80,150,cs),
(80,517,l),
(49,517,l),
(49,147,ls),
(49,54,o),
(108,-9,o),
(213,-9,cs),
(308,-9,o),
(362,39,o),
(391,89,c),
(393,89,l)
);
}
);
width = 476;
}
);
note = ucircumflex;
unicode = 251;
},
{
glyphname = udieresis;
kernLeft = u;
kernRight = u;
layers = (
{
hints = (
{
horizontal = 1;
place = (-9, 26);
place = (-9, 26);
type = Stem;
},
{
horizontal = 1;
place = (517, -20);
target = down;
type = TopGhost;
},
{
horizontal = 1;
place = (644, 65);
place = (644, 65);
type = Stem;
},
{
place = (49, 31);
place = (49, 31);
type = Stem;
},
{
place = (146, 30);
place = (146, 30);
type = Stem;
},
{
place = (294, 30);
place = (294, 30);
type = Stem;
},
{
place = (393, 30);
place = (393, 30);
type = Stem;
},
{
horizontal = 1;
place = (0, 21);
target = up;
type = BottomGhost;
}
);
layerId = m01;
shapes = (
{
closed = 1;
nodes = (
(176,709,l),
(146,709,l),
(146,644,l),
(176,644,l)
);
},
{
closed = 1;
nodes = (
(324,709,l),
(294,709,l),
(294,644,l),
(324,644,l)
);
},
{
closed = 1;
nodes = (
(393,0,l),
(423,0,l),
(423,517,l),
(393,517,l),
(393,173,ls),
(393,92,o),
(321,17,o),
(218,17,cs),
(132,17,o),
(80,61,o),
(80,150,cs),
(80,517,l),
(49,517,l),
(49,147,ls),
(49,54,o),
(108,-9,o),
(213,-9,cs),
(308,-9,o),
(362,39,o),
(391,89,c),
(393,89,l)
);
}
);
width = 476;
}
);
note = udieresis;
unicode = 252;
},
{
glyphname = dagger;
layers = (
{
hints = (
{
horizontal = 1;
place = (479, 27);
place = (479, 27);
type = Stem;
},
{
horizontal = 1;
place = (715, -20);
target = down;
type = TopGhost;
},
{
place = (240, 31);
place = (240, 31);
type = Stem;
}
);
layerId = m01;
shapes = (
{
closed = 1;
nodes = (
(36,479,l),
(240,479,l),
(240,-104,l),
(271,-104,l),
(271,479,l),
(474,479,l),
(474,506,l),
(271,506,l),
(271,715,l),
(240,715,l),
(240,506,l),
(36,506,l)
);
}
);
width = 510;
}
);
note = dagger;
unicode = 8224;
},
{
glyphname = degree;
layers = (
{
hints = (
{
horizontal = 1;
place = (462, 24);
place = (462, 24);
type = Stem;
},
{
horizontal = 1;
place = (671, 25);
place = (671, 25);
type = Stem;
},
{
place = (37, 29);
place = (37, 29);
type = Stem;
},
{
place = (243, 28);
place = (243, 28);
type = Stem;
}
);
layerId = m01;
shapes = (
{
closed = 1;
nodes = (
(222,462,o),
(271,513,o),
(271,579,cs),
(271,644,o),
(222,696,o),
(155,696,cs),
(89,696,o),
(37,644,o),
(37,579,cs),
(37,513,o),
(89,462,o),
(155,462,cs)
);
},
{
closed = 1;
nodes = (
(103,486,o),
(66,526,o),
(66,579,cs),
(66,632,o),
(103,671,o),
(155,671,cs),
(207,671,o),
(243,631,o),
(243,579,cs),
(243,526,o),
(207,486,o),
(155,486,cs)
);
}
);
width = 309;
}
);
note = degree;
unicode = 176;
},
{
glyphname = cent;
layers = (
{
hints = (
{
horizontal = 1;
place = (-10, 27);
place = (-10, 27);
type = Stem;
},
{
horizontal = 1;
place = (499, 26);
place = (499, 26);
type = Stem;
},
{
place = (26, 31);
place = (26, 31);
type = Stem;
},
{
place = (248, 25);
place = (248, 25);
type = Stem;
}
);
layerId = m01;
shapes = (
{
closed = 1;
nodes = (
(443,174,l),
(431,82,o),
(370,23,o),
(273,17,c),
(273,499,l),
(354,494,o),
(419,453,o),
(439,364,c),
(469,364,l),
(450,462,o),
(377,520,o),
(273,525,c),
(273,591,l),
(248,591,l),
(248,525,l),
(106,520,o),
(26,404,o),
(26,259,cs),
(26,113,o),
(107,-4,o),
(248,-10,c),
(248,-85,l),
(273,-85,l),
(273,-10,l),
(393,-4,o),
(459,72,o),
(472,174,c)
);
},
{
closed = 1;
nodes = (
(57,399,o),
(134,493,o),
(248,499,c),
(248,17,l),
(134,23,o),
(57,120,o),
(57,259,cs)
);
}
);
width = 494;
}
);
note = cent;
unicode = 162;
},
{
glyphname = sterling;
layers = (
{
hints = (
{
horizontal = 1;
place = (-8, 28);
place = (-8, 28);
type = Stem;
},
{
horizontal = 1;
place = (321, 27);
place = (321, 27);
type = Stem;
},
{
horizontal = 1;
place = (669, 27);
place = (669, 27);
type = Stem;
},
{
place = (68, 32);
place = (68, 32);
type = Stem;
},
{
place = (141, 29);
place = (141, 29);
type = Stem;
},
{
place = (456, 30);
place = (456, 30);
type = Stem;
},
{
horizontal = 1;
place = (-3, 21);
target = up;
type = BottomGhost;
},
{
horizontal = 1;
place = (45, 26);
place = (45, 26);
type = Stem;
}
);
layerId = m01;
shapes = (
{
closed = 1;
nodes = (
(34,321,l),
(120,321,l),
(132,289,o),
(141,255,o),
(141,221,cs),
(141,135,o),
(100,75,o),
(34,22,c),
(53,-3,l),
(91,28,o),
(124,45,o),
(167,45,cs),
(207,45,o),
(234,30,o),
(262,18,cs),
(290,5,o),
(321,-8,o),
(367,-8,cs),
(426,-8,o),
(466,16,o),
(504,54,c),
(486,76,l),
(454,43,o),
(415,20,o),
(368,20,cs),
(329,20,o),
(299,32,o),
(271,45,cs),
(243,57,o),
(212,71,o),
(172,71,cs),
(145,71,o),
(125,66,o),
(103,54,c),
(102,55,l),
(147,100,o),
(170,151,o),
(170,224,cs),
(170,257,o),
(162,290,o),
(152,321,c),
(313,321,l),
(313,348,l),
(142,348,l),
(119,408,o),
(100,455,o),
(100,506,cs),
(100,603,o),
(164,669,o),
(276,669,cs),
(370,669,o),
(452,616,o),
(456,485,c),
(486,485,l),
(483,626,o),
(392,696,o),
(278,696,cs),
(143,696,o),
(68,613,o),
(68,507,cs),
(68,451,o),
(87,404,o),
(110,348,c),
(34,348,l)
);
}
);
width = 524;
}
);
note = sterling;
unicode = 163;
},
{
glyphname = section;
layers = (
{
hints = (
{
horizontal = 1;
place = (-176, 28);
place = (-176, 28);
type = Stem;
},
{
horizontal = 1;
place = (665, 28);
place = (665, 28);
type = Stem;
},
{
place = (28, 32);
place = (28, 32);
type = Stem;
},
{
place = (100, 32);
place = (100, 32);
type = Stem;
},
{
place = (415, 32);
place = (415, 32);
type = Stem;
},
{
place = (486, 31);
place = (486, 31);
type = Stem;
},
{
place = (418, 32);
place = (418, 32);
type = Stem;
},
{
place = (79, 32);
place = (79, 32);
type = Stem;
}
);
layerId = m01;
shapes = (
{
closed = 1;
nodes = (
(517,272,o),
(450,316,o),
(324,387,cs),
(204,457,o),
(132,488,o),
(132,561,cs),
(132,625,o),
(180,665,o),
(268,665,cs),
(355,665,o),
(410,616,o),
(418,531,c),
(450,531,l),
(442,631,o),
(375,693,o),
(269,693,cs),
(162,693,o),
(100,640,o),
(100,560,cs),
(100,520,o),
(117,491,o),
(146,465,c),
(73,444,o),
(28,401,o),
(28,331,cs),
(28,241,o),
(108,196,o),
(239,120,cs),
(378,40,o),
(415,19,o),
(415,-45,cs),
(415,-110,o),
(362,-148,o),
(281,-148,cs),
(187,-148,o),
(119,-97,o),
(111,-1,c),
(79,-1,l),
(86,-105,o),
(163,-176,o),
(281,-176,cs),
(382,-176,o),
(447,-126,o),
(447,-45,cs),
(447,-6,o),
(436,21,o),
(403,51,c),
(470,72,o),
(517,114,o),
(517,186,cs)
);
},
{
closed = 1;
nodes = (
(428,293,o),
(486,256,o),
(486,185,cs),
(486,127,o),
(445,88,o),
(381,69,c),
(353,90,o),
(316,112,o),
(253,148,cs),
(110,229,o),
(60,262,o),
(60,332,cs),
(60,388,o),
(94,427,o),
(169,445,c),
(202,421,o),
(246,398,o),
(311,360,cs)
);
}
);
width = 545;
}
);
note = section;
unicode = 167;
},
{
glyphname = bullet;
layers = (
{
hints = (
{
horizontal = 1;
place = (243, 165);
place = (243, 165);
type = Stem;
},
{
place = (36, 164);
place = (36, 164);
type = Stem;
}
);
layerId = m01;
shapes = (
{
closed = 1;
nodes = (
(164,243,o),
(200,279,o),
(200,325,cs),
(200,372,o),
(164,408,o),
(119,408,cs),
(73,408,o),
(36,371,o),
(36,325,cs),
(36,279,o),
(73,243,o),
(119,243,cs)
);
}
);
width = 236;
}
);
note = bullet;
unicode = 8226;
},
{
glyphname = paragraph;
layers = (
{
hints = (
{
horizontal = 1;
place = (0, 21);
target = up;
type = BottomGhost;
},
{
horizontal = 1;
place = (685, 30);
place = (685, 30);
type = Stem;
},
{
place = (250, 32);
place = (250, 32);
type = Stem;
},
{
place = (358, 31);
place = (358, 31);
type = Stem;
}
);
layerId = m01;
shapes = (
{
closed = 1;
nodes = (
(250,384,l),
(250,0,l),
(282,0,l),
(282,685,l),
(358,685,l),
(358,0,l),
(389,0,l),
(389,715,l),
(211,715,ls),
(154,715,o),
(109,701,o),
(77,671,cs),
(47,643,o),
(29,601,o),
(29,552,cs),
(29,444,o),
(96,384,o),
(219,384,cs)
);
}
);
width = 454;
}
);
note = paragraph;
unicode = 182;
},
{
glyphname = germandbls;
kernLeft = germandbls;
kernRight = germandbls;
layers = (
{
hints = (
{
horizontal = 1;
place = (-5, 27);
place = (-5, 27);
type = Stem;
},
{
horizontal = 1;
place = (392, 26);
place = (392, 26);
type = Stem;
},
{
horizontal = 1;
place = (697, 26);
place = (697, 26);
type = Stem;
},
{
place = (53, 30);
place = (53, 30);
type = Stem;
},
{
place = (416, 31);
place = (416, 31);
type = Stem;
},
{
horizontal = 1;
place = (1, 21);
target = up;
type = BottomGhost;
},
{
horizontal = 1;
place = (0, 21);
target = up;
type = BottomGhost;
},
{
place = (371, 31);
place = (371, 31);
type = Stem;
}
);
layerId = m01;
shapes = (
{
closed = 1;
nodes = (
(189,392,l),
(240,392,ls),
(345,392,o),
(416,317,o),
(416,208,cs),
(416,94,o),
(349,22,o),
(234,22,cs),
(220,22,o),
(199,23,o),
(182,27,cs),
(181,27,l),
(181,1,l),
(198,-3,o),
(223,-5,o),
(237,-5,cs),
(366,-5,o),
(447,75,o),
(447,210,cs),
(447,315,o),
(384,388,o),
(294,408,c),
(294,409,l),
(361,430,o),
(402,484,o),
(402,557,cs),
(402,652,o),
(334,723,o),
(228,723,cs),
(109,723,o),
(53,649,o),
(53,540,cs),
(53,0,l),
(83,0,l),
(83,538,ls),
(83,635,o),
(129,697,o),
(228,697,cs),
(318,697,o),
(371,639,o),
(371,557,cs),
(371,478,o),
(317,418,o),
(232,418,cs),
(189,418,l)
);
}
);
width = 472;
}
);
note = germandbls;
unicode = 223;
},
{
glyphname = registered;
kernLeft = registered;
layers = (
{
hints = (
{
horizontal = 1;
place = (247, 21);
place = (247, 21);
type = Stem;
},
{
horizontal = 1;
place = (474, 21);
place = (474, 21);
type = Stem;
},
{
horizontal = 1;
place = (597, 22);
place = (597, 22);
type = Stem;
},
{
horizontal = 1;
place = (704, 21);
place = (704, 21);
type = Stem;
},
{
place = (26, 25);
place = (26, 25);
type = Stem;
},
{
place = (171, 26);
place = (171, 26);
type = Stem;
},
{
place = (335, 26);
place = (335, 26);
type = Stem;
},
{
place = (472, 24);
place = (472, 24);
type = Stem;
},
{
place = (329, 35);
place = (329, 35);
type = Stem;
}
);
layerId = m01;
shapes = (
{
closed = 1;
nodes = (
(391,247,o),
(496,348,o),
(496,486,cs),
(496,623,o),
(391,725,o),
(261,725,cs),
(131,725,o),
(26,623,o),
(26,486,cs),
(26,348,o),
(131,247,o),
(261,247,cs)
);
},
{
closed = 1;
nodes = (
(143,268,o),
(51,360,o),
(51,486,cs),
(51,611,o),
(143,704,o),
(261,704,cs),
(380,704,o),
(472,611,o),
(472,486,cs),
(472,360,o),
(380,268,o),
(261,268,cs)
);
},
{
closed = 1;
nodes = (
(197,474,l),
(267,474,ls),
(304,474,o),
(327,463,o),
(329,421,cs),
(331,380,o),
(334,364,o),
(339,360,c),
(364,360,l),
(364,363,l),
(358,367,o),
(357,380,o),
(353,424,cs),
(351,457,o),
(341,476,o),
(312,484,c),
(312,485,l),
(346,494,o),
(361,516,o),
(361,548,cs),
(361,593,o),
(328,619,o),
(280,619,cs),
(171,619,l),
(171,360,l),
(197,360,l)
);
},
{
closed = 1;
nodes = (
(197,597,l),
(275,597,ls),
(313,597,o),
(335,578,o),
(335,546,cs),
(335,514,o),
(315,495,o),
(274,495,cs),
(197,495,l)
);
}
);
width = 522;
}
);
note = registered;
unicode = 174;
},
{
glyphname = copyright;
kernLeft = copyright;
kernRight = copyright;
layers = (
{
hints = (
{
horizontal = 1;
place = (-14, 22);
place = (-14, 22);
type = Stem;
},
{
horizontal = 1;
place = (125, 27);
place = (125, 27);
type = Stem;
},
{
horizontal = 1;
place = (562, 27);
place = (562, 27);
type = Stem;
},
{
horizontal = 1;
place = (703, 22);
place = (703, 22);
type = Stem;
},
{
place = (41, 26);
place = (41, 26);
type = Stem;
},
{
place = (203, 32);
place = (203, 32);
type = Stem;
},
{
place = (557, 30);
place = (557, 30);
type = Stem;
},
{
place = (739, 25);
place = (739, 25);
type = Stem;
}
);
layerId = m01;
shapes = (
{
closed = 1;
nodes = (
(606,-14,o),
(764,145,o),
(764,355,cs),
(764,565,o),
(606,725,o),
(403,725,cs),
(199,725,o),
(41,565,o),
(41,355,cs),
(41,145,o),
(199,-14,o),
(403,-14,cs)
);
},
{
closed = 1;
nodes = (
(211,8,o),
(67,158,o),
(67,355,cs),
(67,553,o),
(211,703,o),
(403,703,cs),
(594,703,o),
(739,553,o),
(739,355,cs),
(739,158,o),
(594,8,o),
(403,8,cs)
);
},
{
closed = 1;
nodes = (
(583,451,l),
(570,528,o),
(510,589,o),
(409,589,cs),
(281,589,o),
(203,490,o),
(203,357,cs),
(203,216,o),
(290,125,o),
(407,125,cs),
(465,125,o),
(509,144,o),
(539,175,cs),
(568,203,o),
(584,243,o),
(587,285,c),
(557,285,l),
(549,209,o),
(499,152,o),
(407,152,cs),
(303,152,o),
(235,235,o),
(235,357,cs),
(235,475,o),
(297,562,o),
(409,562,cs),
(493,562,o),
(541,511,o),
(552,451,c)
);
}
);
width = 805;
}
);
note = copyright;
unicode = 169;
},
{
glyphname = trademark;
kernLeft = trademark;
layers = (
{
hints = (
{
horizontal = 1;
place = (429, 32);
place = (429, 32);
type = Stem;
},
{
horizontal = 1;
place = (691, 24);
place = (691, 24);
type = Stem;
},
{
place = (133, 26);
place = (133, 26);
type = Stem;
},
{
place = (306, 25);
place = (306, 25);
type = Stem;
},
{
place = (553, 24);
place = (553, 24);
type = Stem;
}
);
layerId = m01;
shapes = (
{
closed = 1;
nodes = (
(443,461,l),
(442,461,l),
(341,715,l),
(306,715,l),
(306,429,l),
(331,429,l),
(331,673,l),
(333,666,o),
(346,629,o),
(357,606,c),
(429,429,l),
(455,429,l),
(526,606,ls),
(537,634,o),
(552,675,o),
(552,675,c),
(553,675,l),
(553,429,l),
(577,429,l),
(577,715,l),
(542,715,l)
);
},
{
closed = 1;
nodes = (
(159,429,l),
(159,691,l),
(258,691,l),
(258,715,l),
(33,715,l),
(33,691,l),
(133,691,l),
(133,429,l)
);
}
);
width = 620;
}
);
note = trademark;
unicode = 8482;
},
{
glyphname = acute;
layers = (
{
hints = (
{
horizontal = 1;
place = (597, 124);
place = (597, 124);
type = Stem;
},
{
place = (210, 109);
place = (210, 109);
type = Stem;
}
);
layerId = m01;
shapes = (
{
closed = 1;
nodes = (
(210,597,l),
(238,597,l),
(319,721,l),
(279,721,l)
);
}
);
width = 468;
}
);
note = acute;
unicode = 180;
},
{
glyphname = dieresis;
layers = (
{
hints = (
{
horizontal = 1;
place = (644, 65);
place = (644, 65);
type = Stem;
},
{
place = (143, 30);
place = (143, 30);
type = Stem;
},
{
place = (291, 30);
place = (291, 30);
type = Stem;
}
);
layerId = m01;
shapes = (
{
closed = 1;
nodes = (
(173,709,l),
(143,709,l),
(143,644,l),
(173,644,l)
);
},
{
closed = 1;
nodes = (
(321,709,l),
(291,709,l),
(291,644,l),
(321,644,l)
);
}
);
width = 464;
}
);
note = dieresis;
unicode = 168;
},
{
glyphname = notequal;
layers = (
{
hints = (
{
horizontal = 1;
place = (226, 29);
place = (226, 29);
type = Stem;
},
{
horizontal = 1;
place = (368, 29);
place = (368, 29);
type = Stem;
},
{
place = (54, 414);
place = (54, 414);
type = Stem;
}
);
layerId = m01;
shapes = (
{
closed = 1;
nodes = (
(54,368,l),
(273,368,l),
(217,255,l),
(54,255,l),
(54,226,l),
(204,226,l),
(143,101,l),
(173,101,l),
(234,226,l),
(468,226,l),
(468,255,l),
(247,255,l),
(303,368,l),
(468,368,l),
(468,397,l),
(317,397,l),
(374,512,l),
(344,512,l),
(287,397,l),
(54,397,l)
);
}
);
width = 522;
}
);
note = notequal;
unicode = 8800;
},
{
glyphname = AE;
kernLeft = AE;
kernRight = E;
layers = (
{
hints = (
{
horizontal = 1;
place = (0, 29);
place = (0, 29);
type = Stem;
},
{
horizontal = 1;
place = (244, 27);
place = (244, 27);
type = Stem;
},
{
horizontal = 1;
place = (356, 28);
place = (356, 28);
type = Stem;
},
{
horizontal = 1;
place = (687, 28);
place = (687, 28);
type = Stem;
},
{
place = (445, 32);
place = (445, 32);
type = Stem;
}
);
layerId = m01;
shapes = (
{
closed = 1;
nodes = (
(477,687,l),
(867,687,l),
(867,715,l),
(297,715,l),
(12,0,l),
(44,0,l),
(142,244,l),
(445,244,l),
(445,0,l),
(877,0,l),
(877,29,l),
(477,29,l),
(477,356,l),
(833,356,l),
(833,384,l),
(477,384,l)
);
},
{
closed = 1;
nodes = (
(318,687,l),
(445,687,l),
(445,271,l),
(152,271,l)
);
}
);
width = 914;
}
);
note = AE;
unicode = 198;
},
{
glyphname = Oslash;
kernLeft = C;
kernRight = O;
layers = (
{
hints = (
{
horizontal = 1;
place = (-10, 29);
place = (-10, 29);
type = Stem;
},
{
horizontal = 1;
place = (697, 29);
place = (697, 29);
type = Stem;
},
{
place = (36, 33);
place = (36, 33);
type = Stem;
},
{
place = (661, 32);
place = (661, 32);
type = Stem;
},
{
horizontal = 1;
place = (-11, 21);
target = up;
type = BottomGhost;
}
);
layerId = m01;
shapes = (
{
closed = 1;
nodes = (
(50,-11,l),
(136,85,l),
(193,25,o),
(272,-10,o),
(364,-10,cs),
(558,-10,o),
(693,147,o),
(693,358,cs),
(693,458,o),
(662,547,o),
(609,612,c),
(696,708,l),
(677,726,l),
(592,631,l),
(534,690,o),
(456,726,o),
(364,726,cs),
(170,726,o),
(36,570,o),
(36,358,cs),
(36,257,o),
(67,169,o),
(119,104,c),
(32,7,l)
);
},
{
closed = 1;
nodes = (
(277,19,o),
(207,52,o),
(157,107,c),
(588,587,l),
(634,527,o),
(661,447,o),
(661,358,cs),
(661,170,o),
(546,19,o),
(364,19,cs)
);
},
{
closed = 1;
nodes = (
(69,547,o),
(181,697,o),
(364,697,cs),
(450,697,o),
(521,663,o),
(572,608,c),
(140,127,l),
(94,187,o),
(69,268,o),
(69,358,cs)
);
}
);
width = 732;
}
);
note = Oslash;
unicode = 216;
},
{
glyphname = infinity;
layers = (
{
hints = (
{
horizontal = 1;
place = (137, 26);
place = (137, 26);
type = Stem;
},
{
horizontal = 1;
place = (445, 26);
place = (445, 26);
type = Stem;
},
{
place = (36, 31);
place = (36, 31);
type = Stem;
},
{
place = (640, 30);
place = (640, 30);
type = Stem;
}
);
layerId = m01;
shapes = (
{
closed = 1;
nodes = (
(36,222,o),
(80,137,o),
(183,137,cs),
(263,137,o),
(309,191,o),
(357,276,c),
(398,203,o),
(448,137,o),
(526,137,cs),
(624,137,o),
(670,216,o),
(670,304,cs),
(670,395,o),
(623,471,o),
(524,471,cs),
(446,471,o),
(402,411,o),
(358,332,c),
(316,406,o),
(263,471,o),
(182,471,cs),
(79,471,o),
(36,387,o),
(36,304,cs)
);
},
{
closed = 1;
nodes = (
(67,374,o),
(99,445,o),
(182,445,cs),
(252,445,o),
(299,382,o),
(342,303,c),
(294,218,o),
(253,163,o),
(183,163,cs),
(100,163,o),
(67,235,o),
(67,304,cs)
);
},
{
closed = 1;
nodes = (
(607,445,o),
(640,378,o),
(640,304,cs),
(640,235,o),
(607,163,o),
(526,163,cs),
(459,163,o),
(416,227,o),
(373,304,c),
(419,386,o),
(457,445,o),
(524,445,cs)
);
}
);
width = 707;
}
);
note = infinity;
unicode = 8734;
},
{
glyphname = plusminus;
layers = (
{
hints = (
{
horizontal = 1;
place = (0, 28);
place = (0, 28);
type = Stem;
},
{
horizontal = 1;
place = (328, 29);
place = (328, 29);
type = Stem;
},
{
place = (247, 30);
place = (247, 30);
type = Stem;
}
);
layerId = m01;
shapes = (
{
closed = 1;
nodes = (
(54,328,l),
(247,328,l),
(247,139,l),
(277,139,l),
(277,328,l),
(470,328,l),
(470,357,l),
(277,357,l),
(277,543,l),
(247,543,l),
(247,357,l),
(54,357,l)
);
},
{
closed = 1;
nodes = (
(54,0,l),
(470,0,l),
(470,28,l),
(54,28,l)
);
}
);
width = 524;
}
);
note = plusminus;
unicode = 177;
},
{
glyphname = lessequal;
layers = (
{
hints = (
{
horizontal = 1;
place = (0, 28);
place = (0, 28);
type = Stem;
},
{
place = (50, 30);
place = (50, 30);
type = Stem;
}
);
layerId = m01;
shapes = (
{
closed = 1;
nodes = (
(50,0,l),
(440,0,l),
(440,28,l),
(50,28,l)
);
},
{
closed = 1;
nodes = (
(440,160,l),
(80,314,l),
(80,315,l),
(440,471,l),
(440,501,l),
(50,331,l),
(50,299,l),
(440,130,l)
);
}
);
width = 494;
}
);
note = lessequal;
unicode = 8804;
},
{
glyphname = greaterequal;
layers = (
{
hints = (
{
horizontal = 1;
place = (0, 28);
place = (0, 28);
type = Stem;
},
{
place = (415, 29);
place = (415, 29);
type = Stem;
}
);
layerId = m01;
shapes = (
{
closed = 1;
nodes = (
(444,28,l),
(54,28,l),
(54,0,l),
(444,0,l)
);
},
{
closed = 1;
nodes = (
(54,130,l),
(444,299,l),
(444,331,l),
(54,501,l),
(54,471,l),
(415,316,l),
(415,315,l),
(54,160,l)
);
}
);
width = 494;
}
);
note = greaterequal;
unicode = 8805;
},
{
glyphname = yen;
layers = (
{
hints = (
{
horizontal = 1;
place = (0, 21);
target = up;
type = BottomGhost;
},
{
horizontal = 1;
place = (189, 27);
place = (189, 27);
type = Stem;
},
{
horizontal = 1;
place = (309, 26);
place = (309, 26);
type = Stem;
},
{
horizontal = 1;
place = (685, -20);
target = down;
type = TopGhost;
},
{
place = (248, 31);
place = (248, 31);
type = Stem;
}
);
layerId = m01;
shapes = (
{
closed = 1;
nodes = (
(472,216,l),
(279,216,l),
(279,309,l),
(472,309,l),
(472,335,l),
(289,335,l),
(518,685,l),
(483,685,l),
(264,348,l),
(263,348,l),
(47,685,l),
(11,685,l),
(238,335,l),
(56,335,l),
(56,309,l),
(248,309,l),
(248,216,l),
(56,216,l),
(56,189,l),
(248,189,l),
(248,0,l),
(279,0,l),
(279,189,l),
(472,189,l)
);
}
);
width = 529;
}
);
note = yen;
unicode = 165;
},
{
glyphname = mu;
layers = (
{
hints = (
{
horizontal = 1;
place = (-166, 21);
target = up;
type = BottomGhost;
},
{
horizontal = 1;
place = (0, 21);
target = up;
type = BottomGhost;
},
{
horizontal = 1;
place = (517, -20);
target = down;
type = TopGhost;
},
{
place = (53, 30);
place = (53, 30);
type = Stem;
},
{
place = (396, 30);
place = (396, 30);
type = Stem;
},
{
horizontal = 1;
place = (-9, 27);
place = (-9, 27);
type = Stem;
}
);
layerId = m01;
shapes = (
{
closed = 1;
nodes = (
(396,0,l),
(426,0,l),
(426,517,l),
(396,517,l),
(396,173,ls),
(396,93,o),
(325,18,o),
(221,18,cs),
(136,18,o),
(83,62,o),
(83,150,cs),
(83,517,l),
(53,517,l),
(53,-166,l),
(82,-166,l),
(82,61,l),
(83,61,l),
(108,17,o),
(152,-9,o),
(217,-9,cs),
(312,-9,o),
(366,39,o),
(394,89,c),
(396,89,l)
);
}
);
width = 479;
}
);
note = mu;
unicode = 181;
},
{
glyphname = partialdiff;
layers = (
{
hints = (
{
horizontal = 1;
place = (-10, 27);
place = (-10, 27);
type = Stem;
},
{
horizontal = 1;
place = (439, 27);
place = (439, 27);
type = Stem;
},
{
horizontal = 1;
place = (719, -20);
target = down;
type = TopGhost;
},
{
place = (38, 32);
place = (38, 32);
type = Stem;
},
{
place = (431, 35);
place = (431, 35);
type = Stem;
}
);
layerId = m01;
shapes = (
{
closed = 1;
nodes = (
(130,466,o),
(38,353,o),
(38,205,cs),
(38,82,o),
(115,-10,o),
(235,-10,cs),
(387,-10,o),
(466,128,o),
(466,295,cs),
(466,494,o),
(397,675,o),
(139,719,c),
(139,692,l),
(356,651,o),
(423,508,o),
(434,343,c),
(408,416,o),
(346,466,o),
(260,466,cs)
);
},
{
closed = 1;
nodes = (
(128,17,o),
(70,106,o),
(70,206,cs),
(70,338,o),
(144,439,o),
(260,439,cs),
(371,439,o),
(431,350,o),
(431,252,cs),
(431,157,o),
(373,17,o),
(235,17,cs)
);
}
);
width = 504;
}
);
note = partialdiff;
unicode = 8706;
},
{
glyphname = summation;
layers = (
{
hints = (
{
horizontal = 1;
place = (-100, 28);
place = (-100, 28);
type = Stem;
},
{
horizontal = 1;
place = (687, 28);
place = (687, 28);
type = Stem;
},
{
place = (41, 40);
place = (41, 40);
type = Stem;
},
{
place = (353, 31);
place = (353, 31);
type = Stem;
}
);
layerId = m01;
shapes = (
{
closed = 1;
nodes = (
(541,687,l),
(541,715,l),
(41,715,l),
(41,684,l),
(353,325,l),
(353,324,l),
(41,-74,l),
(41,-100,l),
(546,-100,l),
(546,-72,l),
(80,-72,l),
(80,-71,l),
(384,316,l),
(384,335,l),
(81,686,l),
(81,687,l)
);
}
);
width = 583;
}
);
note = summation;
unicode = 8721;
},
{
glyphname = product;
layers = (
{
hints = (
{
horizontal = 1;
place = (686, 29);
place = (686, 29);
type = Stem;
},
{
place = (69, 32);
place = (69, 32);
type = Stem;
},
{
place = (556, 31);
place = (556, 31);
type = Stem;
}
);
layerId = m01;
shapes = (
{
closed = 1;
nodes = (
(587,-100,l),
(587,715,l),
(69,715,l),
(69,-100,l),
(101,-100,l),
(101,686,l),
(556,686,l),
(556,-100,l)
);
}
);
width = 656;
}
);
note = product;
unicode = 8719;
},
{
glyphname = pi;
layers = (
{
hints = (
{
horizontal = 1;
place = (-3, 26);
place = (-3, 26);
type = Stem;
},
{
horizontal = 1;
place = (491, 26);
place = (491, 26);
type = Stem;
},
{
place = (110, 30);
place = (110, 30);
type = Stem;
},
{
place = (418, 30);
place = (418, 30);
type = Stem;
},
{
horizontal = 1;
place = (0, 21);
target = up;
type = BottomGhost;
}
);
layerId = m01;
shapes = (
{
closed = 1;
nodes = (
(544,517,l),
(20,517,l),
(20,491,l),
(110,491,l),
(110,0,l),
(140,0,l),
(140,491,l),
(418,491,l),
(418,76,ls),
(418,21,o),
(446,-3,o),
(494,-3,cs),
(518,-3,o),
(534,1,o),
(547,7,c),
(547,34,l),
(545,34,l),
(535,29,o),
(519,23,o),
(499,23,cs),
(465,23,o),
(448,38,o),
(448,78,cs),
(448,491,l),
(544,491,l)
);
}
);
width = 575;
}
);
note = pi;
unicode = 960;
},
{
glyphname = integral;
layers = (
{
hints = (
{
horizontal = 1;
place = (-163, 21);
target = up;
type = BottomGhost;
},
{
horizontal = 1;
place = (712, 27);
place = (712, 27);
type = Stem;
},
{
place = (151, 29);
place = (151, 29);
type = Stem;
},
{
horizontal = 1;
place = (-174, 27);
place = (-174, 27);
type = Stem;
}
);
layerId = m01;
shapes = (
{
closed = 1;
nodes = (
(12,-163,l),
(32,-171,o),
(51,-174,o),
(76,-174,cs),
(148,-174,o),
(180,-134,o),
(180,-54,cs),
(180,619,ls),
(180,686,o),
(205,712,o),
(258,712,cs),
(279,712,o),
(300,709,o),
(316,702,c),
(318,702,l),
(318,729,l),
(299,736,o),
(280,739,o),
(256,739,cs),
(188,739,o),
(151,702,o),
(151,619,cs),
(151,-54,ls),
(151,-118,o),
(130,-147,o),
(74,-147,cs),
(50,-147,o),
(30,-143,o),
(14,-136,c),
(12,-136,l)
);
}
);
width = 343;
}
);
note = integral;
unicode = 8747;
},
{
glyphname = ordfeminine;
layers = (
{
hints = (
{
horizontal = 1;
place = (232, 26);
place = (232, 26);
type = Stem;
},
{
horizontal = 1;
place = (674, 26);
place = (674, 26);
type = Stem;
},
{
place = (63, 30);
place = (63, 30);
type = Stem;
},
{
place = (357, 30);
place = (357, 30);
type = Stem;
},
{
horizontal = 1;
place = (228, 26);
place = (228, 26);
type = Stem;
},
{
place = (39, 31);
place = (39, 31);
type = Stem;
}
);
layerId = m01;
shapes = (
{
closed = 1;
nodes = (
(431,232,o),
(443,236,o),
(450,240,c),
(450,264,l),
(448,264,l),
(439,260,o),
(431,258,o),
(421,258,cs),
(400,258,o),
(387,268,o),
(387,302,cs),
(387,557,ls),
(387,652,o),
(333,700,o),
(234,700,cs),
(120,700,o),
(69,640,o),
(63,560,c),
(93,560,l),
(100,638,o),
(149,674,o),
(234,674,cs),
(316,674,o),
(357,634,o),
(357,560,cs),
(357,548,ls),
(357,508,o),
(321,499,o),
(218,487,cs),
(122,476,o),
(39,455,o),
(39,353,cs),
(39,275,o),
(101,228,o),
(187,228,cs),
(275,228,o),
(331,270,o),
(356,323,c),
(357,323,l),
(357,299,ls),
(357,260,o),
(374,232,o),
(415,232,cs)
);
},
{
closed = 1;
nodes = (
(131,254,o),
(70,280,o),
(70,353,cs),
(70,434,o),
(128,451,o),
(223,462,cs),
(297,472,o),
(336,481,o),
(357,497,c),
(357,401,ls),
(357,318,o),
(290,254,o),
(190,254,cs)
);
}
);
width = 460;
}
);
note = ordfeminine;
unicode = 170;
},
{
glyphname = ordmasculine;
layers = (
{
hints = (
{
horizontal = 1;
place = (225, 26);
place = (225, 26);
type = Stem;
},
{
horizontal = 1;
place = (675, 25);
place = (675, 25);
type = Stem;
},
{
place = (31, 30);
place = (31, 30);
type = Stem;
},
{
place = (424, 30);
place = (424, 30);
type = Stem;
}
);
layerId = m01;
shapes = (
{
closed = 1;
nodes = (
(375,225,o),
(454,331,o),
(454,463,cs),
(454,595,o),
(375,700,o),
(243,700,cs),
(111,700,o),
(31,595,o),
(31,463,cs),
(31,331,o),
(111,225,o),
(243,225,cs)
);
},
{
closed = 1;
nodes = (
(128,251,o),
(61,347,o),
(61,463,cs),
(61,579,o),
(128,675,o),
(243,675,cs),
(358,675,o),
(424,579,o),
(424,463,cs),
(424,347,o),
(358,251,o),
(243,251,cs)
);
}
);
width = 485;
}
);
note = ordmasculine;
unicode = 186;
},
{
glyphname = Omega;
layers = (
{
hints = (
{
horizontal = 1;
place = (0, 28);
place = (0, 28);
type = Stem;
},
{
horizontal = 1;
place = (697, 29);
place = (697, 29);
type = Stem;
},
{
place = (37, 33);
place = (37, 33);
type = Stem;
},
{
place = (641, 33);
place = (641, 33);
type = Stem;
}
);
layerId = m01;
shapes = (
{
closed = 1;
nodes = (
(465,28,l),
(465,29,l),
(585,80,o),
(674,193,o),
(674,373,cs),
(674,577,o),
(548,726,o),
(355,726,cs),
(161,726,o),
(37,577,o),
(37,373,cs),
(37,192,o),
(126,80,o),
(246,29,c),
(246,28,l),
(46,28,l),
(46,0,l),
(305,0,l),
(305,29,l),
(172,72,o),
(70,186,o),
(70,373,cs),
(70,557,o),
(175,697,o),
(355,697,cs),
(535,697,o),
(641,557,o),
(641,373,cs),
(641,186,o),
(541,70,o),
(406,29,c),
(406,0,l),
(665,0,l),
(665,28,l)
);
}
);
width = 711;
}
);
note = Omega;
unicode = 8486;
},
{
glyphname = ae;
kernLeft = a;
kernRight = e;
layers = (
{
hints = (
{
horizontal = 1;
place = (-11, 27);
place = (-11, 27);
type = Stem;
},
{
horizontal = 1;
place = (259, 26);
place = (259, 26);
type = Stem;
},
{
horizontal = 1;
place = (499, 27);
place = (499, 27);
type = Stem;
},
{
place = (24, 30);
place = (24, 30);
type = Stem;
},
{
place = (387, 30);
place = (387, 30);
type = Stem;
},
{
place = (788, 31);
place = (788, 31);
type = Stem;
},
{
place = (51, 30);
place = (51, 30);
type = Stem;
}
);
layerId = m01;
shapes = (
{
closed = 1;
nodes = (
(819,259,l),
(817,357,o),
(795,433,o),
(739,481,cs),
(706,509,o),
(663,526,o),
(609,526,cs),
(510,526,o),
(444,469,o),
(413,388,c),
(404,477,o),
(349,526,o),
(244,526,cs),
(116,526,o),
(59,460,o),
(51,368,c),
(81,368,l),
(90,457,o),
(145,499,o),
(244,499,cs),
(340,499,o),
(387,452,o),
(387,368,cs),
(387,362,ls),
(387,307,o),
(351,296,o),
(224,282,cs),
(115,269,o),
(24,243,o),
(24,130,cs),
(24,42,o),
(94,-11,o),
(195,-11,cs),
(291,-11,o),
(380,32,o),
(406,140,c),
(437,50,o),
(504,-11,o),
(614,-11,cs),
(732,-11,o),
(793,61,o),
(813,151,c),
(784,151,l),
(760,66,o),
(707,16,o),
(614,16,cs),
(480,16,o),
(418,120,o),
(417,259,c)
);
},
{
closed = 1;
nodes = (
(387,194,ls),
(387,86,o),
(310,16,o),
(196,16,cs),
(126,16,o),
(54,46,o),
(54,129,cs),
(54,223,o),
(122,244,o),
(230,257,cs),
(322,268,o),
(362,281,o),
(387,302,c)
);
},
{
closed = 1;
nodes = (
(418,285,l),
(425,414,o),
(496,499,o),
(609,499,cs),
(716,499,o),
(781,422,o),
(788,285,c)
);
}
);
width = 844;
}
);
note = ae;
unicode = 230;
},
{
glyphname = oslash;
kernLeft = c;
kernRight = o;
layers = (
{
hints = (
{
horizontal = 1;
place = (-10, 26);
place = (-10, 26);
type = Stem;
},
{
horizontal = 1;
place = (500, 26);
place = (500, 26);
type = Stem;
},
{
place = (23, 31);
place = (23, 31);
type = Stem;
},
{
place = (463, 31);
place = (463, 31);
type = Stem;
}
);
layerId = m01;
shapes = (
{
closed = 1;
nodes = (
(406,-10,o),
(494,110,o),
(494,259,cs),
(494,330,o),
(474,394,o),
(436,441,c),
(496,510,l),
(479,526,l),
(421,459,l),
(381,501,o),
(326,526,o),
(259,526,cs),
(112,526,o),
(23,407,o),
(23,259,cs),
(23,187,o),
(43,122,o),
(82,74,c),
(21,5,l),
(38,-11,l),
(96,56,l),
(136,14,o),
(191,-10,o),
(259,-10,cs)
);
},
{
closed = 1;
nodes = (
(54,403,o),
(140,500,o),
(259,500,cs),
(315,500,o),
(366,477,o),
(402,438,c),
(101,97,l),
(71,138,o),
(54,193,o),
(54,259,cs)
);
},
{
closed = 1;
nodes = (
(201,16,o),
(152,38,o),
(115,78,c),
(416,419,l),
(446,378,o),
(463,323,o),
(463,259,cs),
(463,114,o),
(378,16,o),
(259,16,cs)
);
}
);
width = 522;
}
);
note = oslash;
unicode = 248;
},
{
glyphname = questiondown;
kernRight = questiondown;
layers = (
{
hints = (
{
horizontal = 1;
place = (-137, 28);
place = (-137, 28);
type = Stem;
},
{
horizontal = 1;
place = (518, 70);
place = (518, 70);
type = Stem;
},
{
place = (38, 32);
place = (38, 32);
type = Stem;
},
{
place = (244, 30);
place = (244, 30);
type = Stem;
},
{
place = (423, 31);
place = (423, 31);
type = Stem;
},
{
place = (240, 37);
place = (240, 37);
type = Stem;
}
);
layerId = m01;
shapes = (
{
closed = 1;
nodes = (
(244,412,l),
(244,316,o),
(222,283,o),
(152,224,cs),
(93,176,o),
(38,139,o),
(38,42,cs),
(38,-60,o),
(116,-137,o),
(235,-137,cs),
(383,-137,o),
(451,-36,o),
(454,75,c),
(423,75,l),
(419,-28,o),
(357,-109,o),
(236,-109,cs),
(140,-109,o),
(70,-48,o),
(70,42,cs),
(70,127,o),
(124,163,o),
(172,203,cs),
(250,268,o),
(274,305,o),
(274,412,c)
);
},
{
closed = 1;
nodes = (
(240,518,l),
(277,518,l),
(277,588,l),
(240,588,l)
);
}
);
width = 479;
}
);
note = questiondown;
unicode = 191;
},
{
glyphname = exclamdown;
kernRight = exclamdown;
layers = (
{
hints = (
{
horizontal = 1;
place = (518, 70);
place = (518, 70);
type = Stem;
},
{
place = (70, 33);
place = (70, 33);
type = Stem;
}
);
layerId = m01;
shapes = (
{
closed = 1;
nodes = (
(70,130,l),
(70,-127,l),
(103,-127,l),
(103,130,l),
(98,413,l),
(76,413,l)
);
},
{
closed = 1;
nodes = (
(69,518,l),
(105,518,l),
(105,588,l),
(69,588,l)
);
}
);
width = 174;
}
);
note = exclamdown;
unicode = 161;
},
{
glyphname = logicalnot;
layers = (
{
hints = (
{
horizontal = 1;
place = (354, 29);
place = (354, 29);
type = Stem;
},
{
place = (414, 31);
place = (414, 31);
type = Stem;
}
);
layerId = m01;
shapes = (
{
closed = 1;
nodes = (
(445,147,l),
(445,383,l),
(60,383,l),
(60,354,l),
(414,354,l),
(414,147,l)
);
}
);
width = 525;
}
);
note = logicalnot;
unicode = 172;
},
{
glyphname = radical;
layers = (
{
hints = (
{
horizontal = 1;
place = (271, 27);
place = (271, 27);
type = Stem;
},
{
horizontal = 1;
place = (715, -20);
target = down;
type = TopGhost;
},
{
place = (13, 528);
place = (13, 528);
type = Stem;
}
);
layerId = m01;
shapes = (
{
closed = 1;
nodes = (
(13,271,l),
(92,271,l),
(240,-100,l),
(273,-100,l),
(541,715,l),
(510,715,l),
(298,69,ls),
(290,44,o),
(257,-63,o),
(257,-63,c),
(256,-63,l),
(256,-63,o),
(216,44,o),
(206,69,cs),
(117,298,l),
(13,298,l)
);
}
);
width = 552;
}
);
note = radical;
unicode = 8730;
},
{
glyphname = florin;
layers = (
{
hints = (
{
horizontal = 1;
place = (-150, 27);
place = (-150, 27);
type = Stem;
},
{
horizontal = 1;
place = (362, 26);
place = (362, 26);
type = Stem;
},
{
horizontal = 1;
place = (662, 27);
place = (662, 27);
type = Stem;
},
{
place = (-21, 339);
place = (-21, 339);
type = Stem;
}
);
layerId = m01;
shapes = (
{
closed = 1;
nodes = (
(271,388,l),
(172,388,l),
(198,572,ls),
(206,636,o),
(225,662,o),
(275,662,cs),
(284,662,o),
(312,661,o),
(318,660,c),
(318,687,l),
(312,688,o),
(285,689,o),
(275,689,cs),
(210,689,o),
(180,656,o),
(168,575,cs),
(141,388,l),
(55,388,l),
(55,362,l),
(138,362,l),
(82,-34,ls),
(72,-99,o),
(52,-123,o),
(7,-123,cs),
(0,-123,o),
(-13,-123,o),
(-21,-122,c),
(-21,-149,l),
(-13,-150,o),
(-1,-150,o),
(7,-150,cs),
(70,-150,o),
(100,-120,o),
(111,-36,cs),
(168,362,l),
(271,362,l)
);
}
);
width = 332;
}
);
note = florin;
unicode = 402;
},
{
glyphname = approxequal;
layers = (
{
hints = (
{
horizontal = 1;
place = (195, 28);
place = (195, 28);
type = Stem;
},
{
horizontal = 1;
place = (260, 29);
place = (260, 29);
type = Stem;
},
{
horizontal = 1;
place = (333, 28);
place = (333, 28);
type = Stem;
},
{
horizontal = 1;
place = (398, 29);
place = (398, 29);
type = Stem;
},
{
place = (43, 28);
place = (43, 28);
type = Stem;
},
{
place = (444, 28);
place = (444, 28);
type = Stem;
}
);
layerId = m01;
shapes = (
{
closed = 1;
nodes = (
(433,195,o),
(467,229,o),
(472,290,c),
(444,290,l),
(440,247,o),
(417,223,o),
(373,223,cs),
(296,223,o),
(215,289,o),
(139,289,cs),
(82,289,o),
(48,255,o),
(43,194,c),
(71,194,l),
(75,237,o),
(97,260,o),
(139,260,cs),
(206,260,o),
(293,195,o),
(373,195,cs)
);
},
{
closed = 1;
nodes = (
(433,333,o),
(467,366,o),
(472,427,c),
(444,427,l),
(440,385,o),
(417,361,o),
(373,361,cs),
(296,361,o),
(215,427,o),
(139,427,cs),
(82,427,o),
(48,393,o),
(43,332,c),
(71,332,l),
(75,374,o),
(97,398,o),
(139,398,cs),
(206,398,o),
(293,333,o),
(373,333,cs)
);
}
);
width = 524;
}
);
note = approxequal;
unicode = 8776;
},
{
glyphname = Delta;
layers = (
{
hints = (
{
horizontal = 1;
place = (0, 27);
place = (0, 27);
type = Stem;
},
{
horizontal = 1;
place = (680, 35);
place = (680, 35);
type = Stem;
},
{
place = (20, 607);
place = (20, 607);
type = Stem;
}
);
layerId = m01;
shapes = (
{
closed = 1;
nodes = (
(20,26,l),
(20,0,l),
(627,0,l),
(627,26,l),
(343,715,l),
(309,715,l)
);
},
{
closed = 1;
nodes = (
(54,27,l),
(274,554,ls),
(282,574,o),
(325,680,o),
(325,680,c),
(326,680,l),
(326,680,o),
(370,573,o),
(377,555,cs),
(593,27,l)
);
}
);
width = 647;
}
);
note = Delta;
unicode = 8710;
},
{
glyphname = guillemotleft;
kernLeft = guillemotleft;
kernRight = guillemotleft;
layers = (
{
hints = (
{
horizontal = 1;
place = (131, 280);
place = (131, 280);
type = Stem;
},
{
place = (54, 21);
place = (54, 21);
type = Stem;
},
{
place = (190, 21);
place = (190, 21);
type = Stem;
}
);
layerId = m01;
shapes = (
{
closed = 1;
nodes = (
(324,131,l),
(324,169,l),
(211,271,l),
(211,272,l),
(324,373,l),
(324,411,l),
(190,291,l),
(190,252,l)
);
},
{
closed = 1;
nodes = (
(188,131,l),
(188,169,l),
(75,271,l),
(75,272,l),
(188,373,l),
(188,411,l),
(54,291,l),
(54,252,l)
);
}
);
width = 378;
}
);
note = guillemotleft;
unicode = 171;
},
{
glyphname = guillemotright;
kernLeft = guillemotright;
kernRight = guillemotright;
layers = (
{
hints = (
{
horizontal = 1;
place = (131, 280);
place = (131, 280);
type = Stem;
},
{
place = (167, 21);
place = (167, 21);
type = Stem;
},
{
place = (303, 21);
place = (303, 21);
type = Stem;
}
);
layerId = m01;
shapes = (
{
closed = 1;
nodes = (
(190,131,l),
(324,252,l),
(324,291,l),
(190,411,l),
(190,373,l),
(303,272,l),
(190,169,l)
);
},
{
closed = 1;
nodes = (
(54,131,l),
(188,252,l),
(188,291,l),
(54,411,l),
(54,373,l),
(167,272,l),
(54,169,l)
);
}
);
width = 378;
}
);
note = guillemotright;
unicode = 187;
},
{
glyphname = ellipsis;
kernLeft = comma;
kernRight = comma;
layers = (
{
hints = (
{
horizontal = 1;
place = (0, 66);
place = (0, 66);
type = Stem;
},
{
place = (43, 36);
place = (43, 36);
type = Stem;
},
{
place = (193, 36);
place = (193, 36);
type = Stem;
},
{
place = (343, 36);
place = (343, 36);
type = Stem;
}
);
layerId = m01;
shapes = (
{
closed = 1;
nodes = (
(79,66,l),
(43,66,l),
(43,0,l),
(79,0,l)
);
},
{
closed = 1;
nodes = (
(229,66,l),
(193,66,l),
(193,0,l),
(229,0,l)
);
},
{
closed = 1;
nodes = (
(379,66,l),
(343,66,l),
(343,0,l),
(379,0,l)
);
}
);
width = 422;
}
);
note = ellipsis;
unicode = 8230;
},
{
glyphname = Agrave;
kernLeft = A;
kernRight = A;
layers = (
{
hints = (
{
horizontal = 1;
place = (0, 21);
target = up;
type = BottomGhost;
},
{
horizontal = 1;
place = (244, 27);
place = (244, 27);
type = Stem;
},
{
horizontal = 1;
place = (677, 38);
place = (677, 38);
type = Stem;
},
{
place = (8, 588);
place = (8, 588);
type = Stem;
}
);
layerId = m01;
shapes = (
{
closed = 1;
nodes = (
(563,0,l),
(596,0,l),
(320,715,l),
(284,715,l),
(8,0,l),
(41,0,l),
(135,244,l),
(469,244,l)
);
},
{
closed = 1;
nodes = (
(302,677,l),
(303,677,l),
(458,271,l),
(145,271,l)
);
},
{
closed = 1;
nodes = (
(246,867,l),
(206,867,l),
(288,755,l),
(317,755,l)
);
}
);
width = 604;
}
);
note = Agrave;
unicode = 192;
},
{
glyphname = Atilde;
kernLeft = A;
kernRight = A;
layers = (
{
hints = (
{
horizontal = 1;
place = (0, 21);
target = up;
type = BottomGhost;
},
{
horizontal = 1;
place = (244, 27);
place = (244, 27);
type = Stem;
},
{
horizontal = 1;
place = (677, 38);
place = (677, 38);
type = Stem;
},
{
horizontal = 1;
place = (818, 27);
place = (818, 27);
type = Stem;
},
{
place = (170, 26);
place = (170, 26);
type = Stem;
},
{
place = (407, 26);
place = (407, 26);
type = Stem;
},
{
horizontal = 1;
place = (766, 27);
place = (766, 27);
type = Stem;
}
);
layerId = m01;
shapes = (
{
closed = 1;
nodes = (
(563,0,l),
(596,0,l),
(320,715,l),
(284,715,l),
(8,0,l),
(41,0,l),
(135,244,l),
(469,244,l)
);
},
{
closed = 1;
nodes = (
(302,677,l),
(303,677,l),
(458,271,l),
(145,271,l)
);
},
{
closed = 1;
nodes = (
(200,845,o),
(173,818,o),
(170,766,c),
(196,766,l),
(199,802,o),
(215,818,o),
(236,818,cs),
(282,818,o),
(313,766,o),
(366,766,cs),
(403,766,o),
(430,792,o),
(433,845,c),
(407,845,l),
(404,809,o),
(388,793,o),
(366,793,cs),
(320,793,o),
(292,845,o),
(237,845,cs)
);
}
);
width = 604;
}
);
note = Atilde;
unicode = 195;
},
{
glyphname = Otilde;
kernLeft = C;
kernRight = O;
layers = (
{
hints = (
{
horizontal = 1;
place = (-10, 29);
place = (-10, 29);
type = Stem;
},
{
horizontal = 1;
place = (697, 29);
place = (697, 29);
type = Stem;
},
{
horizontal = 1;
place = (818, 27);
place = (818, 27);
type = Stem;
},
{
place = (37, 33);
place = (37, 33);
type = Stem;
},
{
place = (237, 26);
place = (237, 26);
type = Stem;
},
{
place = (474, 26);
place = (474, 26);
type = Stem;
},
{
place = (662, 33);
place = (662, 33);
type = Stem;
},
{
horizontal = 1;
place = (766, 27);
place = (766, 27);
type = Stem;
}
);
layerId = m01;
shapes = (
{
closed = 1;
nodes = (
(267,845,o),
(240,818,o),
(237,766,c),
(263,766,l),
(266,802,o),
(282,818,o),
(303,818,cs),
(349,818,o),
(380,766,o),
(433,766,cs),
(470,766,o),
(497,792,o),
(500,845,c),
(474,845,l),
(471,809,o),
(455,793,o),
(433,793,cs),
(387,793,o),
(359,845,o),
(304,845,cs)
);
},
{
closed = 1;
nodes = (
(559,-10,o),
(695,146,o),
(695,357,cs),
(695,569,o),
(559,726,o),
(365,726,cs),
(171,726,o),
(37,569,o),
(37,357,cs),
(37,145,o),
(171,-10,o),
(365,-10,cs)
);
},
{
closed = 1;
nodes = (
(182,19,o),
(70,169,o),
(70,357,cs),
(70,547,o),
(182,697,o),
(365,697,cs),
(547,697,o),
(662,546,o),
(662,357,cs),
(662,169,o),
(547,19,o),
(365,19,cs)
);
}
);
width = 732;
}
);
note = Otilde;
unicode = 213;
},
{
glyphname = OE;
kernLeft = C;
kernRight = E;
layers = (
{
hints = (
{
horizontal = 1;
place = (0, 29);
place = (0, 29);
type = Stem;
},
{
horizontal = 1;
place = (356, 28);
place = (356, 28);
type = Stem;
},
{
horizontal = 1;
place = (687, 28);
place = (687, 28);
type = Stem;
},
{
place = (37, 33);
place = (37, 33);
type = Stem;
},
{
place = (578, 32);
place = (578, 32);
type = Stem;
},
{
horizontal = 1;
place = (-10, 29);
place = (-10, 29);
type = Stem;
},
{
horizontal = 1;
place = (697, 29);
place = (697, 29);
type = Stem;
}
);
layerId = m01;
shapes = (
{
closed = 1;
nodes = (
(610,687,l),
(1009,687,l),
(1009,715,l),
(578,715,l),
(578,610,l),
(550,667,o),
(478,726,o),
(360,726,cs),
(171,726,o),
(37,571,o),
(37,358,cs),
(37,145,o),
(171,-10,o),
(360,-10,cs),
(476,-10,o),
(546,42,o),
(578,103,c),
(578,0,l),
(1019,0,l),
(1019,29,l),
(610,29,l),
(610,356,l),
(979,356,l),
(979,384,l),
(610,384,l)
);
},
{
closed = 1;
nodes = (
(182,19,o),
(70,169,o),
(70,358,cs),
(70,547,o),
(182,697,o),
(360,697,cs),
(483,697,o),
(576,620,o),
(578,518,cs),
(578,196,ls),
(578,103,o),
(494,19,o),
(360,19,cs)
);
}
);
width = 1056;
}
);
note = OE;
unicode = 338;
},
{
glyphname = oe;
kernLeft = c;
kernRight = e;
layers = (
{
hints = (
{
horizontal = 1;
place = (-11, 26);
place = (-11, 26);
type = Stem;
},
{
horizontal = 1;
place = (259, 26);
place = (259, 26);
type = Stem;
},
{
horizontal = 1;
place = (500, 26);
place = (500, 26);
type = Stem;
},
{
place = (26, 30);
place = (26, 30);
type = Stem;
},
{
place = (439, 31);
place = (439, 31);
type = Stem;
},
{
place = (841, 31);
place = (841, 31);
type = Stem;
}
);
layerId = m01;
shapes = (
{
closed = 1;
nodes = (
(360,-11,o),
(428,60,o),
(455,160,c),
(481,58,o),
(550,-11,o),
(666,-11,cs),
(784,-11,o),
(846,61,o),
(865,151,c),
(836,151,l),
(813,66,o),
(760,16,o),
(666,16,cs),
(534,16,o),
(471,117,o),
(470,259,c),
(872,259,l),
(871,343,o),
(853,411,o),
(811,459,cs),
(777,501,o),
(728,526,o),
(662,526,cs),
(551,526,o),
(481,456,o),
(454,357,c),
(428,456,o),
(360,526,o),
(247,526,cs),
(100,526,o),
(26,407,o),
(26,258,cs),
(26,109,o),
(100,-11,o),
(247,-11,cs)
);
},
{
closed = 1;
nodes = (
(128,15,o),
(56,113,o),
(56,258,cs),
(56,403,o),
(128,500,o),
(247,500,cs),
(366,500,o),
(439,403,o),
(439,259,cs),
(439,114,o),
(366,15,o),
(247,15,cs)
);
},
{
closed = 1;
nodes = (
(470,285,l),
(477,414,o),
(549,499,o),
(662,499,cs),
(768,499,o),
(833,422,o),
(841,285,c)
);
}
);
width = 896;
}
);
note = oe;
unicode = 339;
},
{
glyphname = endash;
kernLeft = hyphen;
kernRight = hyphen;
layers = (
{
hints = (
{
horizontal = 1;
place = (241, 28);
place = (241, 28);
type = Stem;
},
{
place = (44, 404);
place = (44, 404);
type = Stem;
}
);
layerId = m01;
shapes = (
{
closed = 1;
nodes = (
(44,241,l),
(448,241,l),
(448,269,l),
(44,269,l)
);
}
);
width = 492;
}
);
note = endash;
unicode = 8211;
},
{
glyphname = emdash;
kernLeft = hyphen;
kernRight = hyphen;
layers = (
{
hints = (
{
horizontal = 1;
place = (241, 28);
place = (241, 28);
type = Stem;
},
{
place = (44, 675);
place = (44, 675);
type = Stem;
}
);
layerId = m01;
shapes = (
{
closed = 1;
nodes = (
(44,241,l),
(719,241,l),
(719,269,l),
(44,269,l)
);
}
);
width = 763;
}
);
note = emdash;
unicode = 8212;
},
{
glyphname = quotedblleft;
kernLeft = quotedblleft;
kernRight = quotedblleft;
layers = (
{
hints = (
{
horizontal = 1;
place = (545, 67);
place = (545, 67);
type = Stem;
},
{
horizontal = 1;
place = (716, -20);
target = down;
type = TopGhost;
},
{
place = (42, 36);
place = (42, 36);
type = Stem;
},
{
place = (140, 36);
place = (140, 36);
type = Stem;
}
);
layerId = m01;
shapes = (
{
closed = 1;
nodes = (
(95,716,l),
(54,696,o),
(42,659,o),
(42,615,cs),
(42,545,l),
(78,545,l),
(78,612,l),
(64,612,l),
(64,618,ls),
(64,652,o),
(72,679,o),
(95,694,c)
);
},
{
closed = 1;
nodes = (
(193,716,l),
(152,696,o),
(140,659,o),
(140,615,cs),
(140,545,l),
(176,545,l),
(176,612,l),
(162,612,l),
(162,618,ls),
(162,652,o),
(170,679,o),
(193,694,c)
);
}
);
width = 225;
}
);
note = quotedblleft;
unicode = 8220;
},
{
glyphname = quotedblright;
kernLeft = quotedblright;
kernRight = quotedblright;
layers = (
{
hints = (
{
horizontal = 1;
place = (648, 67);
place = (648, 67);
type = Stem;
},
{
place = (48, 36);
place = (48, 36);
type = Stem;
},
{
place = (146, 36);
place = (146, 36);
type = Stem;
}
);
layerId = m01;
shapes = (
{
closed = 1;
nodes = (
(31,544,l),
(72,564,o),
(84,601,o),
(84,645,cs),
(84,715,l),
(48,715,l),
(48,648,l),
(62,648,l),
(62,642,ls),
(62,607,o),
(54,581,o),
(31,566,c)
);
},
{
closed = 1;
nodes = (
(129,544,l),
(170,564,o),
(182,601,o),
(182,645,cs),
(182,715,l),
(146,715,l),
(146,648,l),
(160,648,l),
(160,642,ls),
(160,607,o),
(152,581,o),
(129,566,c)
);
}
);
width = 224;
}
);
note = quotedblright;
unicode = 8221;
},
{
glyphname = quoteleft;
kernLeft = quotedblleft;
kernRight = quotedblleft;
layers = (
{
hints = (
{
horizontal = 1;
place = (545, 67);
place = (545, 67);
type = Stem;
},
{
horizontal = 1;
place = (716, -20);
target = down;
type = TopGhost;
},
{
place = (42, 36);
place = (42, 36);
type = Stem;
}
);
layerId = m01;
shapes = (
{
closed = 1;
nodes = (
(95,716,l),
(54,696,o),
(42,659,o),
(42,615,cs),
(42,545,l),
(78,545,l),
(78,612,l),
(64,612,l),
(64,618,ls),
(64,652,o),
(72,679,o),
(95,694,c)
);
}
);
width = 126;
}
);
note = quoteleft;
unicode = 8216;
},
{
glyphname = quoteright;
kernLeft = quotedblright;
kernRight = quotedblright;
layers = (
{
hints = (
{
horizontal = 1;
place = (648, 67);
place = (648, 67);
type = Stem;
},
{
place = (48, 36);
place = (48, 36);
type = Stem;
}
);
layerId = m01;
shapes = (
{
closed = 1;
nodes = (
(31,544,l),
(72,564,o),
(84,601,o),
(84,645,cs),
(84,715,l),
(48,715,l),
(48,648,l),
(62,648,l),
(62,642,ls),
(62,607,o),
(54,581,o),
(31,566,c)
);
}
);
width = 126;
}
);
note = quoteright;
unicode = 8217;
},
{
glyphname = divide;
kernLeft = minus;
kernRight = minus;
layers = (
{
hints = (
{
horizontal = 1;
place = (136, 63);
place = (136, 63);
type = Stem;
},
{
horizontal = 1;
place = (312, 29);
place = (312, 29);
type = Stem;
},
{
horizontal = 1;
place = (454, 62);
place = (454, 62);
type = Stem;
},
{
place = (244, 37);
place = (244, 37);
type = Stem;
}
);
layerId = m01;
shapes = (
{
closed = 1;
nodes = (
(54,312,l),
(470,312,l),
(470,341,l),
(54,341,l)
);
},
{
closed = 1;
nodes = (
(281,516,l),
(244,516,l),
(244,454,l),
(281,454,l)
);
},
{
closed = 1;
nodes = (
(281,199,l),
(244,199,l),
(244,136,l),
(281,136,l)
);
}
);
width = 524;
}
);
note = divide;
unicode = 247;
},
{
glyphname = lozenge;
layers = (
{
hints = (
{
horizontal = 1;
place = (0, 32);
place = (0, 32);
type = Stem;
},
{
horizontal = 1;
place = (683, 32);
place = (683, 32);
type = Stem;
},
{
place = (30, 440);
place = (30, 440);
type = Stem;
}
);
layerId = m01;
shapes = (
{
closed = 1;
nodes = (
(249,683,l),
(250,683,l),
(436,358,l),
(252,32,l),
(251,32,l),
(65,359,l)
);
},
{
closed = 1;
nodes = (
(30,359,l),
(237,0,l),
(266,0,l),
(470,358,l),
(265,715,l),
(235,715,l)
);
}
);
width = 500;
}
);
note = lozenge;
unicode = 9674;
},
{
glyphname = ydieresis;
kernLeft = yacute;
kernRight = yacute;
layers = (
{
hints = (
{
horizontal = 1;
place = (-169, 28);
place = (-169, 28);
type = Stem;
},
{
horizontal = 1;
place = (517, -20);
target = down;
type = TopGhost;
},
{
horizontal = 1;
place = (644, 65);
place = (644, 65);
type = Stem;
},
{
place = (134, 30);
place = (134, 30);
type = Stem;
},
{
place = (282, 30);
place = (282, 30);
type = Stem;
},
{
horizontal = 1;
place = (-162, 21);
target = up;
type = BottomGhost;
}
);
layerId = m01;
shapes = (
{
closed = 1;
nodes = (
(435,517,l),
(403,517,l),
(224,46,l),
(223,46,l),
(37,517,l),
(5,517,l),
(208,7,l),
(188,-44,ls),
(156,-126,o),
(132,-141,o),
(87,-141,cs),
(67,-141,o),
(52,-138,o),
(42,-134,c),
(41,-134,l),
(41,-162,l),
(52,-166,o),
(65,-169,o),
(86,-169,cs),
(148,-169,o),
(179,-148,o),
(216,-53,cs)
);
},
{
closed = 1;
nodes = (
(164,709,l),
(134,709,l),
(134,644,l),
(164,644,l)
);
},
{
closed = 1;
nodes = (
(312,709,l),
(282,709,l),
(282,644,l),
(312,644,l)
);
}
);
width = 440;
}
);
note = ydieresis;
unicode = 255;
},
{
glyphname = Ydieresis;
kernLeft = Yacute;
kernRight = Yacute;
layers = (
{
hints = (
{
horizontal = 1;
place = (0, 21);
target = up;
type = BottomGhost;
},
{
horizontal = 1;
place = (715, -20);
target = down;
type = TopGhost;
},
{
horizontal = 1;
place = (770, 66);
place = (770, 66);
type = Stem;
},
{
place = (198, 30);
place = (198, 30);
type = Stem;
},
{
place = (272, 31);
place = (272, 31);
type = Stem;
},
{
place = (346, 30);
place = (346, 30);
type = Stem;
}
);
layerId = m01;
shapes = (
{
closed = 1;
nodes = (
(43,715,l),
(8,715,l),
(272,321,l),
(272,0,l),
(303,0,l),
(303,320,l),
(568,715,l),
(533,715,l),
(288,350,l),
(287,350,l)
);
},
{
closed = 1;
nodes = (
(228,836,l),
(198,836,l),
(198,770,l),
(228,770,l)
);
},
{
closed = 1;
nodes = (
(376,836,l),
(346,836,l),
(346,770,l),
(376,770,l)
);
}
);
width = 576;
}
);
note = Ydieresis;
unicode = 376;
},
{
glyphname = fraction;
layers = (
{
hints = (
{
horizontal = 1;
place = (0, 21);
target = up;
type = BottomGhost;
},
{
horizontal = 1;
place = (715, -20);
target = down;
type = TopGhost;
},
{
place = (-182, 532);
place = (-182, 532);
type = Stem;
}
);
layerId = m01;
shapes = (
{
closed = 1;
nodes = (
(317,715,l),
(-182,0,l),
(-148,0,l),
(350,715,l)
);
}
);
width = 168;
}
);
note = fraction;
unicode = 8260;
},
{
glyphname = Euro;
layers = (
{
hints = (
{
horizontal = 1;
place = (-11, 28);
place = (-11, 28);
type = Stem;
},
{
horizontal = 1;
place = (268, 26);
place = (268, 26);
type = Stem;
},
{
horizontal = 1;
place = (388, 26);
place = (388, 26);
type = Stem;
},
{
horizontal = 1;
place = (669, 28);
place = (669, 28);
type = Stem;
},
{
place = (85, 32);
place = (85, 32);
type = Stem;
},
{
place = (535, 30);
place = (535, 30);
type = Stem;
}
);
layerId = m01;
shapes = (
{
closed = 1;
nodes = (
(22,268,l),
(87,268,l),
(108,91,o),
(206,-11,o),
(336,-11,cs),
(475,-11,o),
(557,99,o),
(565,232,c),
(535,232,l),
(527,119,o),
(462,17,o),
(336,17,cs),
(222,17,o),
(138,111,o),
(120,268,c),
(355,268,l),
(355,294,l),
(117,294,l),
(116,310,o),
(115,325,o),
(115,343,cs),
(115,358,o),
(115,373,o),
(117,388,c),
(355,388,l),
(355,414,l),
(119,414,l),
(137,572,o),
(218,669,o),
(338,669,cs),
(447,669,o),
(508,593,o),
(525,501,c),
(555,501,l),
(537,611,o),
(460,697,o),
(338,697,cs),
(206,697,o),
(108,590,o),
(87,414,c),
(22,414,l),
(22,388,l),
(85,388,l),
(83,373,o),
(83,358,o),
(83,343,cs),
(83,325,o),
(84,310,o),
(85,294,c),
(22,294,l)
);
}
);
width = 593;
}
);
note = Euro;
unicode = 8364;
},
{
glyphname = guilsinglleft;
kernLeft = guillemotleft;
kernRight = guillemotleft;
layers = (
{
hints = (
{
horizontal = 1;
place = (131, 280);
place = (131, 280);
type = Stem;
},
{
place = (54, 21);
place = (54, 21);
type = Stem;
}
);
layerId = m01;
shapes = (
{
closed = 1;
nodes = (
(192,169,l),
(75,271,l),
(75,272,l),
(192,373,l),
(192,411,l),
(54,291,l),
(54,252,l),
(192,131,l)
);
}
);
width = 247;
}
);
note = guilsinglleft;
unicode = 8249;
},
{
glyphname = guilsinglright;
kernLeft = guillemotright;
kernRight = guillemotright;
layers = (
{
hints = (
{
horizontal = 1;
place = (131, 280);
place = (131, 280);
type = Stem;
},
{
place = (172, 20);
place = (172, 20);
type = Stem;
}
);
layerId = m01;
shapes = (
{
closed = 1;
nodes = (
(54,131,l),
(192,252,l),
(192,291,l),
(54,411,l),
(54,373,l),
(172,272,l),
(54,169,l)
);
}
);
width = 247;
}
);
note = guilsinglright;
unicode = 8250;
},
{
glyphname = fi;
kernLeft = f;
layers = (
{
hints = (
{
horizontal = 1;
place = (0, 21);
target = up;
type = BottomGhost;
},
{
horizontal = 1;
place = (491, 26);
place = (491, 26);
type = Stem;
},
{
horizontal = 1;
place = (693, 27);
place = (693, 27);
type = Stem;
},
{
place = (91, 30);
place = (91, 30);
type = Stem;
},
{
place = (300, 30);
place = (300, 30);
type = Stem;
},
{
horizontal = 1;
place = (643, 67);
place = (643, 67);
type = Stem;
}
);
layerId = m01;
shapes = (
{
closed = 1;
nodes = (
(232,720,l),
(195,720,ls),
(128,720,o),
(91,690,o),
(91,615,cs),
(91,517,l),
(18,517,l),
(18,491,l),
(91,491,l),
(91,0,l),
(121,0,l),
(121,491,l),
(232,491,l),
(232,517,l),
(121,517,l),
(121,614,ls),
(121,671,o),
(145,693,o),
(196,693,cs),
(232,693,l)
);
},
{
closed = 1;
nodes = (
(330,517,l),
(300,517,l),
(300,0,l),
(330,0,l)
);
},
{
closed = 1;
nodes = (
(330,710,l),
(300,710,l),
(300,643,l),
(330,643,l)
);
}
);
width = 384;
}
);
note = fi;
unicode = 64257;
},
{
glyphname = fl;
kernLeft = f;
layers = (
{
hints = (
{
horizontal = 1;
place = (0, 21);
target = up;
type = BottomGhost;
},
{
horizontal = 1;
place = (491, 26);
place = (491, 26);
type = Stem;
},
{
horizontal = 1;
place = (693, 27);
place = (693, 27);
type = Stem;
},
{
place = (91, 30);
place = (91, 30);
type = Stem;
},
{
place = (300, 30);
place = (300, 30);
type = Stem;
},
{
horizontal = 1;
place = (715, -20);
target = down;
type = TopGhost;
}
);
layerId = m01;
shapes = (
{
closed = 1;
nodes = (
(232,720,l),
(195,720,ls),
(128,720,o),
(91,690,o),
(91,615,cs),
(91,517,l),
(18,517,l),
(18,491,l),
(91,491,l),
(91,0,l),
(121,0,l),
(121,491,l),
(232,491,l),
(232,517,l),
(121,517,l),
(121,614,ls),
(121,671,o),
(145,693,o),
(196,693,cs),
(232,693,l)
);
},
{
closed = 1;
nodes = (
(330,715,l),
(300,715,l),
(300,0,l),
(330,0,l)
);
}
);
width = 386;
}
);
note = fl;
unicode = 64258;
},
{
glyphname = daggerdbl;
layers = (
{
hints = (
{
horizontal = 1;
place = (105, 27);
place = (105, 27);
type = Stem;
},
{
horizontal = 1;
place = (479, 27);
place = (479, 27);
type = Stem;
},
{
horizontal = 1;
place = (715, -20);
target = down;
type = TopGhost;
},
{
place = (240, 31);
place = (240, 31);
type = Stem;
}
);
layerId = m01;
shapes = (
{
closed = 1;
nodes = (
(36,479,l),
(240,479,l),
(240,132,l),
(36,132,l),
(36,105,l),
(240,105,l),
(240,-104,l),
(271,-104,l),
(271,105,l),
(474,105,l),
(474,132,l),
(271,132,l),
(271,479,l),
(474,479,l),
(474,506,l),
(271,506,l),
(271,715,l),
(240,715,l),
(240,506,l),
(36,506,l)
);
}
);
width = 510;
}
);
note = daggerdbl;
unicode = 8225;
},
{
glyphname = periodcentered;
kernLeft = periodcentered;
kernRight = periodcentered;
layers = (
{
hints = (
{
horizontal = 1;
place = (279, 66);
place = (279, 66);
type = Stem;
},
{
place = (44, 37);
place = (44, 37);
type = Stem;
}
);
layerId = m01;
shapes = (
{
closed = 1;
nodes = (
(81,345,l),
(44,345,l),
(44,279,l),
(81,279,l)
);
}
);
width = 122;
}
);
note = periodcentered;
unicode = 183;
},
{
glyphname = quotesinglbase;
kernLeft = quotesinglbase;
kernRight = quotesinglbase;
layers = (
{
hints = (
{
horizontal = 1;
place = (2, 67);
place = (2, 67);
type = Stem;
},
{
place = (58, 36);
place = (58, 36);
type = Stem;
}
);
layerId = m01;
shapes = (
{
closed = 1;
nodes = (
(41,-102,l),
(82,-82,o),
(94,-45,o),
(94,-1,cs),
(94,69,l),
(58,69,l),
(58,2,l),
(72,2,l),
(72,-4,ls),
(72,-39,o),
(64,-65,o),
(41,-80,c)
);
}
);
width = 136;
}
);
note = quotesinglbase;
unicode = 8218;
},
{
glyphname = quotedblbase;
kernLeft = quotesinglbase;
kernRight = quotesinglbase;
layers = (
{
hints = (
{
horizontal = 1;
place = (2, 67);
place = (2, 67);
type = Stem;
},
{
place = (58, 36);
place = (58, 36);
type = Stem;
},
{
place = (157, 36);
place = (157, 36);
type = Stem;
}
);
layerId = m01;
shapes = (
{
closed = 1;
nodes = (
(41,-102,l),
(82,-82,o),
(94,-45,o),
(94,-1,cs),
(94,69,l),
(58,69,l),
(58,2,l),
(72,2,l),
(72,-4,ls),
(72,-39,o),
(64,-65,o),
(41,-80,c)
);
},
{
closed = 1;
nodes = (
(140,-102,l),
(181,-82,o),
(193,-45,o),
(193,-1,cs),
(193,69,l),
(157,69,l),
(157,2,l),
(171,2,l),
(171,-4,ls),
(171,-39,o),
(163,-65,o),
(140,-80,c)
);
}
);
width = 235;
}
);
note = quotedblbase;
unicode = 8222;
},
{
glyphname = perthousand;
kernLeft = percent;
layers = (
{
hints = (
{
horizontal = 1;
place = (0, 21);
target = up;
type = BottomGhost;
},
{
horizontal = 1;
place = (321, 25);
place = (321, 25);
type = Stem;
},
{
horizontal = 1;
place = (685, -20);
target = down;
type = TopGhost;
},
{
place = (28, 30);
place = (28, 30);
type = Stem;
},
{
place = (280, 29);
place = (280, 29);
type = Stem;
},
{
horizontal = 1;
place = (664, 25);
place = (664, 25);
type = Stem;
},
{
horizontal = 1;
place = (-10, 25);
place = (-10, 25);
type = Stem;
},
{
horizontal = 1;
place = (333, 25);
place = (333, 25);
type = Stem;
},
{
place = (395, 29);
place = (395, 29);
type = Stem;
},
{
place = (646, 29);
place = (646, 29);
type = Stem;
},
{
place = (726, 30);
place = (726, 30);
type = Stem;
},
{
place = (978, 29);
place = (978, 29);
type = Stem;
}
);
layerId = m01;
shapes = (
{
closed = 1;
nodes = (
(133,0,l),
(163,0,l),
(577,685,l),
(547,685,l)
);
},
{
closed = 1;
nodes = (
(252,321,o),
(309,391,o),
(309,505,cs),
(309,623,o),
(249,689,o),
(170,689,cs),
(89,689,o),
(28,621,o),
(28,505,cs),
(28,391,o),
(87,321,o),
(170,321,cs)
);
},
{
closed = 1;
nodes = (
(104,346,o),
(58,403,o),
(58,505,cs),
(58,608,o),
(106,664,o),
(170,664,cs),
(233,664,o),
(280,609,o),
(280,505,cs),
(280,402,o),
(236,346,o),
(170,346,cs)
);
},
{
closed = 1;
nodes = (
(618,-10,o),
(675,60,o),
(675,174,cs),
(675,292,o),
(616,358,o),
(536,358,cs),
(456,358,o),
(395,290,o),
(395,174,cs),
(395,60,o),
(453,-10,o),
(536,-10,cs)
);
},
{
closed = 1;
nodes = (
(471,15,o),
(424,72,o),
(424,174,cs),
(424,278,o),
(472,333,o),
(536,333,cs),
(600,333,o),
(646,278,o),
(646,174,cs),
(646,71,o),
(603,15,o),
(536,15,cs)
);
},
{
closed = 1;
nodes = (
(950,-10,o),
(1007,60,o),
(1007,174,cs),
(1007,292,o),
(947,358,o),
(868,358,cs),
(787,358,o),
(726,290,o),
(726,174,cs),
(726,60,o),
(785,-10,o),
(868,-10,cs)
);
},
{
closed = 1;
nodes = (
(802,15,o),
(756,72,o),
(756,174,cs),
(756,278,o),
(803,333,o),
(868,333,cs),
(931,333,o),
(978,278,o),
(978,174,cs),
(978,71,o),
(934,15,o),
(868,15,cs)
);
}
);
width = 1035;
}
);
note = perthousand;
unicode = 8240;
},
{
glyphname = Acircumflex;
kernLeft = A;
kernRight = A;
layers = (
{
hints = (
{
horizontal = 1;
place = (0, 21);
target = up;
type = BottomGhost;
},
{
horizontal = 1;
place = (244, 27);
place = (244, 27);
type = Stem;
},
{
horizontal = 1;
place = (677, 38);
place = (677, 38);
type = Stem;
},
{
horizontal = 1;
place = (838, 20);
place = (838, 20);
type = Stem;
},
{
place = (8, 588);
place = (8, 588);
type = Stem;
}
);
layerId = m01;
shapes = (
{
closed = 1;
nodes = (
(563,0,l),
(596,0,l),
(320,715,l),
(284,715,l),
(8,0,l),
(41,0,l),
(135,244,l),
(469,244,l)
);
},
{
closed = 1;
nodes = (
(302,677,l),
(303,677,l),
(458,271,l),
(145,271,l)
);
},
{
closed = 1;
nodes = (
(320,858,l),
(283,858,l),
(189,755,l),
(224,755,l),
(301,838,l),
(302,838,l),
(378,755,l),
(414,755,l)
);
}
);
width = 604;
}
);
note = Acircumflex;
unicode = 194;
},
{
glyphname = Ecircumflex;
kernRight = E;
layers = (
{
hints = (
{
horizontal = 1;
place = (0, 29);
place = (0, 29);
type = Stem;
},
{
horizontal = 1;
place = (356, 28);
place = (356, 28);
type = Stem;
},
{
horizontal = 1;
place = (687, 28);
place = (687, 28);
type = Stem;
},
{
place = (65, 31);
place = (65, 31);
type = Stem;
},
{
horizontal = 1;
place = (687, 171);
place = (687, 171);
type = Stem;
}
);
layerId = m01;
shapes = (
{
closed = 1;
nodes = (
(96,687,l),
(535,687,l),
(535,715,l),
(65,715,l),
(65,0,l),
(545,0,l),
(545,29,l),
(96,29,l),
(96,356,l),
(500,356,l),
(500,384,l),
(96,384,l)
);
},
{
closed = 1;
nodes = (
(324,858,l),
(287,858,l),
(193,755,l),
(228,755,l),
(305,838,l),
(306,838,l),
(382,755,l),
(418,755,l)
);
}
);
width = 582;
}
);
note = Ecircumflex;
unicode = 202;
},
{
glyphname = Aacute;
kernLeft = A;
kernRight = A;
layers = (
{
hints = (
{
horizontal = 1;
place = (0, 21);
target = up;
type = BottomGhost;
},
{
horizontal = 1;
place = (244, 27);
place = (244, 27);
type = Stem;
},
{
horizontal = 1;
place = (677, 38);
place = (677, 38);
type = Stem;
},
{
horizontal = 1;
place = (755, 112);
place = (755, 112);
type = Stem;
},
{
place = (8, 588);
place = (8, 588);
type = Stem;
}
);
layerId = m01;
shapes = (
{
closed = 1;
nodes = (
(563,0,l),
(596,0,l),
(320,715,l),
(284,715,l),
(8,0,l),
(41,0,l),
(135,244,l),
(469,244,l)
);
},
{
closed = 1;
nodes = (
(302,677,l),
(303,677,l),
(458,271,l),
(145,271,l)
);
},
{
closed = 1;
nodes = (
(285,755,l),
(313,755,l),
(393,867,l),
(352,867,l)
);
}
);
width = 604;
}
);
note = Aacute;
unicode = 193;
},
{
glyphname = Edieresis;
kernRight = E;
layers = (
{
hints = (
{
horizontal = 1;
place = (0, 29);
place = (0, 29);
type = Stem;
},
{
horizontal = 1;
place = (356, 28);
place = (356, 28);
type = Stem;
},
{
horizontal = 1;
place = (687, 149);
place = (687, 149);
type = Stem;
},
{
place = (65, 31);
place = (65, 31);
type = Stem;
},
{
place = (217, 30);
place = (217, 30);
type = Stem;
},
{
place = (365, 30);
place = (365, 30);
type = Stem;
},
{
horizontal = 1;
place = (687, 28);
place = (687, 28);
type = Stem;
}
);
layerId = m01;
shapes = (
{
closed = 1;
nodes = (
(247,836,l),
(217,836,l),
(217,770,l),
(247,770,l)
);
},
{
closed = 1;
nodes = (
(395,836,l),
(365,836,l),
(365,770,l),
(395,770,l)
);
},
{
closed = 1;
nodes = (
(96,687,l),
(535,687,l),
(535,715,l),
(65,715,l),
(65,0,l),
(545,0,l),
(545,29,l),
(96,29,l),
(96,356,l),
(500,356,l),
(500,384,l),
(96,384,l)
);
}
);
width = 582;
}
);
note = Edieresis;
unicode = 203;
},
{
glyphname = Egrave;
kernRight = E;
layers = (
{
hints = (
{
horizontal = 1;
place = (0, 29);
place = (0, 29);
type = Stem;
},
{
horizontal = 1;
place = (356, 28);
place = (356, 28);
type = Stem;
},
{
horizontal = 1;
place = (687, 180);
place = (687, 180);
type = Stem;
},
{
place = (65, 31);
place = (65, 31);
type = Stem;
},
{
horizontal = 1;
place = (687, 28);
place = (687, 28);
type = Stem;
}
);
layerId = m01;
shapes = (
{
closed = 1;
nodes = (
(255,867,l),
(215,867,l),
(297,755,l),
(326,755,l)
);
},
{
closed = 1;
nodes = (
(96,687,l),
(535,687,l),
(535,715,l),
(65,715,l),
(65,0,l),
(545,0,l),
(545,29,l),
(96,29,l),
(96,356,l),
(500,356,l),
(500,384,l),
(96,384,l)
);
}
);
width = 582;
}
);
note = Egrave;
unicode = 200;
},
{
glyphname = Iacute;
layers = (
{
hints = (
{
horizontal = 1;
place = (0, 21);
target = up;
type = BottomGhost;
},
{
horizontal = 1;
place = (715, -20);
target = down;
type = TopGhost;
},
{
horizontal = 1;
place = (755, 112);
place = (755, 112);
type = Stem;
},
{
place = (68, 31);
place = (68, 31);
type = Stem;
}
);
layerId = m01;
shapes = (
{
closed = 1;
nodes = (
(99,715,l),
(68,715,l),
(68,0,l),
(99,0,l)
);
},
{
closed = 1;
nodes = (
(71,755,l),
(99,755,l),
(179,867,l),
(138,867,l)
);
}
);
width = 167;
}
);
note = Iacute;
unicode = 205;
},
{
glyphname = Icircumflex;
layers = (
{
hints = (
{
horizontal = 1;
place = (0, 21);
target = up;
type = BottomGhost;
},
{
horizontal = 1;
place = (715, -20);
target = down;
type = TopGhost;
},
{
horizontal = 1;
place = (838, 20);
place = (838, 20);
type = Stem;
},
{
place = (68, 31);
place = (68, 31);
type = Stem;
}
);
layerId = m01;
shapes = (
{
closed = 1;
nodes = (
(99,715,l),
(68,715,l),
(68,0,l),
(99,0,l)
);
},
{
closed = 1;
nodes = (
(102,858,l),
(65,858,l),
(-29,755,l),
(6,755,l),
(83,838,l),
(84,838,l),
(160,755,l),
(196,755,l)
);
}
);
width = 167;
}
);
note = Icircumflex;
unicode = 206;
},
{
glyphname = Idieresis;
layers = (
{
hints = (
{
horizontal = 1;
place = (0, 21);
target = up;
type = BottomGhost;
},
{
horizontal = 1;
place = (715, -20);
target = down;
type = TopGhost;
},
{
horizontal = 1;
place = (770, 66);
place = (770, 66);
type = Stem;
},
{
place = (2, 30);
place = (2, 30);
type = Stem;
},
{
place = (68, 31);
place = (68, 31);
type = Stem;
},
{
place = (135, 30);
place = (135, 30);
type = Stem;
}
);
layerId = m01;
shapes = (
{
closed = 1;
nodes = (
(32,836,l),
(2,836,l),
(2,770,l),
(32,770,l)
);
},
{
closed = 1;
nodes = (
(165,836,l),
(135,836,l),
(135,770,l),
(165,770,l)
);
},
{
closed = 1;
nodes = (
(99,715,l),
(68,715,l),
(68,0,l),
(99,0,l)
);
}
);
width = 167;
}
);
note = Idieresis;
unicode = 207;
},
{
glyphname = Igrave;
layers = (
{
hints = (
{
horizontal = 1;
place = (0, 21);
target = up;
type = BottomGhost;
},
{
horizontal = 1;
place = (715, -20);
target = down;
type = TopGhost;
},
{
place = (68, 31);
place = (68, 31);
type = Stem;
}
);
layerId = m01;
shapes = (
{
closed = 1;
nodes = (
(99,715,l),
(68,715,l),
(68,0,l),
(99,0,l)
);
},
{
closed = 1;
nodes = (
(26,867,l),
(-14,867,l),
(68,755,l),
(97,755,l)
);
}
);
width = 167;
}
);
note = Igrave;
unicode = 204;
},
{
glyphname = Oacute;
kernLeft = C;
kernRight = O;
layers = (
{
hints = (
{
horizontal = 1;
place = (-10, 29);
place = (-10, 29);
type = Stem;
},
{
horizontal = 1;
place = (697, 29);
place = (697, 29);
type = Stem;
},
{
place = (37, 33);
place = (37, 33);
type = Stem;
},
{
place = (662, 33);
place = (662, 33);
type = Stem;
},
{
horizontal = 1;
place = (755, 112);
place = (755, 112);
type = Stem;
}
);
layerId = m01;
shapes = (
{
closed = 1;
nodes = (
(338,755,l),
(366,755,l),
(446,867,l),
(405,867,l)
);
},
{
closed = 1;
nodes = (
(559,-10,o),
(695,146,o),
(695,357,cs),
(695,569,o),
(559,726,o),
(365,726,cs),
(171,726,o),
(37,569,o),
(37,357,cs),
(37,145,o),
(171,-10,o),
(365,-10,cs)
);
},
{
closed = 1;
nodes = (
(182,19,o),
(70,169,o),
(70,357,cs),
(70,547,o),
(182,697,o),
(365,697,cs),
(547,697,o),
(662,546,o),
(662,357,cs),
(662,169,o),
(547,19,o),
(365,19,cs)
);
}
);
width = 732;
}
);
note = Oacute;
unicode = 211;
},
{
glyphname = Ocircumflex;
kernLeft = C;
kernRight = O;
layers = (
{
hints = (
{
horizontal = 1;
place = (-10, 29);
place = (-10, 29);
type = Stem;
},
{
horizontal = 1;
place = (697, 29);
place = (697, 29);
type = Stem;
},
{
horizontal = 1;
place = (838, 20);
place = (838, 20);
type = Stem;
},
{
place = (37, 33);
place = (37, 33);
type = Stem;
},
{
place = (662, 33);
place = (662, 33);
type = Stem;
}
);
layerId = m01;
shapes = (
{
closed = 1;
nodes = (
(559,-10,o),
(695,146,o),
(695,357,cs),
(695,569,o),
(559,726,o),
(365,726,cs),
(171,726,o),
(37,569,o),
(37,357,cs),
(37,145,o),
(171,-10,o),
(365,-10,cs)
);
},
{
closed = 1;
nodes = (
(182,19,o),
(70,169,o),
(70,357,cs),
(70,547,o),
(182,697,o),
(365,697,cs),
(547,697,o),
(662,546,o),
(662,357,cs),
(662,169,o),
(547,19,o),
(365,19,cs)
);
},
{
closed = 1;
nodes = (
(383,858,l),
(346,858,l),
(252,755,l),
(287,755,l),
(364,838,l),
(365,838,l),
(441,755,l),
(477,755,l)
);
}
);
width = 732;
}
);
note = Ocircumflex;
unicode = 212;
},
{
glyphname = Ograve;
kernLeft = C;
kernRight = O;
layers = (
{
hints = (
{
horizontal = 1;
place = (-10, 29);
place = (-10, 29);
type = Stem;
},
{
horizontal = 1;
place = (697, 29);
place = (697, 29);
type = Stem;
},
{
place = (37, 33);
place = (37, 33);
type = Stem;
},
{
place = (662, 33);
place = (662, 33);
type = Stem;
},
{
horizontal = 1;
place = (755, 112);
place = (755, 112);
type = Stem;
}
);
layerId = m01;
shapes = (
{
closed = 1;
nodes = (
(315,867,l),
(275,867,l),
(357,755,l),
(386,755,l)
);
},
{
closed = 1;
nodes = (
(559,-10,o),
(695,146,o),
(695,357,cs),
(695,569,o),
(559,726,o),
(365,726,cs),
(171,726,o),
(37,569,o),
(37,357,cs),
(37,145,o),
(171,-10,o),
(365,-10,cs)
);
},
{
closed = 1;
nodes = (
(182,19,o),
(70,169,o),
(70,357,cs),
(70,547,o),
(182,697,o),
(365,697,cs),
(547,697,o),
(662,546,o),
(662,357,cs),
(662,169,o),
(547,19,o),
(365,19,cs)
);
}
);
width = 732;
}
);
note = Ograve;
unicode = 210;
},
{
glyphname = Uacute;
kernLeft = U;
kernRight = U;
layers = (
{
hints = (
{
horizontal = 1;
place = (-10, 28);
place = (-10, 28);
type = Stem;
},
{
horizontal = 1;
place = (715, -20);
target = down;
type = TopGhost;
},
{
horizontal = 1;
place = (755, 112);
place = (755, 112);
type = Stem;
},
{
place = (55, 32);
place = (55, 32);
type = Stem;
},
{
place = (537, 32);
place = (537, 32);
type = Stem;
}
);
layerId = m01;
shapes = (
{
closed = 1;
nodes = (
(284,755,l),
(312,755,l),
(392,867,l),
(351,867,l)
);
},
{
closed = 1;
nodes = (
(55,715,l),
(55,231,ls),
(55,62,o),
(162,-10,o),
(311,-10,cs),
(457,-10,o),
(569,60,o),
(569,231,cs),
(569,715,l),
(537,715,l),
(537,233,ls),
(537,77,o),
(440,18,o),
(312,18,cs),
(179,18,o),
(87,77,o),
(87,233,cs),
(87,715,l)
);
}
);
width = 624;
}
);
note = Uacute;
unicode = 218;
},
{
glyphname = Ucircumflex;
kernLeft = U;
kernRight = U;
layers = (
{
hints = (
{
horizontal = 1;
place = (-10, 28);
place = (-10, 28);
type = Stem;
},
{
horizontal = 1;
place = (715, -20);
target = down;
type = TopGhost;
},
{
horizontal = 1;
place = (838, 20);
place = (838, 20);
type = Stem;
},
{
place = (55, 32);
place = (55, 32);
type = Stem;
},
{
place = (537, 32);
place = (537, 32);
type = Stem;
}
);
layerId = m01;
shapes = (
{
closed = 1;
nodes = (
(55,715,l),
(55,231,ls),
(55,62,o),
(162,-10,o),
(311,-10,cs),
(457,-10,o),
(569,60,o),
(569,231,cs),
(569,715,l),
(537,715,l),
(537,233,ls),
(537,77,o),
(440,18,o),
(312,18,cs),
(179,18,o),
(87,77,o),
(87,233,cs),
(87,715,l)
);
},
{
closed = 1;
nodes = (
(333,858,l),
(296,858,l),
(202,755,l),
(237,755,l),
(314,838,l),
(315,838,l),
(391,755,l),
(427,755,l)
);
}
);
width = 624;
}
);
note = Ucircumflex;
unicode = 219;
},
{
glyphname = Ugrave;
kernLeft = U;
kernRight = U;
layers = (
{
hints = (
{
horizontal = 1;
place = (-10, 28);
place = (-10, 28);
type = Stem;
},
{
horizontal = 1;
place = (715, -20);
target = down;
type = TopGhost;
},
{
horizontal = 1;
place = (755, 112);
place = (755, 112);
type = Stem;
},
{
place = (55, 32);
place = (55, 32);
type = Stem;
},
{
place = (537, 32);
place = (537, 32);
type = Stem;
}
);
layerId = m01;
shapes = (
{
closed = 1;
nodes = (
(267,867,l),
(227,867,l),
(309,755,l),
(338,755,l)
);
},
{
closed = 1;
nodes = (
(55,715,l),
(55,231,ls),
(55,62,o),
(162,-10,o),
(311,-10,cs),
(457,-10,o),
(569,60,o),
(569,231,cs),
(569,715,l),
(537,715,l),
(537,233,ls),
(537,77,o),
(440,18,o),
(312,18,cs),
(179,18,o),
(87,77,o),
(87,233,cs),
(87,715,l)
);
}
);
width = 624;
}
);
note = Ugrave;
unicode = 217;
},
{
glyphname = dotlessi;
kernLeft = m;
kernRight = u;
layers = (
{
hints = (
{
horizontal = 1;
place = (0, 21);
target = up;
type = BottomGhost;
},
{
horizontal = 1;
place = (517, -20);
target = down;
type = TopGhost;
},
{
place = (54, 30);
place = (54, 30);
type = Stem;
}
);
layerId = m01;
shapes = (
{
closed = 1;
nodes = (
(84,517,l),
(54,517,l),
(54,0,l),
(84,0,l)
);
}
);
width = 138;
}
);
note = dotlessi;
unicode = 305;
},
{
glyphname = circumflex;
layers = (
{
hints = (
{
horizontal = 1;
place = (683, 21);
place = (683, 21);
type = Stem;
},
{
place = (125, 212);
place = (125, 212);
type = Stem;
}
);
layerId = m01;
shapes = (
{
closed = 1;
nodes = (
(249,704,l),
(212,704,l),
(125,599,l),
(158,599,l),
(230,683,l),
(231,683,l),
(302,599,l),
(337,599,l)
);
}
);
width = 461;
}
);
note = circumflex;
unicode = 710;
},
{
glyphname = tilde;
layers = (
{
hints = (
{
horizontal = 1;
place = (659, 27);
place = (659, 27);
type = Stem;
},
{
place = (114, 26);
place = (114, 26);
type = Stem;
},
{
place = (351, 26);
place = (351, 26);
type = Stem;
},
{
horizontal = 1;
place = (607, 27);
place = (607, 27);
type = Stem;
}
);
layerId = m01;
shapes = (
{
closed = 1;
nodes = (
(144,686,o),
(117,659,o),
(114,607,c),
(140,607,l),
(143,643,o),
(159,659,o),
(180,659,cs),
(226,659,o),
(257,607,o),
(310,607,cs),
(347,607,o),
(374,633,o),
(377,686,c),
(351,686,l),
(348,650,o),
(332,634,o),
(310,634,cs),
(264,634,o),
(236,686,o),
(181,686,cs)
);
}
);
width = 492;
}
);
note = tilde;
unicode = 732;
},
{
glyphname = macron;
layers = (
{
hints = (
{
horizontal = 1;
place = (641, 30);
place = (641, 30);
type = Stem;
},
{
place = (125, 228);
place = (125, 228);
type = Stem;
}
);
layerId = m01;
shapes = (
{
closed = 1;
nodes = (
(125,641,l),
(353,641,l),
(353,671,l),
(125,671,l)
);
}
);
width = 478;
}
);
note = macron;
unicode = 175;
},
{
glyphname = breve;
layers = (
{
hints = (
{
horizontal = 1;
place = (604, 29);
place = (604, 29);
type = Stem;
},
{
horizontal = 1;
place = (701, -20);
target = down;
type = TopGhost;
},
{
place = (136, 28);
place = (136, 28);
type = Stem;
},
{
place = (341, 28);
place = (341, 28);
type = Stem;
}
);
layerId = m01;
shapes = (
{
closed = 1;
nodes = (
(322,604,o),
(365,645,o),
(369,701,c),
(341,701,l),
(334,662,o),
(306,633,o),
(252,633,cs),
(199,633,o),
(171,662,o),
(164,701,c),
(136,701,l),
(140,645,o),
(183,604,o),
(252,604,cs)
);
}
);
width = 488;
}
);
note = breve;
unicode = 728;
},
{
glyphname = dotaccent;
layers = (
{
hints = (
{
horizontal = 1;
place = (638, 66);
place = (638, 66);
type = Stem;
},
{
place = (221, 31);
place = (221, 31);
type = Stem;
}
);
layerId = m01;
shapes = (
{
closed = 1;
nodes = (
(252,704,l),
(221,704,l),
(221,638,l),
(252,638,l)
);
}
);
width = 474;
}
);
note = dotaccent;
unicode = 729;
},
{
glyphname = ring;
layers = (
{
hints = (
{
horizontal = 1;
place = (571, 22);
place = (571, 22);
type = Stem;
},
{
horizontal = 1;
place = (710, 22);
place = (710, 22);
type = Stem;
},
{
place = (167, 25);
place = (167, 25);
type = Stem;
},
{
place = (304, 25);
place = (304, 25);
type = Stem;
}
);
layerId = m01;
shapes = (
{
closed = 1;
nodes = (
(294,571,o),
(329,605,o),
(329,652,cs),
(329,698,o),
(294,732,o),
(248,732,cs),
(202,732,o),
(167,698,o),
(167,652,cs),
(167,605,o),
(202,571,o),
(248,571,cs)
);
},
{
closed = 1;
nodes = (
(214,593,o),
(192,618,o),
(192,652,cs),
(192,685,o),
(214,710,o),
(248,710,cs),
(282,710,o),
(304,685,o),
(304,652,cs),
(304,618,o),
(282,593,o),
(248,593,cs)
);
}
);
width = 497;
}
);
note = ring;
unicode = 730;
},
{
glyphname = cedilla;
layers = (
{
hints = (
{
horizontal = 1;
place = (-155, 21);
target = up;
type = BottomGhost;
},
{
horizontal = 1;
place = (-75, 22);
place = (-75, 22);
type = Stem;
},
{
place = (288, 30);
place = (288, 30);
type = Stem;
},
{
horizontal = 1;
place = (-181, 23);
place = (-181, 23);
type = Stem;
}
);
layerId = m01;
shapes = (
{
closed = 1;
nodes = (
(250,0,l),
(177,-71,l),
(187,-86,l),
(199,-80,o),
(215,-75,o),
(234,-75,cs),
(269,-75,o),
(288,-87,o),
(288,-112,cs),
(288,-144,o),
(260,-158,o),
(219,-158,cs),
(191,-158,o),
(163,-151,o),
(139,-138,c),
(129,-155,l),
(155,-171,o),
(188,-181,o),
(223,-181,cs),
(277,-181,o),
(318,-158,o),
(318,-112,cs),
(318,-75,o),
(288,-52,o),
(239,-53,cs),
(232,-53,o),
(226,-53,o),
(222,-54,c),
(282,0,l)
);
}
);
width = 494;
}
);
note = cedilla;
unicode = 184;
},
{
glyphname = hungarumlaut;
layers = (
{
hints = (
{
horizontal = 1;
place = (597, 124);
place = (597, 124);
type = Stem;
},
{
place = (145, 209);
place = (145, 209);
type = Stem;
}
);
layerId = m01;
shapes = (
{
closed = 1;
nodes = (
(145,597,l),
(172,597,l),
(229,721,l),
(193,721,l)
);
},
{
closed = 1;
nodes = (
(270,597,l),
(297,597,l),
(354,721,l),
(319,721,l)
);
}
);
width = 473;
}
);
note = hungarumlaut;
unicode = 733;
},
{
glyphname = ogonek;
layers = (
{
hints = (
{
horizontal = 1;
place = (-173, 25);
place = (-173, 25);
type = Stem;
},
{
place = (135, 31);
place = (135, 31);
type = Stem;
}
);
layerId = m01;
shapes = (
{
closed = 1;
nodes = (
(214,0,l),
(172,-22,o),
(135,-55,o),
(135,-98,cs),
(135,-141,o),
(164,-173,o),
(226,-173,cs),
(251,-173,o),
(268,-168,o),
(280,-162,c),
(280,-138,l),
(277,-138,l),
(262,-145,o),
(249,-148,o),
(228,-148,cs),
(185,-148,o),
(166,-126,o),
(166,-97,cs),
(166,-60,o),
(196,-31,o),
(252,0,c)
);
}
);
width = 494;
}
);
note = ogonek;
unicode = 731;
},
{
glyphname = caron;
layers = (
{
hints = (
{
horizontal = 1;
place = (598, 20);
place = (598, 20);
type = Stem;
},
{
place = (125, 212);
place = (125, 212);
type = Stem;
}
);
layerId = m01;
shapes = (
{
closed = 1;
nodes = (
(337,702,l),
(303,702,l),
(232,618,l),
(231,618,l),
(160,702,l),
(125,702,l),
(212,598,l),
(249,598,l)
);
}
);
width = 461;
}
);
note = caron;
unicode = 711;
},
{
glyphname = Amacron;
kernLeft = A;
kernRight = A;
layers = (
{
hints = (
{
horizontal = 1;
place = (0, 21);
target = up;
type = BottomGhost;
},
{
horizontal = 1;
place = (244, 27);
place = (244, 27);
type = Stem;
},
{
horizontal = 1;
place = (677, 38);
place = (677, 38);
type = Stem;
},
{
horizontal = 1;
place = (776, 29);
place = (776, 29);
type = Stem;
},
{
place = (8, 588);
place = (8, 588);
type = Stem;
}
);
layerId = m01;
shapes = (
{
closed = 1;
nodes = (
(563,0,l),
(596,0,l),
(320,715,l),
(284,715,l),
(8,0,l),
(41,0,l),
(135,244,l),
(469,244,l)
);
},
{
closed = 1;
nodes = (
(302,677,l),
(303,677,l),
(458,271,l),
(145,271,l)
);
},
{
closed = 1;
nodes = (
(188,776,l),
(416,776,l),
(416,805,l),
(188,805,l)
);
}
);
width = 604;
}
);
note = Amacron;
unicode = 256;
},
